<?xml version="1.0" encoding="utf-8"?>
<!-- Generator: Adobe Illustrator 16.0.0, SVG Export Plug-In . SVG Version: 6.00 Build 0)  -->
<!DOCTYPE svg PUBLIC "-//W3C//DTD SVG 1.1//EN" "http://www.w3.org/Graphics/SVG/1.1/DTD/svg11.dtd">
<svg version="1.1" id="Layer_1" xmlns="http://www.w3.org/2000/svg" xmlns:xlink="http://www.w3.org/1999/xlink" x="0px" y="0px"
	 width="133.228px" height="68.599px" viewBox="0 0 133.228 68.599" enable-background="new 0 0 133.228 68.599"
	 xml:space="preserve">
<g>
	<defs>
		<rect id="SVGID_1_" y="0" width="133.228" height="68.598"/>
	</defs>
	<clipPath id="SVGID_2_">
		<use xlink:href="#SVGID_1_"  overflow="visible"/>
	</clipPath>
	<path clip-path="url(#SVGID_2_)" fill="#FFFFFF" d="M98.735,22.562c-2.822,4.358-10.851,3.921-10.851,3.921
		s-4.663-0.035-7.896-2.212c-4.956-2.893-6.357-7.7-6.965-11.48c-0.608-3.781-0.421-6.861,4.534-8.868
		c4.956-2.008,11.874-1.541,17.157-0.933c5.281,0.606,5.983,4.293,5.983,4.293C101.436,9.541,101.559,18.204,98.735,22.562
		 M60.205,12.791c-0.608,3.78-2.01,8.587-6.965,11.48c-3.232,2.177-7.895,2.212-7.895,2.212s-8.029,0.437-10.852-3.921
		c-2.822-4.358-2.699-13.021-1.963-15.279c0,0,0.702-3.687,5.984-4.293c5.282-0.608,12.201-1.075,17.156,0.933
		C60.625,5.93,60.812,9.01,60.205,12.791 M107.942,2.896c0,0,0.083-0.934-1.119-1.12c0,0-4.722-0.747-9.303-1.354
		c-4.581-0.606-13.136-0.7-19.868,0.677c-6.732,1.377-6.077,2.03-10.938,1.983c-0.035,0-0.065,0.004-0.1,0.004
		s-0.063-0.004-0.099-0.004c-4.862,0.047-4.208-0.606-10.939-1.983C48.844-0.278,40.29-0.184,35.708,0.422
		c-4.581,0.607-9.303,1.354-9.303,1.354c-1.202,0.186-1.119,1.12-1.119,1.12s-0.048,4.621,0.327,5.041
		c0.935,0.14,2.618,1.586,2.991,4.947c1.169,13.068,7.667,14.701,9.444,15.261c1.776,0.56,8.508,2.521,16.128-1.493
		c7.62-4.013,10.05-14.701,10.378-15.915c0.328-1.214,1.961-1.167,1.961-1.167s0.037-0.051,0.099-0.138
		c0.063,0.087,0.1,0.138,0.1,0.138s1.633-0.047,1.961,1.167c0.326,1.214,2.758,11.902,10.378,15.915
		c7.62,4.014,14.351,2.053,16.128,1.493c1.775-0.56,8.274-2.193,9.442-15.261c0.374-3.361,2.058-4.807,2.992-4.947
		C107.989,7.517,107.942,2.896,107.942,2.896"/>
	<path clip-path="url(#SVGID_2_)" fill="#FFFFFF" d="M9.846,48.239c4.573,0,6.901,2.408,6.901,2.408l-1.15,1.457
		c0,0-2.188-2.017-5.722-2.017c-4.432,0-7.827,3.557-7.827,8.289c0,4.845,3.339,8.374,7.798,8.374c3.9,0,6.228-2.886,6.228-2.886
		V61.43c0-0.42-0.225-0.616-0.617-0.616H14.25v-1.736h1.963c1.206,0,1.711,0.504,1.711,1.708v7.478H16.13v-1.484
		c0-0.42,0.028-0.84,0.028-0.84h-0.056c0,0-2.3,2.66-6.452,2.66C4.265,68.599,0,64.286,0,58.377C0,52.721,4.265,48.239,9.846,48.239
		"/>
	<path clip-path="url(#SVGID_2_)" fill="#FFFFFF" d="M30.966,59.777c-0.112-2.912-1.907-4.34-3.984-4.34
		c-2.328,0-4.376,1.512-4.852,4.34H30.966z M27.012,53.84c3.898,0,5.919,2.997,5.919,6.498c0,0.335-0.057,0.951-0.057,0.951H22.045
		c0.057,3.557,2.553,5.601,5.471,5.601c2.58,0,4.235-1.735,4.235-1.735l0.926,1.429c0,0-2.048,2.017-5.245,2.017
		c-4.18,0-7.378-3.024-7.378-7.366C20.055,56.612,23.225,53.84,27.012,53.84"/>
	<path clip-path="url(#SVGID_2_)" fill="#FFFFFF" d="M45.635,59.777c-0.112-2.912-1.907-4.34-3.983-4.34
		c-2.328,0-4.376,1.512-4.853,4.34H45.635z M41.68,53.84c3.899,0,5.919,2.997,5.919,6.498c0,0.335-0.056,0.951-0.056,0.951H36.715
		c0.057,3.557,2.552,5.601,5.47,5.601c2.58,0,4.236-1.735,4.236-1.735l0.925,1.429c0,0-2.048,2.017-5.245,2.017
		c-4.18,0-7.377-3.024-7.377-7.366C34.724,56.612,37.893,53.84,41.68,53.84"/>
	<path clip-path="url(#SVGID_2_)" fill="#FFFFFF" d="M50.626,50.844c0-0.392-0.224-0.615-0.617-0.615h-1.178v-1.653h1.992
		c1.206,0,1.711,0.42,1.711,1.625v9.353h1.458c0.533,0,1.206-0.168,1.599-0.672l3.618-4.705h2.329l-4.068,5.153
		c-0.701,0.868-1.065,1.009-1.065,1.009v0.055c0,0,0.42,0.196,0.869,1.036l2.553,4.566c0.252,0.476,0.532,0.616,1.29,0.616h0.758
		v1.651h-1.319c-1.402,0-1.795-0.224-2.44-1.399l-2.805-5.041c-0.309-0.561-0.982-0.616-1.487-0.616h-1.29v7.057h-1.908V50.844z"/>
	<path clip-path="url(#SVGID_2_)" fill="#FFFFFF" d="M71.466,50.928c0-0.42-0.224-0.616-0.617-0.616h-1.206v-1.735h2.076
		c1.206,0,1.711,0.504,1.711,1.708v15.627c0,0.42,0.224,0.615,0.617,0.615h6.536c0.392,0,0.617-0.195,0.617-0.615v-1.317h1.851
		v1.961c0,1.204-0.505,1.708-1.711,1.708h-8.163c-1.206,0-1.711-0.504-1.711-1.708V50.928z"/>
	<path clip-path="url(#SVGID_2_)" fill="#FFFFFF" d="M88.855,66.975c2.693,0,4.321-2.8,4.321-5.237v-0.644h-0.814
		c-2.216,0-6.647,0.056-6.647,3.221C85.715,65.63,86.753,66.975,88.855,66.975 M92.391,59.581h0.786v-0.168
		c0-2.94-1.067-3.977-3.647-3.977c-0.701,0-2.749,0.196-2.749,1.232v0.896h-1.822v-1.343c0-1.961,3.365-2.381,4.6-2.381
		c4.46,0,5.526,2.381,5.526,5.404v6.749c0,0.42,0.225,0.616,0.616,0.616h1.179v1.653h-1.936c-1.207,0-1.683-0.533-1.683-1.682
		c0-0.615,0.026-1.036,0.026-1.036h-0.055c0.028,0-1.149,3.053-4.685,3.053c-2.356,0-4.796-1.372-4.796-4.172
		C83.752,59.749,89.95,59.581,92.391,59.581"/>
	<path clip-path="url(#SVGID_2_)" fill="#FFFFFF" d="M105.46,66.918c2.497,0,4.545-2.1,4.545-5.684c0-3.445-1.852-5.657-4.46-5.657
		c-2.355,0-4.571,1.68-4.571,5.685C100.974,64.09,102.432,66.918,105.46,66.918 M99.121,50.844c0-0.392-0.224-0.615-0.617-0.615
		h-1.178v-1.653h1.992c1.205,0,1.71,0.505,1.71,1.709v5.097c0,0.645-0.055,1.148-0.055,1.148h0.055c0,0,1.179-2.689,4.797-2.689
		c3.787,0,6.145,3.025,6.145,7.395c0,4.451-2.665,7.364-6.368,7.364c-3.366,0-4.628-2.716-4.628-2.716h-0.057
		c0,0,0.057,0.476,0.057,1.148v1.231h-1.853V50.844z"/>
	<path clip-path="url(#SVGID_2_)" fill="#FFFFFF" d="M124.478,59.777c-0.111-2.912-1.907-4.34-3.981-4.34
		c-2.329,0-4.376,1.512-4.854,4.34H124.478z M120.522,53.84c3.899,0,5.919,2.997,5.919,6.498c0,0.335-0.056,0.951-0.056,0.951
		h-10.827c0.056,3.557,2.552,5.601,5.469,5.601c2.581,0,4.236-1.735,4.236-1.735l0.926,1.429c0,0-2.048,2.017-5.246,2.017
		c-4.179,0-7.377-3.024-7.377-7.366C113.566,56.612,116.735,53.84,120.522,53.84"/>
	<path clip-path="url(#SVGID_2_)" fill="#FFFFFF" d="M129.526,50.844c0-0.392-0.226-0.615-0.617-0.615h-1.179v-1.653h1.991
		c1.206,0,1.711,0.505,1.711,1.709v15.711c0,0.42,0.226,0.616,0.617,0.616h1.179v1.651h-1.991c-1.206,0-1.711-0.504-1.711-1.708
		V50.844z"/>
</g>
<polygon fill="#FFFFFF" points="83.21,20.05 81.39,20.05 83.89,7.759 85.709,7.759 "/>
<polygon fill="#FFFFFF" points="87.514,8.657 87.066,10.975 92.106,13.883 87.066,16.79 87.514,19.108 96.579,13.883 "/>
<polygon fill="#FFFFFF" points="48.945,19.108 49.393,16.79 44.352,13.883 49.393,10.975 48.945,8.657 39.879,13.883 "/>
</svg>
