<?xml version="1.0" encoding="utf-8"?>
<!-- Generator: Adobe Illustrator 16.0.0, SVG Export Plug-In . SVG Version: 6.00 Build 0)  -->
<!DOCTYPE svg PUBLIC "-//W3C//DTD SVG 1.1//EN" "http://www.w3.org/Graphics/SVG/1.1/DTD/svg11.dtd">
<svg version="1.1" id="machine.svg_xA0_Image_1_" xmlns="http://www.w3.org/2000/svg" xmlns:xlink="http://www.w3.org/1999/xlink"
	 x="0px" y="0px" width="894px" height="574px" viewBox="0 0 894 574" enable-background="new 0 0 894 574" xml:space="preserve">
<g>
	<path fill-rule="evenodd" clip-rule="evenodd" fill="#DBDCDB" d="M660,1c3.476,2.268,4.051,5.59,4.048,9.505
		c-0.062,71.781-0.023,143.563-0.007,215.344c-2.284,2.364-5.271,1.702-8.016,1.71c-23.47,0.063-46.938,0.031-70.408,0.038
		c-2.163,0-4.336-0.104-6.482,0.214c-4.379,0.647-6.78,3.098-7.362,7.52c-0.284,2.149-0.176,4.321-0.177,6.484
		c-0.004,28.796,0.008,57.592-0.018,86.388c-0.002,2.646,0.304,5.341-0.765,7.893c-0.306,0.634-0.814,0.959-1.519,0.979
		c-2.5-2.194-1.842-5.194-1.849-7.926c-0.066-25.24-0.025-50.481-0.044-75.723c-0.005-7.672-0.164-7.75-7.758-7.848
		c-9.791-0.125-19.59,0.386-29.368-0.282c-2.395-0.416-3.549-2.213-4.67-4.125c-6.503-11.101-13.354-14.83-25.595-12.261
		c-6.617,1.389-10.579-0.272-15.033-5.227c-16.592-18.45-37.764-22.275-61.16-17.447c-10.158,2.097-19.651,6.233-29.284,9.954
		c-10.749,4.151-21.7,7.392-33.462,7.209c-14.55-0.227-22.287-3.368-32.762-14.411c0.74,10.038,2.854,19.113,6.096,27.979
		c0.824,2.253,2.587,4.389,1.436,7.069c-3.332-0.007-6.665,0.034-9.996-0.032c-4.935-0.098-6.763-2.008-6.876-7.055
		c-0.015-0.666-0.002-1.333-0.002-1.999c0-74.975,0.021-149.949-0.069-224.924c-0.004-3.53,0.6-6.519,3.102-9.026
		C434.667,1,547.333,1,660,1z"/>
	<path fill-rule="evenodd" clip-rule="evenodd" fill="#A8A8A9" d="M895,409c-2.102,3.309-5.154,4.088-8.955,4.081
		c-57.72-0.094-115.439-0.072-173.159-0.079c-2.38,1.36-2.239,4.387-4.049,6.123c-0.08-5.74-3.433-6.24-8.36-6.221
		c-51.476,0.208-102.953,0.155-154.43,0.175c-1.991-0.625-2.551-2.476-3.314-4.062c-2.153-4.466-4.75-8.638-7.88-12.485
		c-1.396-1.992-3.268-3.531-4.932-5.265c-1.542-1.605-1.354-2.77,0.882-3.422c2.658-0.417,5.326-0.25,7.985-0.251
		c52.264-0.012,104.527-0.005,156.791-0.017c2.654-0.001,5.333,0.24,7.933-0.574c1.648-0.344,3.297-0.343,4.946-0.012
		c4.865,1.142,9.774,1.572,14.793,1.566c54.114-0.069,108.229-0.048,162.343-0.026c1.812,0.001,3.664-0.345,5.438,0.355
		c1.323,1.037,2.646,2.075,3.969,3.112C895,397.667,895,403.333,895,409z"/>
	<path fill-rule="evenodd" clip-rule="evenodd" fill="#DBDCDB" d="M114.959,271.929c0.015,35.634,0.044,71.269,0.031,106.902
		c-0.002,6.021-2.098,8.139-8.078,8.144c-32.637,0.031-65.274-0.023-97.911,0.071C5.459,387.056,2.977,385.714,1,383
		c0-37,0-74,0-111c1.917-1.715,4.297-1.609,6.613-1.612c33.571-0.034,67.143-0.033,100.714,0.002
		C110.635,270.392,113.026,270.225,114.959,271.929z"/>
	<path fill-rule="evenodd" clip-rule="evenodd" fill="#526568" d="M114.959,271.929C76.973,271.952,38.986,271.977,1,272
		c0-7,0-14,0-21c2.499-2.848,5.684-3.404,9.355-3.393c31.785,0.1,63.57,0.051,95.355,0.063c7.916,0.003,9.324,1.42,9.325,9.284
		C115.037,261.945,114.987,266.938,114.959,271.929z"/>
	<path fill-rule="evenodd" clip-rule="evenodd" fill="#DBDCDB" d="M800.939,557.268c0.255-13.039,5.988-20.126,17.251-22.417
		c7.848-1.596,17.439,3.305,21.043,10.491c3.643,7.264,2.684,16.32-2.627,22.636c-2.893,3.441-6.866,4.997-10.606,7.022
		c-3,0-6,0-9,0c-6.768-2.478-12.436-6.201-15.094-13.332C800.754,560.384,799.87,559.04,800.939,557.268z"/>
	<path fill-rule="evenodd" clip-rule="evenodd" fill="#E8E9E8" d="M1.997,201.005l-0.498-0.01L1,201c0-37,0-74,0-111
		c0.726-0.05,1.279,0.236,1.662,0.854c1.199,2.329,0.943,4.861,0.945,7.336c0.025,31.579,0.032,63.157-0.015,94.735
		C3.588,195.685,4.166,198.639,1.997,201.005z"/>
	<path fill-rule="evenodd" clip-rule="evenodd" fill="#8B9798" d="M2.027,90.254C1.685,90.169,1.342,90.085,1,90
		c0-6.667,0-13.333,0-20c0.2-0.336,0.47-0.405,0.808-0.21c2.838,3.126,1.439,6.959,1.652,10.489c0.169,2.801,0.304,5.653-0.4,8.439
		C2.854,89.323,2.506,89.833,2.027,90.254z"/>
	<path fill-rule="evenodd" clip-rule="evenodd" fill="#DBDCDB" d="M529.029,389.012c2.363,2.226,5.186,4.002,6.808,6.954
		c-4.314,4.431-7.797,9.548-11.76,14.27c-3.479-2.022-5.596-0.489-7.072,2.714c-1.058,9.994-1.859,20.023-3.233,29.974
		c-2.05,14.838-4.493,29.621-6.801,44.422c-0.253,1.625-0.714,3.217-1.078,4.824c-4.634,2.283-9.726,1.938-14.632,2.302
		c-21.273,1.578-42.596,1.13-63.902,1.073c-19.35-0.052-38.561-1.854-57.631-5.121c-2.271-0.39-4.664-0.563-6.553-2.174
		c-2.879-24.756-5.22-49.566-7.038-74.589c-4.877,0.389-5.981,5.748-10.104,6.409c-1.564,0.503-2.675-0.422-3.401-1.48
		c-2.871-4.184-7.393-7.248-8.584-12.571c7.273-6.08,12.913-13.662,19.186-20.671c2.389-2.669-0.67-5.97,1.691-8.359
		c1.716-1.223,3.525-0.625,5.289-0.211c16.737,3.928,33.756,5.555,50.865,6.904c12.32,0.973,24.628,1.119,36.899,0.665
		c21.934-0.812,43.818-2.623,65.537-6.013c1.965-0.307,3.934-0.759,5.937-0.393c0.786,0.199,1.859,0.519,1.891,1.279
		c0.166,4.081,3.632,5.428,6.066,7.63C528.044,387.496,528.701,388.132,529.029,389.012z"/>
	<path fill-rule="evenodd" clip-rule="evenodd" fill="#523421" d="M335.842,244.036c-6.893-17.664-9.29-28.327-8.588-39.351
		c2.424,3.419,4.452,6.352,7.158,8.669c10.509,8.998,22.939,9.862,35.814,8.2c10.623-1.371,20.611-5.054,30.434-9.238
		c13.732-5.851,27.902-9.956,43.029-9.263c18.645,0.855,34.081,8.228,45.496,23.239c1.624,2.136,2.932,3.088,5.73,2.124
		c2.63-0.905,5.53-1.209,8.337-1.389c11.973-0.764,18.597,3.189,23.903,14.02c0.502,1.024,1.111,1.997,1.67,2.993
		c2.507,2.075,2.958,5.121,3.662,7.997c3.926,16.017,3.676,32.34,2.612,48.566c-1.5,22.901-5.656,45.457-10.773,67.824
		c-0.628,2.743-0.995,5.572-2.51,8.037c-2.566,2.14-4.371-0.042-6.085-1.316c-10.036-7.46-17.456-17.185-23.987-27.732
		c-10.921-17.639-18.672-36.708-25.85-56.059c-2.244-6.048-2.336-6.246-8.649-4.975c-11.281,2.273-22.735,3.381-34.146,3.706
		c-17.91,0.51-35.475-2.092-52.004-9.634c-1.67-0.762-3.353-1.528-4.133-3.386C353.444,269.021,343.035,258.044,335.842,244.036z"/>
	<path fill-rule="evenodd" clip-rule="evenodd" fill="#FCDCBC" d="M366.963,277.07c29.925,14.882,61.194,13.237,92.737,7.334
		c3.86-0.722,5.376-0.147,6.711,3.8c7.315,21.625,16.116,42.626,28.619,61.851c6.836,10.511,14.362,20.473,25.749,26.641
		c0.795,0.739,0.781,1.505,0.074,2.294c-8.926,0.574-17.71,2.327-26.585,3.353c-8.38,0.967-16.791,1.786-25.174,2.489
		c-16.57,1.391-33.257,1.98-49.852,1.008c-21.632-1.267-43.289-2.935-64.318-8.852c-1.795-11.577-1.234-23.256-0.52-34.817
		c0.51-8.248,0.21-16.552,1.531-24.783C358.161,303.529,358.61,289.235,366.963,277.07z"/>
	<path fill-rule="evenodd" clip-rule="evenodd" fill="#DBDCDB" d="M275.202,252.95c1.776,5.669,1.306,11.602,0.617,17.195
		c-1.267,10.289-0.415,20.533-0.755,30.786c-2.599,4.972-7.621,6.304-11.44,3.035c-1.16-2.026-3.135-2.35-5.166-2.364
		c-16.104-0.119-32.208-0.071-48.313-0.031c-0.665,0.002-1.324,0.083-1.979,0.199c-1.298,0.23-2.162,0.88-2.071,2.31
		c0.072,1.132,0.782,1.76,1.856,2.032c1.632,0.414,3.297,0.342,4.954,0.343c14.278,0.012,28.557-0.015,42.834,0.023
		c2.466,0.007,5.011-0.29,7.273,1.141c1.948,3.418,3.216,6.903,1.054,10.724c-2.227,1.494-4.776,1.195-7.24,1.202
		c-14.275,0.039-28.552-0.067-42.827,0.092c-2.698,0.03-7.413-1.442-7.508,2.28c-0.102,3.995,4.629,2.398,7.245,2.438
		c16.921,0.261,33.848-0.116,50.771,0.212c2.295,1.426,2.387,3.909,2.718,6.146c2.125,14.338,4.957,28.533,8.319,42.629
		c0.457,1.915,1.088,3.92-0.514,5.683c-0.184,6.473-1.65,7.982-7.958,7.984c-32.49,0.014-64.98,0.016-97.471-0.002
		c-6.459-0.003-8.573-1.979-8.574-8.164c-0.01-35.654,0.025-71.31,0.045-106.965c2.45-1.99,5.388-1.458,8.167-1.462
		c31.485-0.041,62.969-0.024,94.454-0.026c1.666,0,3.333-0.067,4.997-0.03c3.419,0.078,4.773-1.64,4.692-4.923
		c-0.057-2.329-0.07-4.667,0.055-6.995C273.544,256.473,273.383,254.384,275.202,252.95z"/>
	<path fill-rule="evenodd" clip-rule="evenodd" fill="#DBDCDB" d="M275.028,90.063c0.003,35.478,0.01,70.955,0.006,106.434
		c-0.001,6.701-1.769,8.47-8.612,8.474c-31.98,0.019-63.959,0.019-95.939,0c-6.383-0.004-9.419-2.55-9.421-8.303
		c-0.014-35.643,0.069-71.285,0.121-106.928c1.992-1.606,4.388-1.345,6.682-1.348c33.36-0.036,66.721-0.034,100.082-0.006
		C270.421,88.389,272.975,88.21,275.028,90.063z"/>
	<path fill-rule="evenodd" clip-rule="evenodd" fill="#DBDCDB" d="M1.997,201.005c0.01-36.917,0.021-73.834,0.03-110.751
		l-0.028-0.438c1.986-1.598,4.37-1.429,6.682-1.431c33.084-0.03,66.169-0.029,99.254-0.001c2.479,0.002,5.038-0.177,7.094,1.679
		c0.003,35.478,0.01,70.956,0.006,106.434c0,6.702-1.766,8.47-8.61,8.474c-31.98,0.019-63.96-0.011-95.94,0.035
		C6.939,205.01,3.856,204.399,1.997,201.005z"/>
	<path fill-rule="evenodd" clip-rule="evenodd" fill="#DBDCDB" d="M502.876,535.829c-0.271,4.019,0.962,6.486,5.283,8.041
		c3.84,1.383,8.745,3.569,8.623,8.59c-0.124,5.049-4.769,7.294-8.923,9.01c-14.079,5.813-28.966,7.963-43.997,9.591
		c-16.38,1.774-32.798,2.416-49.229,1.854c-21.032-0.722-42.02-2.284-62.394-8.104c-5.069-1.448-10.281-2.95-14.419-6.523
		c-5.28-4.561-5.209-7.164,0.083-11.613c0.757-0.637,1.518-1.269,2.275-1.902c9.749,5.995,20.201,3.677,30.543,2.564
		c2.903-0.313,3.706-2.287,3.854-4.917c0.153-2.74-0.667-5.735,1.703-8.03c5.185-2.186,10.779-2.194,16.196-2.583
		c18.413-1.324,36.838-2.189,55.319-0.617c9.108,0.775,18.271,0.864,27.228,2.92c0.985,0.563,1.535,1.251,0.555,2.301
		c-0.805,0.862-1.926,1.302-2.802,2.06c-2.915,2.522-5.094,5.565-3.923,9.555c1.211,4.126,5.01,4.344,8.551,4.585
		c6.231,0.425,12.187-0.923,18.15-2.585c3.661-1.021,5.1-3.003,5.175-6.748C500.779,540.727,499.397,537.488,502.876,535.829z"/>
	<path fill-rule="evenodd" clip-rule="evenodd" fill="#FCDCBC" d="M264.979,305.01c3.789-0.302,7.027-1.965,10.084-4.078
		c1.842,0.512,3.155,0.591,2.992-2.097c-0.211-3.483-0.064-6.989-0.033-10.485c0.015-1.654-0.167-3.761,1.943-4.058
		c2.729-0.384,2.601,2.386,2.793,3.849c0.925,7.054,1.708,14.14,2.171,21.238c1.404,21.479,2.378,43.01,7.122,64.097
		c2.452,10.897,6.401,21.351,12.259,30.877c6.344,10.318,16.34,11.522,26.978,3.78c0.937-0.682,1.839-1.409,2.758-2.115
		c4.212,4.5,7,10.212,11.986,14.051c-7.708,8.646-16.648,14.599-28.906,14.04c-6.3-0.287-11.508-2.674-16.23-6.653
		c-12.564-10.589-17.814-25.305-22.866-40.154c-0.945-2.777-1.996-5.519-2.998-8.276c-1.549-7.436-3.042-14.885-4.66-22.306
		c-2.289-10.498-3.844-21.117-5.421-31.734c-1.985-2.103-2.676-4.384-0.974-6.999c-0.335-3.322-0.67-6.645-1.005-9.967
		C262.059,305.96,262.731,304.959,264.979,305.01z"/>
	<path fill-rule="evenodd" clip-rule="evenodd" fill="#526568" d="M502.876,535.829c-1.424,3.342-0.704,6.887-0.876,10.332
		c-0.118,2.371-1.064,3.615-3.257,4.316c-6.989,2.235-14.058,4.061-21.466,3.46c-4.241-0.344-9.046-0.32-10.4-5.729
		c-1.048-4.188,2.889-10.301,7.466-12.305c0.603-0.264,1.2-0.539,1.801-0.81c3.94-2.551,7.393-0.159,10.761,1.322
		c3.089,1.358,4.836,1.32,4.562-2.601c-0.697-9.959-1.332-19.923-2.098-29.878c-0.251-3.25-2.469-2.936-4.729-2.698
		c-21.398,2.247-42.866,2.611-64.354,2.245c-12.329-0.21-24.582-1.456-36.8-3.079c-5.588-0.742-5.916-0.448-5.966,5.341
		c-0.067,7.83,0.014,15.661-0.037,23.491c-0.014,1.99,0.086,4.031-1.311,5.715c-0.036,2.655-0.345,5.342-0.045,7.958
		c0.449,3.917-0.891,5.685-4.94,6.009c-6.785,0.543-13.546,1.44-20.369,1.009c-4.217-0.267-8.302-0.946-10.639-5.156
		c1.63-11.938,8.865-14.35,25.618-8.419c-0.877-16.081-1.75-32.092-2.623-48.104c7.671-0.075,15.072,2.02,22.62,2.946
		c22.863,2.806,45.788,2.971,68.756,2.938c16.324-0.024,32.583-1.129,48.855-2.132c0.822-0.05,1.657,0.107,2.486,0.168
		C504.887,506.723,503.881,521.276,502.876,535.829z"/>
	<path fill-rule="evenodd" clip-rule="evenodd" fill="#526568" d="M275.028,90.063c-35.79-0.021-71.581-0.036-107.371-0.072
		c-2.159-0.003-4.317-0.164-6.475-0.251c-0.004-5.32-0.058-10.643,0.002-15.963c0.072-6.341,2.216-8.397,8.97-8.405
		c29.265-0.035,58.531-0.016,87.796-0.016c3.326,0,6.656-0.103,9.976,0.03c5.284,0.212,7.386,2.131,7.428,7.273
		C275.401,78.457,275.872,84.277,275.028,90.063z"/>
	<path fill-rule="evenodd" clip-rule="evenodd" fill="#526568" d="M115.028,90.063C79.34,90.042,43.651,90.024,7.962,89.993
		c-1.988-0.002-3.976-0.116-5.963-0.178c-0.063-6.675-0.126-13.351-0.19-20.025c0.977-3.582,3.819-4.395,6.953-4.398
		c33.07-0.042,66.14-0.068,99.209,0.012c5.272,0.013,7.369,2.131,7.391,7.267C115.385,78.465,115.876,84.28,115.028,90.063z"/>
	<path fill-rule="evenodd" clip-rule="evenodd" fill="#526568" d="M275.202,252.95c-0.052,4.813-0.372,9.645-0.072,14.437
		c0.246,3.933-1.025,5.013-4.964,4.995c-33.388-0.153-66.777-0.077-100.166-0.105c-2.975-0.003-5.95-0.259-8.925-0.397
		c0.004-5.324-0.038-10.65,0.023-15.975c0.067-5.792,2.094-7.924,7.722-7.93c32.949-0.031,65.898,0.012,98.848-0.052
		C271.466,247.916,274.125,249.122,275.202,252.95z"/>
	<path fill-rule="evenodd" clip-rule="evenodd" fill="#526568" d="M800.939,557.268c0.322,1.467,0.645,2.934,0.967,4.4
		c-20.744,3.959-40.303-0.528-59.499-8.121c-12.228-4.837-24.659-9.047-37.846-10.581c-21.679-2.522-42.397,1.907-62.818,8.503
		c-12.199,3.939-23.989,8.924-35.664,14.206c-8.124,3.676-16.427,3.952-24.683,0.325c-13.449-5.906-18.578-20.176-11.952-33.293
		c4.365-8.641,11.54-14.556,19.585-19.48c16.112-9.866,33.973-15.083,52.215-19.154c9.109-2.032,18.101-4.368,26.675-8.124
		c26.301-11.522,39.796-31.724,40.881-60.326c0.082-2.163,0.028-4.331,0.037-6.497c0.88-2.351-1.535-6.881,4.049-6.123
		c0.676,12.875,0.355,25.631-4.353,37.893c-8.845,23.041-26.779,35.718-49.281,43.087c-12.487,4.089-25.605,5.794-38.103,9.916
		c-13.815,4.559-27.23,9.884-38.483,19.433c-5.816,4.936-10.7,10.701-11.602,18.623c-1.617,14.229,12.984,25.321,28.037,21.452
		c5.996-1.541,11.361-4.668,17.037-7.015c19.412-8.027,39.166-14.758,60.139-17.502c20.803-2.722,40.733,0.439,60.245,7.691
		c13.378,4.973,26.592,10.511,41.064,11.868C785.473,559.188,793.198,558.511,800.939,557.268z"/>
	<path fill-rule="evenodd" clip-rule="evenodd" fill="#FCDCBC" d="M523.941,410.008c2.947-5.545,5.953-11.039,11.897-14.041
		c4.575,5.003,7.31,11.106,10.208,17.111c6.747,19.288,7.953,39.076,6.223,59.328c-1.265,14.802-4.295,29.119-8.589,43.27
		c-1.16,3.826-3.014,5.274-6.884,3.788c-3.309-1.27-8.492,0.205-9.813-3.067c-1.036-2.567,1.382-6.565,2.357-9.9
		c5.292-18.095,8.328-36.546,7.544-55.409c-0.563-13.516-2.919-26.729-10.948-38.206
		C524.951,412.146,523.328,411.854,523.941,410.008z"/>
	<path fill-rule="evenodd" clip-rule="evenodd" fill="#ACABAB" d="M523.941,410.008c0.666,0.958,1.332,1.916,1.996,2.874
		c-2.978,0.022-5.955,0.045-8.933,0.068c0.025-0.165,0.037-0.333,0.079-0.493C518.837,405.856,518.837,405.856,523.941,410.008z"/>
	<path fill-rule="evenodd" clip-rule="evenodd" fill="#526568" d="M570.275,336.71c-0.107-1.487-0.307-2.975-0.309-4.462
		c-0.049-31.59-0.086-63.179-0.102-94.769c-0.004-8.355,3.079-11.455,11.386-11.475c27.597-0.063,55.193-0.105,82.79-0.156
		c26.292,0.05,52.584,0.103,78.876,0.15c9.628,0.018,12.411,2.795,12.414,12.5c0.011,30.954,0.012,61.909-0.015,92.864
		c-0.002,1.813-0.277,3.628-0.426,5.441c-1.802,1.936-4.207,1.804-6.519,1.805c-57.225,0.038-114.45,0.046-171.676-0.015
		C574.428,338.593,571.955,338.896,570.275,336.71z"/>
	<path fill-rule="evenodd" clip-rule="evenodd" fill="#DBDCDB" d="M570.275,336.71c61.538,0.031,123.077,0.063,184.615,0.095
		c0.047,5.644,0.125,11.287,0.135,16.931c0.018,8.94-3.203,12.167-12.334,12.214c-13.947,0.071-27.895,0.059-41.841,0.082
		c-1.254,1.297-2.903,1.31-4.529,1.401c-22.7,0.303-45.399,0.249-68.1,0.046c-15.134,0.199-30.27,0.226-45.401,0.015
		c-10.501-0.146-14.504-4.275-14.314-14.733c0.096-5.217-1.391-10.638,1.332-15.65C569.99,336.983,570.136,336.851,570.275,336.71z"
		/>
	<path fill-rule="evenodd" clip-rule="evenodd" fill="#DBDCDB" d="M707.924,388.029c-1.285-0.001-2.57-0.002-3.855-0.003
		c-1.4,0.794-2.932,0.441-4.401,0.442c-29.602,0.012-59.202,0.036-88.8,0.001c-3.153-1.978-1.445-4.22-0.105-6.133
		c2.187-3.12,5.584-3.766,9.156-3.768c2.456-0.001,4.916-0.104,7.36,0.247c0.609,0.081,1.206,0.226,1.792,0.401
		c7.1,0.831,14.225,0.296,21.334,0.351c12.754,0.1,25.509,0.045,38.263,0.011c1.951-0.006,4.003,0.425,5.749-0.879
		c2.239-2.134,0.204-5.788,2.752-7.801c1.781-0.224,1.873,1.215,2.297,2.324c0.348,1.918-1.326,4.239,1.149,5.734
		c0.383,0.165,0.759,0.339,1.145,0.489c1.44,0.509,2.94,0.238,4.407,0.358c5.192,0.286,8.489,2.653,8.939,8.145
		C712.722,388.837,710.326,388.694,707.924,388.029z"/>
	<path fill-rule="evenodd" clip-rule="evenodd" fill="#DBDCDB" d="M707.924,388.029c2.394-0.026,4.787-0.052,7.181-0.079
		c56.567,0.002,113.134-0.005,169.701,0.041c2.08,0.002,4.351-0.748,6.226,0.896c-59.628,0.028-119.256,0.059-178.884,0.071
		C710.692,388.959,709.109,389.342,707.924,388.029z"/>
	<path fill-rule="evenodd" clip-rule="evenodd" fill="#56686B" d="M698.906,374.04c-0.323-0.992-0.646-1.984-0.97-2.976
		c-1.646-1.438-2.378-3.04-0.903-5.037c1.272,0.001,2.545,0.003,3.817,0.004c1.437,3.983,2.873,7.967,4.31,11.951
		c0.109,3.86-2.2,2.488-4.141,1.914l0.013,0.091C699.057,378.458,698.771,376.324,698.906,374.04z"/>
	<path fill-rule="evenodd" clip-rule="evenodd" fill="#DBDCDB" d="M701.02,379.896c1.692,0.037,3.979,1.361,4.141-1.914
		c0.334,0.608,0.668,1.218,1.004,1.825C704.479,381.481,702.765,381.568,701.02,379.896z"/>
	<path fill-rule="evenodd" clip-rule="evenodd" fill="#536669" d="M492.314,62.065c27.154,0,54.31,0.08,81.463-0.089
		c3.995-0.024,5.143,1.155,5.05,5.083c-0.985,41.63-0.512,83.269-0.511,124.904c0,3.62-1.26,4.402-4.613,4.397
		c-54.477-0.088-108.952-0.095-163.428,0.013c-3.581,0.007-4.42-1.136-4.413-4.548c0.084-41.813,0.068-83.629-0.074-125.442
		c-0.013-3.61,1.169-4.404,4.563-4.389C437.672,62.121,464.993,62.065,492.314,62.065z"/>
	<path fill-rule="evenodd" clip-rule="evenodd" fill="#526568" d="M406.393,53.199c0-7.071,0-13.466,0-19.857
		c1.547-0.087,1.573,0.814,1.64,1.617c0.574,6.898,0.569,6.899,7.412,6.899c51.271,0,102.543-0.076,153.814,0.117
		c5.152,0.02,7.989-0.767,6.872-6.57c-0.088-0.455,0.066-0.992,0.231-1.446c0.088-0.244,0.438-0.394,1.279-1.091
		c0,6.856,0,13.221,0,19.68c-2.396-0.474-1.635-2.415-1.469-3.575c0.628-4.406-1.392-5.116-5.336-5.063
		c-15.978,0.218-31.96,0.091-47.941,0.091c-36.123,0-72.246,0.098-108.368-0.113c-5.005-0.029-7.489,0.978-6.497,6.379
		C408.173,51.047,408.102,51.938,406.393,53.199z"/>
	<path fill-rule="evenodd" clip-rule="evenodd" fill="#55676A" d="M610.07,195.884c-7.157,0-13.465,0-19.831,0
		c0.171-2.463,1.968-1.906,2.998-1.732c5.023,0.853,5.561-1.761,5.535-5.938c-0.155-25.148-0.077-50.299-0.077-75.449
		c0-14.323-0.119-28.648,0.079-42.97c0.054-3.809-0.839-5.606-4.944-5.086c-1.235,0.156-3.66,0.857-3.562-1.297
		c0.089-1.952,2.419-1.121,3.769-1.155c4.161-0.106,8.327-0.055,12.491-0.026c1.114,0.008,2.408-0.238,2.839,1.307
		c-0.389,1.249-1.459,1.391-2.428,1.209c-5.302-0.999-6.156,1.499-6.133,6.302c0.193,38.806,0.185,77.613,0.012,116.42
		c-0.021,4.783,0.563,7.756,6.232,6.646c0.466-0.092,1.008,0.026,1.473,0.177C608.79,194.378,608.972,194.728,610.07,195.884z"/>
	<path fill-rule="evenodd" clip-rule="evenodd" fill="#546669" d="M650.016,20.203c-0.382,3.236-2.442,5.507-6.324,5.734
		c-3.638,0.213-6.703-2.949-6.63-6.58c0.074-3.646,3.221-6.541,6.884-6.333C647.455,13.224,650.092,16.079,650.016,20.203z"/>
	<path fill-rule="evenodd" clip-rule="evenodd" fill="#536669" d="M337.183,28.018c-3.087-0.411-5.298-2.42-5.373-6.376
		c-0.07-3.737,2.963-6.839,6.549-6.495c3.792,0.364,6.032,2.684,6.297,6.452C344.899,25.057,341.477,28.136,337.183,28.018z"/>
	<path fill-rule="evenodd" clip-rule="evenodd" fill="#DBDCDB" d="M826.975,504.064c-0.001-5.666-0.048-11.332,0.013-16.996
		c0.054-5.044,1.938-7.021,6.868-7.052c10.498-0.064,20.996-0.077,31.493,0.003c5.785,0.044,7.645,2.047,7.655,7.912
		c0.02,10.831,0.026,21.662-0.004,32.493c-0.015,5.407-2.019,7.503-7.516,7.548c-10.664,0.088-21.329,0.037-31.993,0.02
		c-4.252-0.007-6.484-2.151-6.507-6.432C826.953,515.729,826.977,509.896,826.975,504.064z"/>
	<path fill-rule="evenodd" clip-rule="evenodd" fill="#DBDCDB" d="M527.003,387.995c27.635-0.013,55.269-0.025,82.902-0.039
		c31.387,0.023,62.774,0.047,94.162,0.07c-2.042,1.738-4.475,0.886-6.718,0.889c-56.106,0.065-112.214,0.076-168.32,0.097
		C528.199,388.98,527.438,388.814,527.003,387.995z"/>
	<path fill-rule="evenodd" clip-rule="evenodd" fill="#D73255" d="M58.491,371.768c-13.991,0-27.984-0.107-41.974,0.076
		c-3.495,0.045-4.502-0.979-4.504-4.483c-0.007-13.263-0.132-13.263,13.113-13.263c24.985,0,49.97,0.088,74.954-0.091
		c3.934-0.028,5.046,1.014,4.992,4.972c-0.174,12.787-0.008,12.789-12.601,12.789C81.144,371.768,69.817,371.768,58.491,371.768z"/>
	<path fill-rule="evenodd" clip-rule="evenodd" fill="#57696C" d="M57.946,344.685c-13.989,0-27.978-0.046-41.966,0.039
		c-2.735,0.017-4.247-0.364-4.3-3.726c-0.055-3.52,1.397-4.061,4.43-4.051c28.144,0.086,56.288,0.07,84.431,0.018
		c2.632-0.005,4.372,0.123,4.362,3.608c-0.01,3.451-1.411,4.183-4.492,4.159C86.256,344.623,72.101,344.685,57.946,344.685z"/>
	<path fill-rule="evenodd" clip-rule="evenodd" fill="#A9A9AA" d="M59.014,282.979c13.657,0,27.313-0.003,40.97,0.002
		c2.451,0.001,5.065-0.621,5.025,3.481c-0.035,3.568-1.467,4.554-4.815,4.544c-27.979-0.084-55.959-0.089-83.939,0.008
		c-3.172,0.011-4.355-0.833-4.399-4.193c-0.048-3.745,1.876-3.891,4.688-3.876C30.701,283.019,44.858,282.979,59.014,282.979z"/>
	<path fill-rule="evenodd" clip-rule="evenodd" fill="#526568" d="M79.232,311.73c0.486-3.637-1.961-9.336,1.027-12.179
		c2.711-2.579,8.281-0.728,12.586-0.76c11.87-0.089,11.871-0.03,11.871,11.978c0,4.165-0.138,8.336,0.046,12.493
		c0.13,2.951-0.764,4.198-3.922,4.091c-5.99-0.203-11.996-0.18-17.989-0.008c-2.929,0.084-3.78-1.1-3.659-3.833
		C79.354,319.854,79.232,316.185,79.232,311.73z"/>
	<path fill-rule="evenodd" clip-rule="evenodd" fill="#526568" d="M36.967,314.014c-0.327,3.623,1.896,9.388-0.787,12.221
		c-2.938,3.103-8.824,0.925-13.409,1.001c-10.91,0.183-10.912,0.059-10.912-10.871c0-4.666,0.081-9.335-0.03-13.998
		c-0.057-2.385,0.441-3.715,3.257-3.646c6.329,0.155,12.666,0.098,18.998,0.023c2.137-0.025,2.97,0.791,2.913,2.934
		C36.893,305.509,36.967,309.344,36.967,314.014z"/>
	<path fill-rule="evenodd" clip-rule="evenodd" fill="#526568" d="M70.86,314.033c-0.383,3.657,1.922,9.415-0.859,12.23
		c-3.003,3.04-8.846,0.902-13.436,0.976c-10.858,0.173-10.86,0.056-10.86-10.951c0-4.494,0.134-8.994-0.046-13.481
		c-0.117-2.912,0.683-4.219,3.873-4.103c5.818,0.213,11.655,0.208,17.474,0c3.139-0.111,4.08,1.077,3.903,4.058
		C70.701,306.245,70.86,309.75,70.86,314.033z"/>
	<path fill-rule="evenodd" clip-rule="evenodd" fill="#DADBDA" d="M13.494,266.232c-3.13-0.287-5.436-2.188-5.583-6.166
		c-0.135-3.619,2.99-6.895,6.479-6.605c3.769,0.311,6.084,2.508,6.388,6.324C21.064,263.391,17.962,266.288,13.494,266.232z"/>
	<path fill-rule="evenodd" clip-rule="evenodd" fill="#DADBDA" d="M33.989,253.418c3.32,0.545,5.871,2.245,6.096,6.24
		c0.214,3.806-2.521,6.601-6.376,6.581c-4.003-0.021-6.087-2.32-6.49-6.053C26.845,256.722,30.124,253.472,33.989,253.418z"/>
	<path fill-rule="evenodd" clip-rule="evenodd" fill="#DADBDA" d="M108.557,260.204c-0.291,3.874-3.483,6.482-7.327,5.976
		c-4.036-0.533-5.787-3.104-5.421-6.983c0.378-4.015,3.006-5.941,6.835-5.632C106.561,253.88,108.372,256.532,108.557,260.204z"/>
	<path fill-rule="evenodd" clip-rule="evenodd" fill="#A6A7A8" d="M814.946,544.897c6.193-2.894,8.3-2.06,9.014,3.505
		c0.615,4.795-3.467,4.299-6.075,5.474C815.409,551.373,814.648,548.309,814.946,544.897z"/>
	<path fill-rule="evenodd" clip-rule="evenodd" fill="#A7A8A9" d="M821.001,558.972c3.341-2.607,5.806-2.161,7.454,1.958
		c1.874,4.68-0.756,6.179-4.641,6.908C820.318,565.694,819.02,562.854,821.001,558.972z"/>
	<path fill-rule="evenodd" clip-rule="evenodd" fill="#57696C" d="M821.001,558.972c-0.283,3.343,1.118,6.151,2.813,8.866
		c-3.602,1.674-6.223,1.514-7.49-3.074C815.084,560.279,817.979,559.71,821.001,558.972z"/>
	<path fill-rule="evenodd" clip-rule="evenodd" fill="#57696C" d="M814.946,544.897c0.979,2.993,1.959,5.985,2.938,8.979
		c-3.252,1.48-5.228,0.585-6.464-2.896C810.109,547.292,811.592,545.661,814.946,544.897z"/>
	<path fill-rule="evenodd" clip-rule="evenodd" fill="#A7A8A9" d="M829.885,549.706c0.409-0.266,0.786-0.616,1.231-0.783
		c2.563-0.961,5.902-2.98,7.297,0.585c1.586,4.053-2.901,3.741-5.118,4.921c-0.427,0.228-0.93,0.313-1.396,0.464
		C830.283,553.53,829.694,551.77,829.885,549.706z"/>
	<path fill-rule="evenodd" clip-rule="evenodd" fill="#5D6E71" d="M829.885,549.706c1.216,1.518,1.553,3.377,2.014,5.188
		c-0.162,0.035-0.323,0.076-0.486,0.106c-2.386,0.448-5.641,3.023-6.753-0.774C823.615,550.661,827.561,550.617,829.885,549.706z"/>
	<path fill-rule="evenodd" clip-rule="evenodd" fill="#523421" d="M409.921,340.114c8.589-0.059,14.871,0.477,21.031,2.11
		c2.528,0.67,3.459,1.771,2.39,4.639c-2.853,7.65-7.798,13.021-16.037,13.919c-8.856,0.966-17.347-0.397-23.524-7.907
		c-1.505-1.829-2.224-4.066-2.691-6.375c-0.685-3.376,0.186-5.307,4.125-5.42C400.865,340.918,406.505,340.353,409.921,340.114z"/>
	<path fill-rule="evenodd" clip-rule="evenodd" fill="#543623" d="M436.937,319.269c-0.041-5.306,2.536-9.374,5.498-8.878
		c4.294,0.719,5.147,4.311,5.352,7.904c0.252,4.439-2.548,8.495-5.573,8.062C437.802,325.725,437.227,322.138,436.937,319.269z"/>
	<path fill-rule="evenodd" clip-rule="evenodd" fill="#543623" d="M391.063,315.854c0.02,5.189-2.625,9.269-5.575,8.746
		c-4.285-0.759-5.11-4.36-5.302-7.946c-0.236-4.448,2.598-8.476,5.627-8.007C390.204,309.325,390.755,312.923,391.063,315.854z"/>
	<path fill-rule="evenodd" clip-rule="evenodd" fill="#A8A8A9" d="M218.195,354.055c-13.824,0-27.649-0.122-41.47,0.081
		c-3.727,0.055-4.829-1.032-4.815-4.781c0.046-12.387-0.103-12.387,12.109-12.387c25.315,0,50.632,0.078,75.946-0.082
		c3.907-0.025,5.134,1.021,5.088,5.024c-0.138,12.143,0.034,12.145-11.883,12.145C241.513,354.055,229.854,354.055,218.195,354.055z
		"/>
	<path fill-rule="evenodd" clip-rule="evenodd" fill="#546669" d="M218.507,370.777c-13.966,0-27.933-0.019-41.899,0.018
		c-2.603,0.007-4.82,0.319-4.743-3.675c0.071-3.66,2.025-3.44,4.473-3.438c28.099,0.026,56.198,0.037,84.296-0.017
		c2.654-0.005,4.366,0.198,4.33,3.646c-0.037,3.596-2.089,3.485-4.559,3.479C246.44,370.762,232.474,370.777,218.507,370.777z"/>
	<path fill-rule="evenodd" clip-rule="evenodd" fill="#A9A9AA" d="M234.165,291.01c-8.65,0-17.303-0.121-25.949,0.063
		c-3.239,0.068-4.347-0.932-4.326-4.235c0.021-3.206,1.306-3.879,4.185-3.863c17.632,0.093,35.265,0.103,52.897-0.007
		c3.011-0.019,4.106,0.9,4.067,3.979c-0.038,2.895-0.74,4.186-3.927,4.124C252.132,290.896,243.147,291.009,234.165,291.01z"/>
	<path fill-rule="evenodd" clip-rule="evenodd" fill="#A9A9AA" d="M263.977,317.985c0.325,2.333,0.65,4.666,0.975,6.999
		c-1.479,0.945-3.129,0.964-4.811,0.962c-17.134-0.016-34.268-0.059-51.401,0.036c-3.097,0.017-4.921-0.317-4.874-4.213
		c0.046-3.749,1.933-3.856,4.717-3.847C227.047,317.994,245.512,317.975,263.977,317.985z"/>
	<path fill-rule="evenodd" clip-rule="evenodd" fill="#A9A9AA" d="M264.979,305.01c-1.2,0.648-1.928,1.612-2.007,3.008
		c-18.138,0.014-36.276-0.006-54.414,0.073c-2.817,0.012-4.644-0.162-4.693-3.879c-0.053-3.938,1.852-4.195,4.91-4.18
		c16.973,0.089,33.947,0.123,50.918-0.021C263.424,299.98,265.513,300.906,264.979,305.01z"/>
	<path fill-rule="evenodd" clip-rule="evenodd" fill="#D73557" d="M183.533,317.85c2.316,0,4.64,0.12,6.946-0.03
		c3-0.195,4.855,0.099,4.861,4.061c0.006,4.177-2.239,3.97-5.047,3.921c-4.795-0.083-9.601-0.178-14.389,0.033
		c-2.994,0.132-3.987-0.801-4.02-3.886c-0.034-3.256,0.954-4.46,4.209-4.146C178.552,318.04,181.052,317.85,183.533,317.85z"/>
	<path fill-rule="evenodd" clip-rule="evenodd" fill="#D73355" d="M183.421,291.029c-2.16,0.003-4.376-0.313-6.468,0.065
		c-5.227,0.945-5.177-2.188-4.977-5.803c0.099-1.785,0.929-2.245,2.509-2.236c5.98,0.033,11.963,0.098,17.941-0.022
		c3.242-0.065,2.738,2.111,2.753,4.047c0.015,1.961,0.438,4.142-2.79,3.978C189.408,290.906,186.411,291.025,183.421,291.029z"/>
	<path fill-rule="evenodd" clip-rule="evenodd" fill="#D73557" d="M183.631,300.275c2.314-0.002,4.641,0.15,6.94-0.039
		c3.183-0.261,4.761,0.439,4.759,4.219c-0.001,3.804-1.943,3.819-4.654,3.77c-5.123-0.095-10.256-0.201-15.37,0.033
		c-3.208,0.146-3.402-1.506-3.36-3.951c0.041-2.324-0.053-4.319,3.257-4.073C177.999,300.441,180.821,300.276,183.631,300.275z"/>
	<path fill-rule="evenodd" clip-rule="evenodd" fill="#A8A8A9" d="M217.995,135.032c-13.829,0-27.659-0.097-41.485,0.068
		c-3.444,0.041-4.658-0.94-4.573-4.494c0.219-9.159,0.193-18.328,0.01-27.488c-0.065-3.303,1.066-4.267,4.308-4.255
		c28.157,0.103,56.314,0.103,84.472,0c3.234-0.012,4.382,0.941,4.316,4.251c-0.183,9.16-0.208,18.329,0.01,27.488
		c0.085,3.551-1.126,4.537-4.572,4.497C246.32,134.938,232.157,135.032,217.995,135.032z"/>
	<path fill-rule="evenodd" clip-rule="evenodd" fill="#526568" d="M239.285,157.211c0.532-3.786-2.087-9.886,1.075-12.534
		c2.686-2.248,8.556-0.782,13.017-0.803c11.394-0.053,11.395-0.018,11.394,11.339c0,4.479-0.129,8.965,0.044,13.438
		c0.114,2.939-0.802,4.211-3.93,4.116c-5.968-0.18-11.947-0.149-17.917-0.01c-2.841,0.066-3.835-1.056-3.72-3.813
		C239.398,165.3,239.285,161.645,239.285,157.211z"/>
	<path fill-rule="evenodd" clip-rule="evenodd" fill="#526568" d="M172.279,157.958c0-4.46-1.735-10.338,0.45-13.011
		c2.596-3.175,8.713-0.954,13.287-1.03c10.982-0.183,10.985-0.059,10.984,11.158c0,4.821-0.093,9.645,0.037,14.462
		c0.063,2.362-0.756,3.251-3.147,3.21c-6.315-0.108-12.635-0.112-18.951,0c-2.489,0.044-3.131-1.072-3.068-3.317
		c0.108-3.82,0.03-7.646,0.03-11.47C172.027,157.959,172.153,157.959,172.279,157.958z"/>
	<path fill-rule="evenodd" clip-rule="evenodd" fill="#526568" d="M230.904,158.345c0,3.484-0.17,6.979,0.05,10.45
		c0.198,3.125-1.094,4.044-4.047,3.964c-5.803-0.155-11.616-0.15-17.419,0c-2.758,0.071-3.839-0.8-3.776-3.68
		c0.158-7.297,0.146-14.602,0.007-21.899c-0.051-2.691,1.025-3.411,3.525-3.358c5.97,0.123,11.952,0.211,17.916-0.031
		c3.268-0.133,3.951,1.231,3.791,4.104C230.756,151.367,230.904,154.86,230.904,158.345z"/>
	<path fill-rule="evenodd" clip-rule="evenodd" fill="#D73356" d="M218.26,187.296c-9.989,0-19.979-0.032-29.968,0.023
		c-2.396,0.014-4.173-0.092-4.132-3.342c0.039-3.12,1.867-2.932,3.952-2.93c19.979,0.017,39.957,0.028,59.936-0.015
		c2.365-0.005,4.125-0.043,4.073,3.282c-0.056,3.584-2.316,2.968-4.393,2.972C237.905,187.308,228.083,187.296,218.26,187.296z"/>
	<path fill-rule="evenodd" clip-rule="evenodd" fill="#A8A8A9" d="M39.136,147.044c-7.498,0-14.998-0.128-22.49,0.059
		c-3.302,0.083-4.745-0.698-4.69-4.383c0.196-13.159,0.155-26.323,0.02-39.484c-0.032-3.159,0.811-4.411,4.192-4.378
		c15.16,0.149,30.322,0.136,45.482,0.007c3.132-0.026,4.457,0.725,4.415,4.145c-0.161,13.326-0.166,26.657,0.002,39.983
		c0.044,3.465-1.349,4.178-4.441,4.106C54.133,146.928,46.633,147.043,39.136,147.044z"/>
	<path fill-rule="evenodd" clip-rule="evenodd" fill="#526568" d="M73.9,122.986c0-6.658,0.12-13.32-0.054-19.974
		c-0.081-3.062,0.589-4.491,4.071-4.381c7.649,0.242,15.313,0.164,22.968,0.028c2.807-0.05,4.196,0.47,4.155,3.771
		c-0.167,13.647-0.125,27.299-0.022,40.947c0.02,2.668-0.561,3.888-3.553,3.821c-7.986-0.177-15.98-0.167-23.967-0.004
		c-2.881,0.06-3.715-0.96-3.65-3.736C74.007,136.638,73.9,129.811,73.9,122.986z"/>
	<path fill-rule="evenodd" clip-rule="evenodd" fill="#526568" d="M76,188.101c-7.996,0-15.996-0.156-23.984,0.074
		c-3.358,0.097-4.138-1.073-4.153-4.257c-0.057-12.02-0.168-12.02,11.807-12.02c13.659,0.001,27.319,0.123,40.975-0.082
		c3.582-0.054,4.428,1.084,4.41,4.517c-0.06,11.768,0.073,11.769-11.565,11.769C87.659,188.102,81.829,188.102,76,188.101z"/>
	<path fill-rule="evenodd" clip-rule="evenodd" fill="#D73356" d="M58.503,162.24c-13.998,0-27.995,0.017-41.993-0.019
		c-2.02-0.005-4.379,0.736-4.493-2.892c-0.122-3.874,2.306-3.271,4.59-3.271c27.995-0.002,55.99-0.011,83.985,0.018
		c1.99,0.002,4.37-0.827,4.466,2.851c0.101,3.831-2.248,3.314-4.563,3.313C86.499,162.238,72.501,162.24,58.503,162.24z"/>
	<path fill-rule="evenodd" clip-rule="evenodd" fill="#526568" d="M25.501,188.102c-0.5,0-1,0-1.5,0
		c-13.207,0-13.148,0.005-11.994-13.344c0.186-2.147,0.868-2.902,2.972-2.881c6.998,0.072,13.999,0.088,20.996-0.009
		c2.306-0.032,3.482,0.693,3.207,3.121c-0.019,0.164-0.006,0.333,0.002,0.5C39.77,188.101,39.77,188.101,25.501,188.102z"/>
	<path fill-rule="evenodd" clip-rule="evenodd" fill="#D9DAD9" d="M174.823,84.147c-3.787,0.111-6.907-2.711-6.703-6.354
		c0.215-3.838,2.523-6.087,6.254-6.492c3.435-0.374,6.655,2.979,6.658,6.533C181.036,81.402,178.441,84.04,174.823,84.147z"/>
	<path fill-rule="evenodd" clip-rule="evenodd" fill="#D9DAD9" d="M255.943,78.194c0.142-4.126,3.511-7.373,6.911-6.871
		c3.708,0.548,5.964,2.834,6.022,6.697c0.056,3.692-3.093,6.396-6.924,6.104C257.979,83.82,256.169,81.426,255.943,78.194z"/>
	<path fill-rule="evenodd" clip-rule="evenodd" fill="#DADBDA" d="M200.618,78.019c-0.581,3.48-2.313,5.98-6.339,6.121
		c-3.813,0.133-6.552-2.604-6.517-6.444c0.035-3.729,3.037-6.779,6.661-6.396C198.206,71.7,200.24,74.064,200.618,78.019z"/>
	<path fill-rule="evenodd" clip-rule="evenodd" fill="#D9DAD9" d="M21.051,78.491c-0.302,3.134-2.202,5.447-6.179,5.642
		c-3.795,0.185-6.929-2.669-6.734-6.316c0.206-3.839,2.507-6.1,6.243-6.514C17.873,70.915,21.037,74.185,21.051,78.491z"/>
	<path fill-rule="evenodd" clip-rule="evenodd" fill="#D9DAD9" d="M101.75,84.155c-3.182-0.233-5.5-2.163-5.739-6.107
		c-0.214-3.527,3-7.033,6.434-6.753c3.694,0.301,6.176,2.381,6.468,6.272C109.188,81.24,106.183,84.163,101.75,84.155z"/>
	<path fill-rule="evenodd" clip-rule="evenodd" fill="#D9DADA" d="M34.061,84.189c-3.625-0.221-5.981-2.062-6.245-6.025
		c-0.253-3.805,2.48-6.775,6.189-6.895c3.479-0.112,6.862,3.093,6.578,6.619C40.284,81.609,38.241,83.943,34.061,84.189z"/>
	<path fill-rule="evenodd" clip-rule="evenodd" fill="#D9DAD9" d="M255.875,259.642c0.228-3.161,2.102-5.506,6.075-5.742
		c3.785-0.226,7.005,2.643,6.832,6.254c-0.183,3.818-2.436,6.135-6.184,6.577C259.001,267.155,255.946,264.065,255.875,259.642z"/>
	<path fill-rule="evenodd" clip-rule="evenodd" fill="#DADBDA" d="M187.408,260.098c0.472-3.374,2.122-5.943,6.141-6.204
		c3.805-0.247,6.662,2.442,6.701,6.257c0.041,4.018-2.252,6.113-5.962,6.589C190.856,267.179,187.525,263.918,187.408,260.098z"/>
	<path fill-rule="evenodd" clip-rule="evenodd" fill="#D9DBDA" d="M173.378,253.905c4.679-0.139,7.679,2.603,7.559,6.338
		c-0.127,3.932-2.564,6.039-6.232,6.481c-3.42,0.414-6.842-3.007-6.669-6.502C168.226,256.382,170.315,254.18,173.378,253.905z"/>
	<path fill-rule="evenodd" clip-rule="evenodd" fill="#A8A8A9" d="M627.93,380.02c-0.013-4.674-0.025-9.349-0.039-14.022
		c23.048,0.01,46.095,0.021,69.143,0.03c0.301,1.679,0.603,3.357,0.903,5.037c-1.993,2.78-0.504,5.93-0.942,8.875
		c-1.018,0.81-2.224,0.534-3.359,0.534c-20.754,0.016-41.507,0.016-62.26,0.001c-1.137-0.001-2.342,0.271-3.362-0.53L627.93,380.02z
		"/>
	<path fill-rule="evenodd" clip-rule="evenodd" fill="#536568" d="M662.743,343.682c3.662,0.277,5.98,2.21,6.229,6.128
		c0.23,3.624-2.817,6.667-6.455,6.656c-3.61-0.011-6.76-3.147-6.425-6.71C656.451,345.953,658.646,343.832,662.743,343.682z"/>
	<path fill-rule="evenodd" clip-rule="evenodd" fill="#DBDCDB" d="M628.013,379.944c22.994-0.001,45.987-0.003,68.981-0.004
		c-1.087,1.477-2.689,1.043-4.127,1.045c-20.242,0.021-40.484,0.021-60.726,0C630.705,380.983,629.102,381.42,628.013,379.944z"/>
	<path fill-rule="evenodd" clip-rule="evenodd" fill="#F2F3F3" d="M698.906,374.04c0.709,1.982,1.417,3.965,2.126,5.947
		C696.026,379.541,697.807,376.669,698.906,374.04z"/>
	<path fill-rule="evenodd" clip-rule="evenodd" fill="#DBDCDB" d="M492.177,194.09c-26.488,0-52.977-0.076-79.465,0.087
		c-3.739,0.022-4.745-0.97-4.729-4.722c0.147-33.317,0.139-66.637,0.008-99.955c-0.014-3.57,1.092-4.429,4.525-4.423
		c52.977,0.101,105.953,0.109,158.93-0.014c3.758-0.008,4.744,1.013,4.729,4.748c-0.146,33.318-0.14,66.638-0.006,99.956
		c0.015,3.589-1.114,4.411-4.526,4.395C545.154,194.031,518.666,194.09,492.177,194.09z"/>
	<path fill-rule="evenodd" clip-rule="evenodd" fill="#DBDCDB" d="M492.194,82.995c-26.488,0-52.977-0.081-79.464,0.091
		c-3.813,0.024-5.054-1.074-4.638-4.771c0.479-4.255-1.783-9.799,0.936-12.5c2.712-2.692,8.232-0.838,12.511-0.843
		c49.644-0.058,99.289,0.036,148.932-0.154c4.728-0.019,5.74,1.397,5.643,5.817c-0.273,12.356-0.084,12.36-12.451,12.36
		C539.84,82.995,516.018,82.995,492.194,82.995z"/>
	<path fill-rule="evenodd" clip-rule="evenodd" fill="#5E6F72" d="M857.587,509.197c1.972,0.192,4.38,0.109,4.359,2.886
		c-0.022,3.146-2.624,2.835-4.775,2.86c-2.12,0.025-4.309-0.215-4.13-3.003C853.217,509.206,855.591,509.369,857.587,509.197z"/>
	<path fill-rule="evenodd" clip-rule="evenodd" fill="#5D6F71" d="M842.495,514.956c-1.995-0.046-4.381,0.184-4.542-2.585
		c-0.183-3.139,2.393-3.073,4.554-3.123c2.096-0.049,4.316,0.313,4.337,2.925C846.865,514.924,844.542,514.936,842.495,514.956z"/>
	<path fill-rule="evenodd" clip-rule="evenodd" fill="#5C6D70" d="M847.044,499.76c0.036-2.692,0.081-4.899,2.839-4.943
		c2.76-0.044,2.91,2.131,2.928,4.197c0.02,2.247-0.189,4.747-3.07,4.619C847.29,503.524,846.968,501.227,847.044,499.76z"/>
	<path fill-rule="evenodd" clip-rule="evenodd" fill="#526568" d="M39.142,143.88c-6.154-0.001-12.31-0.045-18.464,0.02
		c-2.77,0.028-4.503-0.221-2.036-3.385c2.347-3.011,4.522-6.159,6.676-9.313c1.609-2.356,3.012-2.103,4.45,0.095
		c0.091,0.139,0.209,0.258,0.313,0.388c6.029,7.521,6.031,7.522,10.901-0.751c1.349-2.291,2.674-4.596,4.029-6.884
		c2.895-4.885,3.058-4.87,6.046,0.239c2.936,5.02,5.9,10.023,8.834,15.044c0.723,1.237,2.329,2.501,1.419,3.918
		c-0.863,1.344-2.769,0.586-4.202,0.602C51.12,143.919,45.131,143.88,39.142,143.88z"/>
	<path fill-rule="evenodd" clip-rule="evenodd" fill="#536568" d="M492.981,184.975c-21.299,0-42.599-0.09-63.896,0.084
		c-3.823,0.03-5.245-0.831-5.043-4.915c0.424-8.539-0.908-7.304,7.573-7.313c41.766-0.044,83.532,0.126,125.295-0.181
		c6.104-0.045,4.93,3.242,5.219,6.772c0.332,4.056-0.476,5.758-5.255,5.688C535.581,184.799,514.28,184.975,492.981,184.975z"/>
	<path fill-rule="evenodd" clip-rule="evenodd" fill="#596B6D" d="M492.988,164.02c-4.994-0.001-9.989-0.096-14.979,0.04
		c-2.409,0.065-3.153-0.841-3.131-3.184c0.092-9.819,0.087-19.642,0.003-29.461c-0.02-2.323,0.72-3.271,3.141-3.25
		c10.152,0.087,20.307,0.076,30.459,0.011c2.394-0.016,3.23,1.029,3.221,3.3c-0.043,9.82-0.066,19.642,0.021,29.461
		c0.021,2.425-0.932,3.175-3.256,3.121C503.31,163.938,498.147,164.02,492.988,164.02z"/>
	<path fill-rule="evenodd" clip-rule="evenodd" fill="#586A6D" d="M441.233,164.021c-4.821,0-9.646-0.127-14.46,0.05
		c-2.742,0.101-3.811-0.683-3.762-3.606c0.159-9.473,0.125-18.95,0.017-28.424c-0.03-2.619,0.493-3.943,3.53-3.897
		c9.971,0.153,19.946,0.118,29.919,0.017c2.55-0.026,3.528,0.772,3.496,3.418c-0.116,9.64-0.148,19.283,0.016,28.922
		c0.051,2.972-1.1,3.66-3.798,3.569C451.211,163.901,446.22,164.021,441.233,164.021z"/>
	<path fill-rule="evenodd" clip-rule="evenodd" fill="#56696C" d="M545.043,164.012c-4.988,0-9.979-0.11-14.963,0.046
		c-2.611,0.081-3.461-0.864-3.432-3.442c0.109-9.643,0.099-19.287,0.005-28.93c-0.025-2.552,0.849-3.538,3.456-3.513
		c9.975,0.097,19.952,0.092,29.927,0.003c2.452-0.021,3.128,1,3.11,3.281c-0.075,9.809-0.086,19.619,0.007,29.428
		c0.021,2.357-0.76,3.23-3.147,3.167C555.021,163.92,550.031,164.012,545.043,164.012z"/>
	<path fill-rule="evenodd" clip-rule="evenodd" fill="#526568" d="M424.483,107.376c11.319,0,22.639,0,33.958,0
		c0,0.359-0.001,0.719-0.002,1.079c-11.314,0-22.628,0-33.941,0C424.493,108.095,424.488,107.735,424.483,107.376z"/>
	<path fill-rule="evenodd" clip-rule="evenodd" fill="#536568" d="M424.483,96.295c11.323,0,22.647,0,33.972,0
		c0.009,0.346,0.017,0.69,0.025,1.036c-11.327,0-22.654,0-33.981,0C424.494,96.985,424.488,96.641,424.483,96.295z"/>
	<path fill-rule="evenodd" clip-rule="evenodd" fill="#526568" d="M458.261,119.309c-11.211,0-22.423,0-33.634,0
		c-0.014-0.313-0.026-0.625-0.04-0.938c11.237,0,22.474,0,33.71,0C458.285,118.684,458.272,118.996,458.261,119.309z"/>
	<path fill-rule="evenodd" clip-rule="evenodd" fill="#526568" d="M561.63,119.303c-11.102,0-22.204,0-33.306,0
		c-0.008-0.343-0.017-0.687-0.024-1.03c11.111,0,22.223,0,33.334,0C561.633,118.616,561.632,118.96,561.63,119.303z"/>
	<path fill-rule="evenodd" clip-rule="evenodd" fill="#526568" d="M561.729,108.591c-11.162,0-22.325,0-33.487,0
		c-0.011-0.577-0.021-1.155-0.03-1.732c11.165-0.09,22.333-0.031,33.5-0.035C561.717,107.412,561.723,108.002,561.729,108.591z"/>
	<path fill-rule="evenodd" clip-rule="evenodd" fill="#526568" d="M561.73,97.614c-11.181,0-22.361,0-33.543,0
		c-0.003-0.354-0.006-0.709-0.009-1.063c11.183,0,22.365,0,33.548,0C561.728,96.905,561.729,97.26,561.73,97.614z"/>
	<path fill-rule="evenodd" clip-rule="evenodd" fill="#596B6E" d="M441.221,74.444c-5.573,0-11.146,0-16.72,0
		c-0.03-0.288-0.061-0.576-0.092-0.864c5.574,0,11.148,0,16.723,0C441.161,73.868,441.19,74.156,441.221,74.444z"/>
	<path fill-rule="evenodd" clip-rule="evenodd" fill="#56696C" d="M543.213,73.17c5.486,0,10.973,0,16.459,0
		c0.013,0.361,0.025,0.724,0.038,1.086c-5.487,0-10.975,0-16.463,0C543.235,73.894,543.225,73.531,543.213,73.17z"/>
	<path fill-rule="evenodd" clip-rule="evenodd" fill="#56696C" d="M519.313,73.04c5.489-0.378,10.979-0.421,16.47,0.045
		c0.011,0.433,0.022,0.865,0.034,1.299c-5.491,0-10.981,0-16.473,0C519.334,73.936,519.324,73.487,519.313,73.04z"/>
	<path fill-rule="evenodd" clip-rule="evenodd" fill="#DBDCDB" d="M493.01,161.832c-4.16,0-8.326-0.113-12.48,0.042
		c-2.559,0.096-3.534-0.733-3.489-3.396c0.136-7.986,0.143-15.979-0.003-23.966c-0.051-2.771,0.771-3.816,3.655-3.763
		c8.318,0.154,16.644,0.126,24.964,0.015c2.541-0.034,3.54,0.748,3.496,3.403c-0.13,7.987-0.139,15.979,0.008,23.966
		c0.051,2.78-0.774,3.891-3.67,3.75C501.34,161.683,497.171,161.833,493.01,161.832z"/>
	<path fill-rule="evenodd" clip-rule="evenodd" fill="#DBDCDB" d="M442.817,130.805c4.214,0.523,10.761-2.232,13.979,1.122
		c2.968,3.093,0.694,9.521,0.859,14.477c0.134,3.988-0.06,7.986,0.052,11.975c0.071,2.558-0.917,3.528-3.512,3.496
		c-8.481-0.107-16.967-0.104-25.448-0.002c-2.58,0.03-3.547-0.915-3.518-3.489c0.092-8.149,0.091-16.302-0.001-24.451
		c-0.027-2.417,0.957-3.21,3.265-3.157C432.982,130.878,437.476,130.805,442.817,130.805z"/>
	<path fill-rule="evenodd" clip-rule="evenodd" fill="#DBDCDB" d="M544.896,161.84c-4.165,0-8.334-0.112-12.493,0.042
		c-2.533,0.094-3.57-0.68-3.526-3.369c0.133-8.16,0.141-16.326,0-24.487c-0.049-2.801,1.229-3.291,3.622-3.266
		c8.329,0.089,16.66,0.102,24.988-0.006c2.51-0.032,3.558,0.683,3.513,3.373c-0.137,8.161-0.147,16.327,0.004,24.487
		c0.053,2.822-1.213,3.332-3.614,3.261C553.229,161.752,549.062,161.841,544.896,161.84z"/>
</g>
</svg>
