<?xml version="1.0" encoding="utf-8"?>
<!-- Generator: Adobe Illustrator 16.0.0, SVG Export Plug-In . SVG Version: 6.00 Build 0)  -->
<!DOCTYPE svg PUBLIC "-//W3C//DTD SVG 1.1//EN" "http://www.w3.org/Graphics/SVG/1.1/DTD/svg11.dtd">
<svg version="1.1" xmlns="http://www.w3.org/2000/svg" xmlns:xlink="http://www.w3.org/1999/xlink" x="0px" y="0px" width="936px"
	 height="654px" viewBox="0 0 936 654" enable-background="new 0 0 936 654" xml:space="preserve">
<g id="Machine_Illistration_copy_xA0_Image_1_">
	<g>
		<path fill-rule="evenodd" clip-rule="evenodd" fill="#DBDCDB" d="M135.955,653.955c-19.217-0.967-38.235-3.057-56.385-10.021
			c-1.237-0.475-2.477-0.969-3.645-1.587c-8.943-4.731-9.318-9.844-0.724-15.056c3.513-2.131,5.349-4.519,4.941-8.566
			c2.985,1.177,2.079,3.885,2.136,6.01c0.088,3.331,1.463,5.157,4.702,6.075c6.452,1.83,12.941,3.203,19.681,2.673
			c8.498-0.669,10.436-4.585,6.151-11.899c-0.937-1.599-3.595-3.16-0.975-5.506c5.41-1.91,11.121-2.036,16.706-2.473
			c23.028-1.8,46.067-1.897,69.071,0.595c8.804,0.954,8.806,0.944,8.812-7.877c0.005-7.306-0.03-14.611,0.021-21.916
			c0.015-2.139-0.189-4.348,1.18-6.244c3.989,0.253,2.704,3.52,2.745,5.488c0.24,11.472,0.104,22.949,0.114,34.426
			c0.009,9.472,0.011,9.439,9.2,10.755c8.685,1.243,17.177,1.036,25.223-3.002c1.706,1.543,3.449,3.046,5.109,4.636
			c2.643,2.531,2.595,5.033,0.158,7.826c-4.193,4.809-10.035,6.529-15.702,8.185c-11.933,3.485-24.157,5.558-36.587,6.588
			c-4.292,0.355-8.565,0.875-12.881,0.892c-3.25,1.277-6.788-0.434-10.027,0.963c-9.665,0-19.331,0-28.996,0
			C142.743,653.521,139.205,655.231,135.955,653.955z"/>
		<path fill-rule="evenodd" clip-rule="evenodd" fill="#526568" d="M936.883,521.935c-1.579,0.65-1.199,2.263-1.524,3.424
			c-6.816,24.343-25.27,39.639-50.459,41.728c-17.95,0.736-35.909,0.124-53.862,0.336c-2.072,0.024-3.006-1.048-3.409-2.873
			c-0.361-1.64-0.368-3.306-0.318-4.969c0.164-5.548,0.768-6.129,6.439-6.132c15.64-0.008,31.279,0.011,46.919-0.021
			c1.811-0.003,3.662,0.344,5.434-0.356c18.483-1.123,35.057-17.093,36.808-35.515c0.221-2.317,0.308-4.656,0.308-6.984
			c0.018-49.121,0.052-98.243-0.005-147.365c-0.023-20.821-12.021-36.681-31.278-41.61c-1.594-0.407-3.271-0.492-4.908-0.727
			c-4.259-0.915-8.568-0.284-12.854-0.403c-5.006-0.139-5.589-0.626-5.833-5.693c-0.048-0.993,0.013-1.989,0-2.982
			c-0.047-3.845,1.404-5.872,5.665-5.367c3.603,0.426,7.277-0.309,10.896,0.355c26.32,2.17,45.318,18.791,51.006,44.652
			c0.146,0.668,0.232,1.282,0.978,1.524C936.883,409.282,936.883,465.608,936.883,521.935z"/>
		<path fill-rule="evenodd" clip-rule="evenodd" fill="#FCDCBC" d="M35.975,463.976c-17.419-14.327-26.416-33.574-31.917-54.823
			c-0.948-3.661-1.413-7.446-2.1-11.175c-1.116-1.524,0.271-3.524-0.957-5.026c0-5.667,0-11.332,0-16.998
			c2.428-3.5,2.584-7.781,3.976-11.646c5.918-16.438,13.861-31.672,26.367-44.1c7.208-7.162,15.774-11.966,26.026-13.688
			c2.477-0.416,4.549,0.758,6.836,0.376c4.091-1.024,6.494,1.551,8.751,4.235c1.007,1.197,1.264,2.767,0.465,4.208
			c-0.917,1.657-2.495,1.548-3.922,0.898c-3.327-1.517-3.422,0.431-3.655,2.941c-0.855,9.188-0.926,9.183-10.378,8.19
			c-1.159-0.121-2.32-0.066-3.481-0.071c-7.062,0.234-11.084,5.262-14.568,10.197c-10.917,15.465-16.982,32.983-16.877,51.795
			c0.115,20.59,7.774,38.878,21.532,54.434c2.188,2.475,4.736,4.656,6.407,7.572C46.245,457.427,41.819,461.401,35.975,463.976z"/>
		<path fill-rule="evenodd" clip-rule="evenodd" fill="#EEEEEE" d="M135.955,653.955c3.337,0.37,6.847-1.045,10.027,0.963
			c-3.333,0-6.666,0-9.999,0C135.982,654.597,135.973,654.275,135.955,653.955z"/>
		<path fill-rule="evenodd" clip-rule="evenodd" fill="#EEEEEE" d="M174.978,654.918c3.18-2.008,6.689-0.592,10.027-0.964
			c-0.018,0.321-0.027,0.643-0.028,0.964C181.644,654.918,178.311,654.918,174.978,654.918z"/>
		<path fill-rule="evenodd" clip-rule="evenodd" fill="#FDF1E5" d="M1,392.951c1.627,1.426,0.805,3.318,0.957,5.025
			c-0.319-0.016-0.638-0.025-0.957-0.026C1,396.283,1,394.617,1,392.951z"/>
		<path fill-rule="evenodd" clip-rule="evenodd" fill="#DBDDDB" d="M35.975,463.976c4.29-3.723,8.498-7.527,12.036-12.004
			c2.547-0.596,3.875,1.541,5.621,2.622c3.077,1.905,6.171,3.296,9.879,2.146c9.872-0.16,19.455,2.313,29.217,3.114
			c12.579,1.031,25.117,2.665,37.771,2.574c10.792-0.078,21.579,0.278,32.379,0.076c20.35-0.383,40.458-2.516,60.322-6.942
			c2.26-0.503,4.494-1.32,6.867-0.656c0.684,3.508,3.022,4.609,6.35,5.485c5.512,1.45,10.732,3.896,14.601,8.427
			c-3.091,5.532-6.121,11.104-10.083,16.09c-11.856-6.401-11.405-6.378-12.098,6.951c-0.735,14.154-2.411,28.261-3.74,42.384
			c-1.066,11.334-2.228,22.66-3.348,33.988c-1.169,1.06-2.646,1.387-4.122,1.643c-12.969,2.249-26.024,3.684-39.156,4.686
			c-21.464,1.638-42.944,0.797-64.414,0.848c-11.136,0.025-22.25-1.255-33.367-2.03c-1.355-0.094-2.625-0.444-3.667-1.386
			c-2.362-9.288-3.542-18.793-4.969-28.239c-2.145-14.191-3.964-28.433-5.833-42.665c-0.839-6.384-1.577-12.787-2.129-19.2
			c-0.228-2.638-1.302-3.446-3.874-4.081C50.891,475.503,42.729,470.913,35.975,463.976z"/>
		<path fill-rule="evenodd" clip-rule="evenodd" fill="#523421" d="M52.098,325.994c2.884-0.387,5.588,0.662,8.38,1.012
			c2.483,0.312,4.755,0.42,3.678-3.556c-0.595-2.197,0.296-4.663,0.181-7.095c-0.141-2.956,1.646-4.363,4.614-1.969
			c1.019,0.822,2.441,2.55,3.775,0.797c1.418-1.862,0.026-3.395-1.486-4.626c-2.094-1.704-4.558-2.694-7.035-3.66
			c6.932-5.442,14.729-4.148,22.351-2.456c3.701,0.821,5.68,0.258,8.188-2.881c14.57-18.237,34.11-24.41,56.757-22.127
			c12.35,1.245,23.853,5.482,35.238,10.242c13.891,5.808,28.173,10.1,43.546,8.385c11.34-1.266,20.593-6.083,26.776-16.004
			c2.596,1.204,1.105,3.278,1.073,5.041c-2.555,28.798-14.982,51.671-40.149,66.898c-1.037,2.413-3.35,3.113-5.482,3.985
			c-19.462,7.956-39.617,10.629-60.568,8.645c-9.444-0.895-18.852-1.872-28.15-3.676c-3.829-0.743-4.967,1.288-5.979,4.246
			c-5.232,15.279-11.306,30.222-18.767,44.553c-7.402,14.217-15.798,27.786-28.041,38.471c-2.731,2.384-5.175,5.888-9.75,4.597
			c-1.933-1.879-2.207-4.448-2.733-6.855c-5.16-23.61-9.437-47.328-11.249-71.504c-1.055-14.064-0.749-27.931,1.453-41.797
			C49.209,331.566,49.54,328.321,52.098,325.994z"/>
		<path fill-rule="evenodd" clip-rule="evenodd" fill="#DBDCDB" d="M680.811,313.025c-1.504-1.72-0.917-3.814-0.921-5.747
			c-0.047-21.132-0.131-42.266,0.059-63.397c0.036-3.984-1.143-5.104-5.063-5.03c-12.31,0.231-24.626,0.102-36.939,0.08
			c-9.201-0.017-13.021-3.841-13.027-12.982c-0.017-29.618-0.03-59.238-0.045-88.856c-0.369-0.501-0.686-1.033-0.955-1.595
			c-0.995-5.503-0.371-11.052-0.451-16.582c-0.129-6.807-0.161-13.614,0.008-20.421c0.001-0.623,0.006-1.246-0.006-1.869
			c0.401-5.543-1.463-11.286,1.451-16.607c0-4.156-0.078-8.313,0.017-12.467c0.148-6.508,4.099-10.516,10.66-10.532
			c24.934-0.065,49.868-0.051,74.803-0.003c4.584,0.009,9.923,3.686,10.118,7.941c0.189,4.126,2.297,5.15,5.435,5.87
			c-2.884,2.221-3.562,5.205-3.524,8.724c0.122,12.08,0.076,24.163,0.025,36.244c-0.01,2.446,0.332,5.018-1.522,7.09
			c-0.156,14.064-0.156,14.063,13.836,14.064c4.33,0,8.664-0.106,12.989,0.035c5.357,0.176,9.105,3.843,9.12,9.229
			c0.078,27.479,0.084,54.958,0,82.436c-0.019,6.152-4.741,10.211-11.705,10.262c-11.99,0.087-23.984,0.182-35.971-0.063
			c-4.066-0.083-5.445,0.985-5.393,5.244c0.203,16.315,0.021,32.635-0.016,48.954c-3.218-1.44-2.382-4.427-2.407-6.887
			c-0.131-12.621-0.038-25.243-0.065-37.865c-0.017-7.625-0.126-7.749-7.837-7.73c-11.813,0.029-10.953-0.913-10.974,11.124
			c-0.03,17.937,0.024,35.873-0.04,53.81C682.46,308.085,683.002,310.881,680.811,313.025z"/>
		<path fill-rule="evenodd" clip-rule="evenodd" fill="#DBDCDB" d="M596.741,415.995c-1.423-1.069-3.07-1.042-4.74-1.04
			c-11.746,0.018-23.497,0.198-35.235-0.092c-4.175-0.103-5.067,1.467-4.865,5.172c0.253,4.619,0.045,9.262,0.036,13.894
			c-0.608,0.301-1.114,0.178-1.517-0.365c-1.773-3.991-0.839-8.217-0.951-12.335c-0.092-3.341-1.357-4.866-4.782-4.795
			c-4.829,0.1-9.665,0.105-14.495-0.003c-3.423-0.077-4.663,1.443-4.804,4.782c-0.179,4.252,1.071,8.685-1.275,12.731
			c-0.623,0.314-1.163,0.209-1.627-0.309c-1.935-3.783-1.053-7.862-1.076-11.8c-0.023-3.858-1.618-5.32-5.397-5.318
			c-31.488,0.016-62.977,0.063-94.464-0.07c-3.071-0.014-5.018,2.346-7.838,2.427c-1.274-1.509-1.31-3.353-1.333-5.167
			c-0.082-6.111-0.098-12.224,0.009-18.335c0.034-1.957-0.035-4.021,1.729-5.464c0.858,2.202,2.212,3.14,4.825,3.131
			c33.283-0.111,66.566-0.117,99.848-0.009c3.412,0.011,4.116-1.271,4.158-4.387c0.183-13.696,0.271-13.695-13.254-13.695
			c-3.329,0-6.657,0.055-9.984-0.013c-6.226-0.126-10.729-4.48-10.734-10.688c-0.042-39.939-0.054-79.878,0.031-119.818
			c0.017-7.743,4.073-11.439,11.917-11.465c5.99-0.02,11.984-0.13,17.971,0.048c3.01,0.089,4.16-0.883,4.041-3.98
			c-0.203-5.316-0.063-10.648-0.066-15.974c2.893,0.356,2.318,2.764,2.483,4.518c0.311,3.289,0.078,6.608,0.153,9.913
			c0.061,2.653,1.316,3.908,3.973,3.924c5.29,0.032,10.58,0.015,15.869,0.006c3.02-0.006,4.023-1.64,4.042-4.39
			c0.021-3.14-0.161-6.293,0.123-9.418c0.163-1.785-0.356-4.146,2.457-4.598c0,5.484,0.087,10.97-0.038,16.45
			c-0.059,2.549,0.845,3.414,3.436,3.561c7.484,0.427,10.479,3.82,10.56,11.431c0.102,9.521,0.102,9.521,9.866,9.526
			c9.55,0.007,13.133,3.625,13.137,13.274c0.007,23.264,0.013,46.527,0.02,69.791c2.787,5.069,0.865,10.654,1.758,15.933
			c-0.376,3.316-0.177,6.651-0.289,9.978c-0.276,8.167-4.805,12.913-13.062,13.393c-5.984,0.347-11.987,0.034-17.982,0.135
			c-5.304,0.09-5.761,0.564-5.917,5.633c-0.288,9.311-0.287,9.326,9.229,9.313c9.992-0.015,19.983,0.059,29.975-0.038
			c1.62-0.016,3.359-0.465,4.752,0.873C598.827,400.223,599.964,408.171,596.741,415.995z"/>
		<path fill-rule="evenodd" clip-rule="evenodd" fill="#FCDCBC" d="M61.986,454.963c7.813-3.893,13.592-10.139,18.789-16.863
			c16.703-21.611,27.067-46.465,35.93-71.993c1.494-4.302,2.825-5.397,7.575-4.493c24.029,4.575,48.154,6.504,72.309,0.447
			c7.464-1.872,14.428-4.946,21.397-8.065c6.729,9.408,8.353,20.541,9.83,31.481c2.752,20.398,3.333,40.968,3.141,61.552
			c-0.025,2.678-0.246,5.291-0.889,7.878c-8.807,3.596-18.204,4.592-27.476,5.976c-15.925,2.377-31.957,3.321-48.079,3.151
			c-17.351-0.183-34.661-0.199-52.004-1.746c-13.519-1.205-26.845-4.026-40.438-4.363C61.146,456.962,61.155,455.975,61.986,454.963
			z"/>
		<path fill-rule="evenodd" clip-rule="evenodd" fill="#526568" d="M290.014,366.87c-11.634-11.402-20.315-24.649-23.827-40.688
			c-6.292-28.736,0.752-53.933,21.071-75.32c0.91-0.958,1.801-1.935,2.701-2.902c1.141-2.263,2.8-4.016,4.827-5.571
			c29.383-22.532,71.502-22.081,100.432,1.083c1.612,1.291,2.833,2.766,3.659,4.616c12.129,11.944,20.838,25.869,24.1,42.758
			c5.481,28.393-2.127,52.938-22.16,73.706c-0.687,0.712-1.333,1.465-1.999,2.198c-1.826,4.312-6.036,6.086-9.473,8.561
			c-4.586,3.301-9.617,5.949-14.91,8.04c-19.981,7.589-39.961,7.783-59.938,0.017c-7.406-3.104-14.35-7.004-20.708-11.956
			C292.16,370.144,290.876,368.715,290.014,366.87z"/>
		<path fill-rule="evenodd" clip-rule="evenodd" fill="#DBDCDB" d="M374.959,381.96c8.593-4.066,16.577-9.089,23.859-15.21
			c0.031,1.142,0.082,2.284,0.09,3.426c0.055,8.449,0.052,8.449,7.081,10.629c-5.214,1.711-5.809,5.635-5.615,10.475
			c0.325,8.089,0.394,16.215-0.017,24.296c-0.283,5.593,0.317,10.048,6.739,11.396c-0.031,0.717-0.329,1.477-0.981,1.577
			c-5.569,0.859-5.682,4.779-5.659,9.222c0.078,14.639,0.2,29.279-0.044,43.916c0.145,8.761,0.027,17.525,0.061,26.29
			c0.027,7.323,0.019,7.323,6.92,9.312c1.439,2.595-0.89,2.758-2.185,2.787c-4.377,0.1-5.057,2.674-4.878,6.268
			c0.173,3.478,0.01,6.977-1.963,10.046c-1.854,2.885-4.349,5.267-7.821,5.538c-3.529,0.277-5.273,2.153-6.447,5.079
			c-0.486,0.065-1.145,0.141-1.313-0.328c-1.416-3.961-4.45-4.7-8.179-4.378c-1.63,0.14-3.276-0.132-4.573-1.35
			c-26.792-0.014-53.584-0.072-80.376,0.001c-5.019,0.014-9.943-0.139-14.663-2.035c-1.39-1.234-1.45-2.929-1.457-4.571
			c-0.04-8.959-1.263-17.787-2.795-26.587c-0.281-1.614-0.64-3.272,0.293-4.83c1.522-1.526,0.878-3.465,0.883-5.219
			c0.047-18.292,0.324-36.592-0.103-54.874c-0.195-8.346,5.244-12.186,11.96-11.741c5.14,0.34,6.403-1.316,6.325-6.355
			c-0.296-19.285-0.101-38.577-0.09-57.868c7.253,6.17,15.33,11.046,23.874,15.186c2.176,2.375,1.378,5.338,1.557,8.089
			c0.37,5.72,2.791,8.854,8.491,9.083c13.435,0.539,26.897,0.577,40.33-0.016c6.245-0.275,8.729-3.366,9.179-9.62
			C373.633,386.989,373.007,384.216,374.959,381.96z"/>
		<path fill-rule="evenodd" clip-rule="evenodd" fill="#DBDCDB" d="M624.927,135.998c-0.018,0.364-0.035,0.729-0.054,1.096
			c-5.482-0.018-10.975,0.14-16.445-0.118c-3.463-0.163-4.61,0.963-4.553,4.488c0.191,11.627,0.099,23.261,0.062,34.891
			c-0.023,7.174-3.499,10.589-10.756,10.615c-10.8,0.039-21.6,0.03-32.4,0.042c-1.723,1.673-3.935,1.537-6.059,1.548
			c-11.547,0.06-23.093,0.058-34.64,0.002c-2.133-0.01-4.33,0.063-6.064-1.566c-10.826-0.006-21.652,0.013-32.479-0.027
			c-7.198-0.025-10.622-3.485-10.626-10.784c-0.02-36.143-0.02-72.286,0.001-108.429c0.004-7.275,3.442-10.707,10.66-10.755
			c5.497-0.036,10.993-0.014,16.489-0.018c1.594-1.321,3.187-1.287,4.779,0.003c23.044,0.002,46.089,0.003,69.133,0.005
			c2.41-1.808,2.377-4.442,2.53-7.091c0.264-4.534-0.865-9.167,0.942-13.595c0.411-0.518,0.906-0.615,1.483-0.3
			c0.014,5.464,0.262,10.941-0.039,16.389c-0.213,3.855,1.242,4.915,4.857,4.663c3.955-0.276,7.947-0.164,11.917-0.038
			c6.872,0.219,10.224,3.727,10.272,10.604c0.03,4.139-0.005,8.279-0.011,12.418c2.366,3.061,1.536,6.667,1.448,10.031
			c-0.107,4.114,1.572,5.401,5.551,5.483c4.671,0.097,9.578-1.346,13.993,1.431c-0.015,0.367-0.029,0.735-0.044,1.104
			c-4.127,2.551-8.698,1.187-13.067,1.382c-6.083,0.272-6.289,0.333-6.354,6.564c-0.046,4.294,0.105,8.589-0.072,12.881
			c0.157,2.989,0.043,5.98,0.069,8.97c0.055,6.293,0.243,6.497,6.365,6.564c2.657,0.029,5.316-0.023,7.976,0.036
			C621.638,134.528,623.458,134.669,624.927,135.998z"/>
		<path fill-rule="evenodd" clip-rule="evenodd" fill="#DBDCDB" d="M884.899,306.78c-3.975,0.066-7.954,0.283-11.921,0.148
			c-2.67-0.092-3.284,0.974-3.377,3.471c-0.359,9.672-0.447,9.62,9.11,9.701c2.777,0.022,5.647-0.59,8.313,0.77
			c-4.327,0.05-8.665,0.291-12.98,0.086c-3.319-0.156-4.299,1.068-4.247,4.308c0.168,10.328,0.089,20.66,0.054,30.989
			c-0.031,9.272-3.447,12.726-12.497,12.727c-23.159,0.004-46.327-0.354-69.475,0.166c-10.193,0.229-12.767-5.864-12.902-13.106
			c-0.134-7.162-0.348-14.347,0.081-21.485c0.29-4.838-1.551-5.763-5.956-5.72c-20.992,0.205-41.986,0.104-62.979,0.068
			c-1.779-0.003-3.694,0.539-5.288-0.81c2.132-2.234,4.942-1.688,7.535-1.696c18.662-0.064,37.323-0.026,55.985-0.035
			c8.943-0.005,8.817-0.017,9.01-9.181c0.085-4.064-1.164-8.371,1.531-12.13c0.017-8.81,0.072-17.62,0.026-26.429
			c-0.013-2.513,0.267-4.936,0.889-7.371c1.446-5.662,4.437-8.252,10.156-8.261c24.27-0.037,48.539-0.042,72.809,0.001
			c6.69,0.012,10.949,4.364,11.05,11.4c0.128,8.974,0.207,17.957-0.05,26.926c-0.109,3.82,1.207,4.87,4.863,4.757
			C878.039,305.969,881.585,305.149,884.899,306.78z"/>
		<path fill-rule="evenodd" clip-rule="evenodd" fill="#A8A8A9" d="M774.896,305.05c0.032,6.141-0.104,12.29,0.161,18.42
			c0.15,3.491-1.033,4.539-4.515,4.517c-21.744-0.137-43.489-0.072-65.234-0.062c-1.491,0.001-2.982,0.107-4.474,0.166
			c-12.212-0.557-17.61-4.619-20.023-15.067c0.005-22.944,0.103-45.891-0.068-68.834c-0.03-4.062,0.988-5.717,5.25-5.361
			c4.128,0.345,8.32,0.273,12.461,0.015c3.514-0.221,4.556,1.05,4.52,4.528c-0.156,14.797-0.071,29.597-0.019,44.395
			c0.006,1.777-0.486,3.689,0.837,5.281c0.399,9.019,3.065,11.798,12.229,11.87C735.646,305.071,755.271,305.019,774.896,305.05z"/>
		<path fill-rule="evenodd" clip-rule="evenodd" fill="#DBDCDB" d="M398.877,248.088c-16.363-14.079-35.205-21.601-56.923-20.986
			c-19.833,0.56-37.033,7.997-51.995,20.858c0.007-7.633-0.037-15.267,0.034-22.899c0.073-7.826,4.181-11.946,11.952-12.061
			c3.981-0.059,7.964-0.011,11.947-0.012c10.027,0,9.999,0,10.08-9.802c0.015-1.768-0.568-3.677,0.805-5.257
			c2.41,2.264,1.773,5.272,1.686,7.991c-0.132,4.124,1.623,5.571,5.633,5.527c10.808-0.12,21.619-0.084,32.429-0.012
			c2.442,0.017,5.042-0.43,7.126,1.464c4.799,0.03,9.597,0.063,14.396,0.089c8.56,0.05,12.73,4.111,12.842,12.761
			C398.985,233.194,398.889,240.642,398.877,248.088z"/>
		<path fill-rule="evenodd" clip-rule="evenodd" fill="#FCDCBC" d="M271.038,502.928c3.048,11.806,4.15,23.827,3.958,35.988
			c-0.37,19.827-3.527,39.171-9.845,58.002c-1.02,3.037-2.02,4.028-5.594,3.259c-11.814-2.543-11.629-2.248-8.437-13.633
			c3.708-13.228,6-26.681,7.133-40.459c1.247-15.148-0.106-29.712-5.14-43.958c-2.417-6.842-6.294-12.769-12.177-17.218
			c2.306-6.023,5.322-11.604,10.083-16.09c8.649,5.54,12.94,14.292,16.767,23.259C269.253,495.519,270.691,499.093,271.038,502.928z
			"/>
		<path fill-rule="evenodd" clip-rule="evenodd" fill="#526568" d="M514.018,186.994c15.588,0.005,31.175,0.011,46.763,0.017
			c0.027,4.798,0.129,9.598,0.063,14.394c-0.087,6.248-2.481,9.142-8.714,10.82c-10.099,2.192-20.187,2.231-30.263-0.155
			c-5.756-1.979-7.849-4.624-7.913-10.303C513.898,196.844,513.99,191.918,514.018,186.994z"/>
		<path fill-rule="evenodd" clip-rule="evenodd" fill="#526568" d="M371.651,212.898c-14.409,0.057-28.818,0.041-43.224,0.229
			c-2.971,0.039-3.635-1.111-3.537-3.782c0.141-3.799-0.06-7.611-0.113-11.417c2.224-6.181,4.668-8.087,10.891-8.143
			c8.314-0.074,16.632-0.086,24.945,0.001c7.293,0.076,10.884,3.728,11.05,11.138C371.753,204.914,371.662,208.907,371.651,212.898z
			"/>
		<path fill-rule="evenodd" clip-rule="evenodd" fill="#526568" d="M140.641,183.988c9.362-0.072,17.185,4.525,19.845,10.977
			c3.071,7.451,1.117,14.357-6.018,20.952c-4.103,3.792-8.706,6.902-9.936,13.195c-0.697,3.567-4.747,1.942-7.397,1.94
			c-2.605-0.003-3.179-1.854-3.203-4.113c-0.046-4.269,1.65-7.77,4.649-10.652c2.276-2.189,4.79-4.131,7.057-6.33
			c4.374-4.241,5.208-7.758,2.899-11.43c-2.185-3.477-7.218-4.99-12.086-2.963c-3.595,1.496-6.193,1.743-8.337-2.109
			c-1.624-2.917-1.423-4.9,1.703-6.475C133.602,185.076,137.582,184.109,140.641,183.988z"/>
		<path fill-rule="evenodd" clip-rule="evenodd" fill="#526568" d="M720.931,122.887c-0.039-15.62,0.131-31.246-0.251-46.857
			c-0.107-4.417,1.545-5.459,5.272-5.2c6.476,1.875,8.729,4.715,8.89,11.19c0.041,1.643,0.107,3.284,0.161,4.925
			c2.302,3.684,1.697,7.37,0.006,11.056c-0.056,3.775-0.148,7.55-0.16,11.325C734.816,119.957,731.724,122.984,720.931,122.887z"/>
		<path fill-rule="evenodd" clip-rule="evenodd" fill="#526568" d="M406.946,427.195c-8.283,0.115-8.283,0.115-8.283-7.984
			c0-10.294,0-20.588,0-30.883c0-7.23,0.001-7.23,7.326-7.523c4.726,1.233,7.503,4.207,8.125,9.104
			c-0.011,9.684-0.022,19.367-0.033,29.049C414.236,424.015,411.854,426.764,406.946,427.195z"/>
		<path fill-rule="evenodd" clip-rule="evenodd" fill="#A8A8A9" d="M521.866,212.069c10.088,0.051,20.176,0.103,30.263,0.154
			c-0.005,0.274-0.059,0.537-0.162,0.791c-2.174,4.915-0.764,10.078-0.872,15.108c-0.076,3.536-0.771,5.108-4.691,4.91
			c-6.125-0.311-12.283-0.24-18.417-0.021c-3.355,0.119-4.115-1.194-4.238-4.342c-0.203-5.2,1.327-10.527-0.881-15.61
			C522.533,212.729,522.199,212.399,521.866,212.069z"/>
		<path fill-rule="evenodd" clip-rule="evenodd" fill="#526568" d="M70.46,218.776c-1.9-0.117-3.599,0.762-5.131,2.183
			c-2.356,2.188-4.649,2.954-7.175-0.002c-2.833-3.316,0.211-4.855,1.935-6.455c9.426-8.745,23.094-5.202,25.653,6.562
			c0.828,3.804-0.62,7.149-2.364,10.386c-1.793,3.328-3.921,6.436-3.171,10.644c0.527,2.952-2.226,3.302-4.248,3.831
			c-2.383,0.623-3.667-0.451-4.21-2.898c-0.598-2.688-0.739-5.154,0.679-7.689c1.526-2.729,2.952-5.554,4.036-8.48
			C78.325,221.833,75.96,218.67,70.46,218.776z"/>
		<path fill-rule="evenodd" clip-rule="evenodd" fill="#526568" d="M752.704,67.983c2.862-6.807,7.871-9.994,13.792-8.778
			c5.839,1.199,9.745,6.285,9.466,12.329c-0.333,7.21-7.302,12.49-14.296,10.76c-1.601-0.396-3.129-1.091-4.69-1.647
			c-3.616-1.086-4.786-3.716-4.557-7.227C752.537,71.608,752.152,69.771,752.704,67.983z"/>
		<path fill-rule="evenodd" clip-rule="evenodd" fill="#A9A9AA" d="M624.921,96.985c-5.758,0.022-11.519-0.051-17.272,0.109
			c-2.784,0.078-3.808-0.962-3.72-3.73c0.141-4.437,0.014-8.883,0-13.324c6.997-0.007,13.994-0.013,20.991-0.02
			C624.92,85.675,624.921,91.33,624.921,96.985z"/>
		<path fill-rule="evenodd" clip-rule="evenodd" fill="#D83658" d="M539.468,47.013c-3.788-12.895-7.235-24.635-11.021-37.519
			c-1.698,5.287-3.098,9.548-4.436,13.828c-2.066,6.613-2.492,6.848-9.889,5.098c0.036-0.312,0.104-0.896,0.114-0.896
			c6.503,0.639,7.434-4.095,8.722-8.751c1.544-5.582,3.417-11.074,5.504-17.747c3.865,13.102,7.397,25.078,11.364,38.521
			c3.318-7.982,6.063-14.58,8.935-21.488c4.175,3.629,5.457,9.971,12.849,9.208c-7.065,5.01-8.705-1.592-12.256-4.349
			C546.13,30.777,543.012,38.374,539.468,47.013z"/>
		<path fill-rule="evenodd" clip-rule="evenodd" fill="#DBDCDB" d="M752.704,67.983c-0.441,4.85,0.587,9.205,4.271,12.663
			c-4.132,5.27-10.165,8.21-15.204,12.37c-2.156,1.78-4.502,3.33-6.763,4.985c-0.002-3.685-0.004-7.371-0.006-11.056
			c5.077-3.618,10.117-7.29,15.245-10.835C753.301,74,750.54,70.276,752.704,67.983z"/>
		<path fill-rule="evenodd" clip-rule="evenodd" fill="#536669" d="M576.932,36.004c-0.314-0.035-0.615,0.017-0.9,0.154
			c-1.408,0.942-2.778,0.904-4.111-0.154c-3.75-1.814-6.289-4.574-5.697-8.961c0.512-3.805,2.893-6.36,6.8-6.946
			c3.656-0.548,6.655,0.903,8.272,4.227c1.668,3.43,1.247,6.809-1.612,9.587C578.862,34.708,577.854,35.312,576.932,36.004z"/>
		<path fill-rule="evenodd" clip-rule="evenodd" fill="#536568" d="M497.991,35.949c-1.197-0.878-2.571-1.592-3.56-2.663
			c-2.957-3.205-2.613-8.248,0.605-11.176c3.125-2.842,7.732-2.835,10.849,0.016c3.228,2.953,3.555,7.953,0.575,11.174
			c-0.989,1.07-2.363,1.786-3.561,2.663C501.261,37.307,499.624,37.319,497.991,35.949z"/>
		<path fill-rule="evenodd" clip-rule="evenodd" fill="#55676A" d="M144.034,244.78c0.687,4.791-2.192,5.333-6.035,5.256
			c-4.018-0.081-5.025-2.182-4.958-5.717c0.076-4.002,1.851-5.506,5.867-5.332C142.89,239.159,144.852,240.57,144.034,244.78z"/>
		<path fill-rule="evenodd" clip-rule="evenodd" fill="#ABABAC" d="M497.991,35.949c1.637,0.005,3.273,0.01,4.909,0.014
			c-0.019,7.008-0.038,14.016-0.058,21.022c-1.594-0.001-3.188-0.002-4.779-0.003C498.04,49.971,498.016,42.959,497.991,35.949z"/>
		<path fill-rule="evenodd" clip-rule="evenodd" fill="#A9A9AA" d="M571.92,36.004c1.371,0.051,2.741,0.103,4.111,0.154
			c-0.012,5.659-0.181,11.325,0.024,16.976c0.115,3.169-1.144,4.238-4.08,3.855C571.957,49.995,571.938,43,571.92,36.004z"/>
		<path fill-rule="evenodd" clip-rule="evenodd" fill="#56686B" d="M80.658,250.968c3.287-0.042,3.986,2.492,4.206,4.643
			c0.396,3.88-3.351,3.773-5.53,4.141c-2.811,0.474-3.115-2.456-3.399-4.487C75.424,251.613,78.663,251.858,80.658,250.968z"/>
		<path fill-rule="evenodd" clip-rule="evenodd" fill="#99877D" d="M258.134,287.097c-0.866-1.572,0.71-3.665-1.073-5.041
			c0.435-0.759,0.856-2.918,1.747-0.674C259.457,283.019,259.284,285.297,258.134,287.097z"/>
		<path fill-rule="evenodd" clip-rule="evenodd" fill="#DBDCDB" d="M560.858,456.929c19.299,0.014,38.598,0.02,57.896,0.045
			c8.827,0.012,13.08,4.224,13.105,13.2c0.055,19.798-0.015,39.597,0.031,59.394c0.021,8.981-4.501,13.603-13.67,13.532
			c-44.085-0.338-88.176-0.164-132.264-0.113c-2.055,0.003-4.371-0.847-6.123,1.091c-4.698,0.831-9.426,0.096-14.138,0.286
			c-3.794,0.17-7.591,0.171-11.378,0.018c-7.989-0.322-12.083-4.206-12.726-12.223c-0.382-4.766-0.218-9.559-0.09-14.34
			c-0.218-8.891-0.061-17.782-0.095-26.675c-0.012-2.809-0.145-5.593-0.905-8.318c0.861-4.251,0.841-8.559,0.949-12.871
			c0.244-9.705,4.809-14.415,14.496-14.491c19.415-0.154,38.833-0.171,58.25,0.007c13.696-0.295,27.393-0.097,41.088-0.1
			C557.265,455.369,559.275,455.429,560.858,456.929z"/>
		<path fill-rule="evenodd" clip-rule="evenodd" fill="#DBDCDB" d="M886.102,553.071c-2.181,1.188-4.56,0.715-6.85,0.723
			c-15.134,0.051-30.27,0.152-45.4-0.063c-3.766-0.054-4.832,1.02-4.751,4.753c0.182,8.424-0.015,8.409,8.416,8.433
			c15.794,0.043,31.589,0.111,47.383,0.169c-1.59,1.347-3.501,0.802-5.274,0.807c-15.294,0.042-30.59,0.125-45.883-0.05
			c-3.614-0.041-5.014,0.848-4.891,4.706c0.268,8.471,0.099,16.955,0.069,25.433c-0.006,1.686,0.041,3.324,1.02,4.782
			c-1.209,1.225-2.749,0.929-4.223,0.911c-28.194-0.328-56.392-0.06-84.586-0.148c-2.116-0.006-4.334,0.507-6.283-0.842
			c-0.001-30.83-0.002-61.661-0.003-92.491c1.615-1.209,3.502-0.885,5.307-0.883c26.987,0.036,53.974-0.021,80.962,0.036
			c2.616,0.005,5.379-0.464,7.684,1.399c0.045,12.484,0.232,24.97,0.051,37.451c-0.055,3.784,1.137,4.781,4.828,4.757
			C851.151,552.839,868.627,553.005,886.102,553.071z"/>
		<path fill-rule="evenodd" clip-rule="evenodd" fill="#DBDCDB" d="M677.848,387.146c7.884-16.111,20.934-25.044,38.711-24.946
			c16.631,0.091,29.579,7.983,37.104,23.3c7.392,15.049,5.995,29.899-3.49,43.344c-17.141,24.297-54.712,22.45-69.829-3.039
			c-0.683-1.151-1.213-2.379-2.553-2.934c-6.6-10.881-6.435-22.172-2.027-33.712C676.132,388.191,676.918,387.574,677.848,387.146z"
			/>
		<path fill-rule="evenodd" clip-rule="evenodd" fill="#536669" d="M77.025,571.991c18.122,0.403,36.179,2.167,54.33,2.165
			c29.138-0.004,58.205-0.563,86.95-6.063c1.1-0.211,2.295,0.08,3.445,0.138c-0.897,16.075-1.793,32.149-2.718,48.726
			c7.028-2.193,13.959-6.805,20.986-0.97c2.998,2.49,5.308,5.546,4.89,9.842c-2.47,4.134-6.66,4.675-10.832,4.977
			c-7.01,0.506-13.961-0.416-20.922-1.138c-3.435-0.356-4.653-1.754-4.564-5.413c0.333-13.655,0.317-27.321,0.308-40.983
			c-0.002-1.678,0.827-3.681-0.992-5.065c-1.695,1.56-3.825,1.888-5.992,2.185c-13.371,1.833-26.782,2.781-40.293,3.143
			c-20.319,0.543-40.548-0.144-60.767-2.037c-7.004-0.656-6.856-0.401-7.477,6.819c-0.755,8.788-1.041,17.606-1.9,26.385
			c-0.354,3.609,0.788,4.619,4.164,2.635c2.443-1.436,5.202-2.298,8.041-2.588c2.654-0.271,5.406-0.506,7.113,2.301
			c1.246,1.536,2.685,2.955,3.706,4.627c4.488,7.35,2.273,12.03-6.355,13.044c-8.41,0.989-16.489-0.85-24.423-3.542
			c-2.106-0.715-2.696-2.056-2.769-4.116c-0.099-2.786,0.499-5.663-0.811-8.336C79.104,603.146,78.064,587.569,77.025,571.991z"/>
		<path fill-rule="evenodd" clip-rule="evenodd" fill="#526568" d="M466.146,542.974c4.542,0.622,9.271-1.067,13.689,1.104
			c-2.422,27.872-18.173,47.363-42.809,52.979c-35.665,8.128-68.728-19.563-66.992-56.105c1.808,0.004,3.647,0.228,5.417-0.028
			c4.949-0.718,8.528,0.172,8.346,6.228c1.569,1.116,1.385,2.926,1.732,4.499c4.292,19.496,21.536,32.862,41.259,31.952
			c18.933-0.873,35.395-16.394,37.784-35.606C464.791,546.232,464.386,544.258,466.146,542.974z"/>
		<path fill-rule="evenodd" clip-rule="evenodd" fill="#526568" d="M828.798,510.746c-29.013-0.014-58.026-0.016-87.039-0.063
			c-2.305-0.004-4.608-0.319-6.913-0.49c-3.912-2.952-5.614-9.194-3.845-14.672c1.407-4.353,5.047-4.729,8.856-4.648
			c2.217-1.366,4.67-1.571,7.199-1.57c23.435,0.005,46.869-0.007,70.304,0.017c2.326,0.003,4.684-0.055,6.7,1.43
			c4.195,0.146,8.486,0.226,9.727,5.49C835.398,503.08,833.806,507.559,828.798,510.746z"/>
		<path fill-rule="evenodd" clip-rule="evenodd" fill="#526568" d="M734.849,602.685c2.143-0.177,4.284-0.503,6.427-0.506
			c27.25-0.034,54.499-0.037,81.748,0.004c2.306,0.003,4.611,0.379,6.917,0.581c3.97,3.303,5.563,11.365,3.109,15.749
			c-1.356,2.425-3.485,3.412-6.195,3.411c-29.781-0.009-59.563,0.021-89.344-0.042c-4.385-0.009-6.823-2.487-6.761-6.909
			C730.814,610.49,729.298,605.375,734.849,602.685z"/>
		<path fill-rule="evenodd" clip-rule="evenodd" fill="#A8A8A9" d="M824.061,490.749c-28.067,0.041-56.135,0.083-84.203,0.124
			c4.6-12.33,12.082-22.039,24.369-27.685C788.198,452.174,817.721,465.708,824.061,490.749z"/>
		<path fill-rule="evenodd" clip-rule="evenodd" fill="#526568" d="M589.923,352.957c-2.084-5.195-0.505-10.615-0.977-15.909
			c18.067,7.862,28.288,21.866,31.997,40.943c0.349,1.792,0.624,3.616,0.717,5.438c0.089,1.742,0.488,2.754,2.559,2.715
			c4.553-0.086,7.047,2.39,7.799,6.778c2.388,7.352,2.341,14.707,0.034,22.066c-0.687,4.943-3.448,7.207-8.508,7.068
			c-6.324-0.173-12.657-0.102-18.984-0.023c-4.275,0.053-6.987-1.727-7.818-6.038c0.012-8.021,0.022-16.041,0.034-24.062
			c-1.155-4.656,2.456-5.949,5.488-6.6c4.403-0.944,4.673-3.22,3.751-6.827c-2.234-8.753-6.379-16.3-13.36-22.165
			C591.522,355.391,590.189,354.605,589.923,352.957z"/>
		<path fill-rule="evenodd" clip-rule="evenodd" fill="#526568" d="M560.858,456.929c-15.64,0.004-31.278,0.009-46.918,0.013
			c-2.542-5.528-2.151-11.314-0.296-16.725c1.323-3.857,4.17-7.178,9.269-6.334c0.32,0.082,0.634,0.064,0.942-0.056
			c1.356-1.102,2.971-1.4,4.648-1.429c5.949-0.103,11.898-0.109,17.847,0.005c1.678,0.031,3.294,0.332,4.627,1.476
			c0.313,0.133,0.633,0.149,0.959,0.05c7.481,3.004,8.919,5.179,8.926,13.521C560.864,450.609,560.859,453.77,560.858,456.929z"/>
		<path fill-rule="evenodd" clip-rule="evenodd" fill="#DBDCDB" d="M632.052,414.988c-0.011-7.355-0.022-14.711-0.034-22.066
			c10.914-0.005,21.828-0.009,32.743-0.014c3.343,4.937,1.26,10.482,1.695,15.738c0.184,2.21,0.309,4.654-1.761,6.354
			C653.813,414.997,642.934,414.992,632.052,414.988z"/>
		<path fill-rule="evenodd" clip-rule="evenodd" fill="#526568" d="M664.695,415.001c0.021-7.364,0.043-14.729,0.065-22.093
			c2.346-5.94,3.569-6.479,13.087-5.763c-4.679,10.519-4.892,21.163-0.913,31.93c0.452,1.224,1.279,2.37,0.855,3.795
			c-1.486-0.011-2.972-0.005-4.458-0.034C667.482,422.723,665.623,421.03,664.695,415.001z"/>
		<path fill-rule="evenodd" clip-rule="evenodd" fill="#A8A8A9" d="M673.029,70.962c7.82,0,15.641-0.046,23.46,0.014
			c6.57,0.051,10.267,3.498,10.372,10.093c0.167,10.479,0.131,20.965,0.014,31.446c-0.068,6.256-4.082,10.366-10.281,10.41
			c-15.806,0.111-31.614,0.119-47.421-0.002c-6.566-0.051-10.235-3.844-10.275-10.261c-0.065-10.482-0.066-20.965-0.002-31.447
			c0.041-6.6,3.604-10.176,10.174-10.236C657.055,70.905,665.042,70.961,673.029,70.962z"/>
		<path fill-rule="evenodd" clip-rule="evenodd" fill="#526568" d="M690.754,168.884c-13.659,0-27.317,0.025-40.976-0.011
			c-7.161-0.019-11.884-4.062-11.825-9.99c0.061-5.986,4.662-9.793,11.994-9.799c27.316-0.02,54.634-0.02,81.95,0
			c7.506,0.006,11.922,3.625,12.021,9.728c0.103,6.292-4.412,10.052-12.189,10.065C718.071,168.902,704.412,168.884,690.754,168.884
			z"/>
		<path fill-rule="evenodd" clip-rule="evenodd" fill="#FEFEFE" d="M603.933,119.078c0.005-5.605,0.157-11.216-0.042-16.813
			c-0.113-3.174,0.857-4.434,4.176-4.293c5.595,0.237,11.207,0.096,16.812,0.115c0.012,6.994,0.024,13.988,0.037,20.982
			C617.922,121.462,610.928,121.451,603.933,119.078z"/>
		<path fill-rule="evenodd" clip-rule="evenodd" fill="#A9A9AA" d="M603.933,119.078c6.994-0.003,13.988-0.006,20.982-0.009
			c0.004,5.643,0.008,11.286,0.012,16.928c-5.832,0.022-11.666-0.03-17.495,0.102c-2.595,0.06-3.563-0.949-3.496-3.525
			C604.052,128.079,603.946,123.577,603.933,119.078z"/>
		<path fill-rule="evenodd" clip-rule="evenodd" fill="#526568" d="M741.366,226.676c-32.691,0-65.383,0-98.074,0
			c-0.001-0.328-0.002-0.656-0.004-0.984c32.689,0,65.38,0,98.07,0C741.361,226.02,741.363,226.348,741.366,226.676z"/>
		<path fill-rule="evenodd" clip-rule="evenodd" fill="#526568" d="M741.341,219.743c-32.672,0-65.344,0-98.015,0
			c-0.002-0.32-0.004-0.642-0.005-0.962c32.661,0,65.323,0,97.986,0C741.318,219.102,741.33,219.423,741.341,219.743z"/>
		<path fill-rule="evenodd" clip-rule="evenodd" fill="#526568" d="M741.334,212.823c-32.665,0-65.331,0-97.995,0
			c-0.002-0.327-0.005-0.653-0.007-0.979c32.649,0,65.3,0,97.949,0C741.299,212.17,741.316,212.496,741.334,212.823z"/>
		<path fill-rule="evenodd" clip-rule="evenodd" fill="#536669" d="M712.877,188.923c0.263-8.161,8.861-13.828,16.066-10.721
			c2.019,0.871,2.696,1.845,0.54,3.416c-4.304,3.135-8.54,6.361-12.853,9.484c-0.879,0.637-1.721,2.049-2.944,1.355
			C712.338,191.693,713.085,190.052,712.877,188.923z"/>
		<path fill-rule="evenodd" clip-rule="evenodd" fill="#536669" d="M735.627,185.346c1.807,5.411,0.373,9.415-3.2,12.694
			c-3.324,3.052-7.298,3.739-11.574,2.353c-2.241-0.726-3.861-1.538-0.786-3.678c4.624-3.218,9.065-6.7,13.59-10.061
			C734.176,186.268,734.734,185.935,735.627,185.346z"/>
		<path fill-rule="evenodd" clip-rule="evenodd" fill="#FEFEFE" d="M522.913,433.883c-7.576,3.044-8.972,5.095-8.977,13.21
			c-0.002,3.282,0.002,6.566,0.004,9.849c-19.327,0.01-38.656,0.007-57.984,0.034c-9.125,0.013-12.704,3.918-13.094,13.127
			c-0.18,4.228,2.038,8.991-1.962,12.672c-1.696,3.31-1.905,7.332-4.826,10.063c-7.164,0.967-14.321,1.114-21.471-0.088
			c-0.139-0.079-0.376-0.144-0.405-0.261c-1.836-7.252-6.768-9.991-13.892-9.61c-0.46,0.024-0.891-0.412-1.299-0.698
			c-0.032-16.203,0.076-32.408-0.19-48.606c-0.07-4.222,0.854-6.31,5.4-5.542c0.968,0.163,1.991,0.003,2.729-0.837
			c3.949-1.386,6.315-4.141,7.135-8.238c0.797-3.115,2.562-4.113,5.973-4.096c32.617,0.173,65.236,0.166,97.854,0.021
			c3.915-0.018,5.33,1.023,5.049,5.027C522.631,424.547,522.901,429.224,522.913,433.883z"/>
		<path fill-rule="evenodd" clip-rule="evenodd" fill="#526568" d="M539.51,363.096c-8.984,0-17.969,0.047-26.952-0.014
			c-7.269-0.051-10.76-3.476-10.839-10.642c-0.079-7.153-0.051-14.308-0.011-21.461c0.047-8.2,3.437-11.617,12.003-11.7
			c12.644-0.123,25.288-0.035,37.932-0.034c4.825,0.001,9.656-0.151,14.473,0.054c7.848,0.333,11.05,3.753,11.098,11.585
			c0.045,7.319,0.091,14.642-0.02,21.96c-0.099,6.584-3.661,10.154-10.234,10.225C557.811,363.168,548.66,363.094,539.51,363.096z"
			/>
		<path fill-rule="evenodd" clip-rule="evenodd" fill="#FEFEFE" d="M589.923,352.957c10.252,6.667,15.733,16.361,17.845,28.177
			c0.549,3.068,0.609,5.466-3.917,5.096c-3.71-0.304-6.226,1.924-7.075,5.704c-0.598,0.287-1.194,0.821-1.794,0.825
			c-13.483,0.096-26.966,0.134-40.447,0.183c-1.572,0.006-2.538-0.633-2.535-2.338c0.001-0.666-0.02-1.332-0.035-1.997
			c-0.325-13.675-0.325-13.675,13.25-13.675c3.996,0,7.994,0.063,11.988-0.015c7.573-0.148,11.541-4.313,11.783-11.788
			C589.096,359.739,587.888,356.18,589.923,352.957z"/>
		<path fill-rule="evenodd" clip-rule="evenodd" fill="#A9A9AA" d="M550.978,433.879c-9.04-0.017-18.081-0.034-27.122-0.051
			c-0.002-4.999,0.093-10-0.045-14.995c-0.074-2.687,0.689-3.964,3.639-3.897c6.663,0.151,13.333,0.158,19.994-0.002
			c3.021-0.072,3.637,1.333,3.57,3.95C550.889,423.88,550.978,428.881,550.978,433.879z"/>
		<path fill-rule="evenodd" clip-rule="evenodd" fill="#A8A8A9" d="M537.403,392.982c-13.929,0-13.835,0.002-13.624-13.769
			c0.048-3.164,0.862-4.448,4.206-4.332c6.296,0.217,12.609,0.225,18.902-0.003c3.401-0.123,4.114,1.254,4.157,4.369
			C551.235,392.984,551.323,392.983,537.403,392.982z"/>
		<path fill-rule="evenodd" clip-rule="evenodd" fill="#A9A9AA" d="M520.916,277.467c0.001,6.161-0.036,12.323,0.018,18.484
			c0.024,2.741-0.229,5.028-3.839,5.057c-3.612,0.029-5.115-1.716-5.106-5.202c0.031-12.822,0.037-25.645-0.005-38.468
			c-0.011-3.383,1.197-5.424,4.905-5.392c3.903,0.033,4.006,2.765,4.018,5.536C520.935,264.145,520.916,270.806,520.916,277.467z"/>
		<path fill-rule="evenodd" clip-rule="evenodd" fill="#A8A8A9" d="M542.996,276.965c0,6.492-0.046,12.985,0.021,19.476
			c0.028,2.694-0.588,4.504-3.797,4.579c-3.3,0.075-4.355-1.472-4.338-4.571c0.076-13.315,0.074-26.633,0-39.949
			c-0.018-3.089,1.02-4.653,4.329-4.579c3.207,0.071,3.831,1.875,3.806,4.57C542.953,263.316,542.996,270.141,542.996,276.965z"/>
		<path fill-rule="evenodd" clip-rule="evenodd" fill="#56686B" d="M562.821,269.241c2.586,0.306,4.458,1.613,4.505,4.354
			c0.044,2.614-1.273,4.454-4.195,4.515c-2.813,0.061-4.369-1.344-4.483-4.165C558.533,271.116,560.176,269.744,562.821,269.241z"/>
		<path fill-rule="evenodd" clip-rule="evenodd" fill="#D73557" d="M563.03,299.525c-2.781-0.39-4.415-1.729-4.376-4.544
			c0.039-2.799,1.527-4.281,4.331-4.257c2.823,0.024,4.233,1.582,4.232,4.359C567.217,297.926,565.463,299.137,563.03,299.525z"/>
		<path fill-rule="evenodd" clip-rule="evenodd" fill="#523421" d="M168.632,423.678c7.159,0.147,12.622,1.524,18.069,2.964
			c3.727,0.985,3.798,2.658,1.525,5.643c-5.58,7.322-12.664,10.344-21.73,8.698c-2.875-0.522-5.431-1.713-7.163-4.094
			c-1.806-2.482-2.871-5.279-1.746-8.399c1.178-3.267,3.942-4.278,7.057-4.6C166.454,423.703,168.283,423.695,168.632,423.678z"/>
		<path fill-rule="evenodd" clip-rule="evenodd" fill="#553724" d="M212.017,396.361c-0.249,2.951-0.828,6.167-4.242,6.31
			c-3.616,0.151-4.263-3.271-4.327-6.063c-0.064-2.834,0.652-6.23,4.114-6.306C211.002,390.227,211.666,393.481,212.017,396.361z"/>
		<path fill-rule="evenodd" clip-rule="evenodd" fill="#543623" d="M155.158,399.049c-0.353,2.775-0.718,6.084-4.476,5.808
			c-3.592-0.264-3.917-3.549-3.86-6.455c0.055-2.795,0.77-5.755,4.149-5.671C154.641,392.821,154.969,396.027,155.158,399.049z"/>
		<path fill-rule="evenodd" clip-rule="evenodd" fill="#6D4F3A" d="M221.946,393.162c-5.349-5.335-10.698-10.67-16.047-16.005
			c-0.428,0.426-0.856,0.852-1.285,1.277c5.375,5.339,10.751,10.678,16.126,16.017C221.143,394.022,221.544,393.593,221.946,393.162
			z"/>
		<path fill-rule="evenodd" clip-rule="evenodd" fill="#654733" d="M149.945,383.941c-4.293,4.118-8.586,8.237-12.879,12.356
			c-0.453-0.493-0.905-0.985-1.357-1.478c4.422-3.961,8.845-7.924,13.268-11.885C149.437,383.138,149.76,383.474,149.945,383.941z"
			/>
		<path fill-rule="evenodd" clip-rule="evenodd" fill="#745640" d="M149.945,383.941c-0.323-0.335-0.646-0.671-0.968-1.006
			c1.141-1.465,2.043-3.269,4.807-3.348C153.19,382.056,151.542,382.978,149.945,383.941z"/>
		<path fill-rule="evenodd" clip-rule="evenodd" fill="#DBDCDB" d="M344.108,361.299c-30.161-0.161-54.232-24.418-54.005-54.422
			c0.223-29.521,24.913-53.865,54.475-53.712c29.795,0.154,54.192,24.837,54.044,54.677
			C398.474,337.505,374.046,361.46,344.108,361.299z"/>
		<path fill-rule="evenodd" clip-rule="evenodd" fill="#A8A8A9" d="M374.959,381.96c0.907,16.971-2.187,19.4-18.85,18.981
			c-9.814-0.246-19.639-0.039-29.459-0.046c-9.661-0.008-12.744-3.119-12.756-12.849c-0.003-1.996-0.004-3.994-0.006-5.991
			c6.878,1.694,13.545,4.049,20.653,5.039C348.56,389.05,361.816,386.244,374.959,381.96z"/>
		<path fill-rule="evenodd" clip-rule="evenodd" fill="#A8A8A9" d="M336.214,526.924c-12.83,0-25.658,0.023-38.487-0.008
			c-8.559-0.02-11.82-3.261-11.826-11.697c-0.012-19.66-0.017-39.32,0.003-58.98c0.008-7.812,3.381-11.252,11.251-11.266
			c25.824-0.046,51.649-0.04,77.474-0.004c7.65,0.011,12.052,3.845,12.143,11.48c0.234,19.656,0.233,39.32,0,58.978
			c-0.09,7.631-4.542,11.481-12.071,11.493C361.872,526.938,349.043,526.924,336.214,526.924z"/>
		<path fill-rule="evenodd" clip-rule="evenodd" fill="#FEFEFE" d="M466.146,542.974c-0.175,25.949-21.534,42.971-43.557,41.944
			c-20.343-0.948-37.7-17.694-38.792-37.769c-0.377-4.567,1.01-6.799,6.297-6.436c3.623,0.249,6.195-2.77,7.755-6.046
			c0.62-1.303,0.946-2.834,1.03-4.283c0.19-3.289-0.665-6.886,0.4-9.813c1.41-3.876,6.17-0.074,8.714-2.466
			c3.62-2.438,3.96-7.099,6.819-10.065c7.046-1.006,14.091-0.944,21.135-0.063c3.172,2.74,3.092,7.768,7.004,10.001
			c0.008,4.479-0.067,8.96,0.04,13.436c0.188,7.824,3.947,11.479,11.708,11.532C458.515,542.971,462.331,542.965,466.146,542.974z"
			/>
		<path fill-rule="evenodd" clip-rule="evenodd" fill="#526568" d="M414.021,509.002c0.149,4.464-0.914,8.125-6.027,9.104
			c-9.145-0.541-9.165-0.541-9.139-10.122c0.024-8.602,0.101-17.202,0.153-25.803c1.637-0.01,3.275-0.031,4.912-0.027
			c7.965,0.018,9.704,1.669,10.173,9.655C416.297,497.549,416.408,503.281,414.021,509.002z"/>
		<path fill-rule="evenodd" clip-rule="evenodd" fill="#526568" d="M537.358,70.892c13.817-0.001,27.637-0.03,41.455,0.011
			c7.922,0.023,11.362,3.353,11.388,11.143c0.056,17.814,0.061,35.628-0.005,53.442c-0.026,7.279-3.413,10.783-10.671,10.803
			c-28.137,0.079-56.272,0.08-84.408,0.002c-7.111-0.02-10.787-3.644-10.842-10.828c-0.135-17.98-0.141-35.962,0.006-53.941
			c0.056-6.897,4.1-10.585,11.122-10.615C509.389,70.851,523.373,70.892,537.358,70.892z"/>
		<path fill-rule="evenodd" clip-rule="evenodd" fill="#526568" d="M822.396,332.86c-6.5,0.001-13,0.054-19.498-0.013
			c-7.436-0.076-11.145-3.655-11.206-10.973c-0.09-10.665-0.094-21.332,0.002-31.995c0.063-7.02,3.796-10.768,10.857-10.82
			c13.331-0.099,26.664-0.111,39.994,0.005c7.045,0.062,10.628,3.816,10.679,10.969c0.076,10.666,0.085,21.331-0.003,31.996
			c-0.059,7.106-3.691,10.706-10.828,10.811C835.729,332.937,829.063,332.86,822.396,332.86z"/>
		<path fill-rule="evenodd" clip-rule="evenodd" fill="#526568" d="M797.158,356.414c16.848,0,33.696,0,50.543,0
			c0.003,0.338,0.006,0.677,0.009,1.016c-16.849,0-33.697,0-50.547,0C797.161,357.091,797.16,356.752,797.158,356.414z"/>
		<path fill-rule="evenodd" clip-rule="evenodd" fill="#526568" d="M847.63,343.674c-16.805,0-33.61,0-50.417,0
			c-0.005-0.337-0.01-0.675-0.015-1.012c16.799,0,33.598,0,50.396,0C847.605,342.999,847.618,343.337,847.63,343.674z"/>
		<path fill-rule="evenodd" clip-rule="evenodd" fill="#526568" d="M797.18,349.459c16.833,0,33.666,0,50.498,0
			c0.003,0.345,0.006,0.69,0.009,1.036c-16.837,0-33.675,0-50.513,0C797.176,350.149,797.178,349.804,797.18,349.459z"/>
		<path fill-rule="evenodd" clip-rule="evenodd" fill="#526568" d="M622.104,500.305c0.002,6.822,0.058,13.646-0.015,20.468
			c-0.072,6.87-3.492,10.792-10.232,10.901c-13.643,0.22-27.293,0.225-40.934-0.012c-6.444-0.111-10.028-4.122-10.066-10.602
			c-0.081-13.978-0.087-27.956,0.005-41.934c0.044-6.55,3.707-10.211,10.251-10.255c13.646-0.092,27.291-0.099,40.937,0.005
			c6.271,0.047,9.905,3.698,10.021,9.962C622.203,485.992,622.101,493.149,622.104,500.305z"/>
		<path fill-rule="evenodd" clip-rule="evenodd" fill="#526568" d="M509.077,495.711c10.868,6.759,10.773,15.641-0.247,23.102
			c-2.878,2.21-5.545,1.853-8.038-0.656c-10.191-5.985-10.155-15.943,0.081-22.313C503.564,493.196,506.303,493.354,509.077,495.711
			z"/>
		<path fill-rule="evenodd" clip-rule="evenodd" fill="#526568" d="M534.813,505.12c-9.574-6.072-9.429-15.509,0.338-21.958
			c2.867-2.419,5.789-2.152,8.744-0.18c10.365,6.847,10.323,15.791-0.106,22.796C540.612,508.081,537.612,507.957,534.813,505.12z"
			/>
		<path fill-rule="evenodd" clip-rule="evenodd" fill="#526568" d="M465.828,491.107c-5.901-3.709-8.166-8.452-6.706-14.041
			c1.153-4.416,5.384-7.952,10.035-8.389c5.824-0.547,10.843,2.498,12.551,7.616c2.005,6.003-0.256,11.091-6.614,14.88
			C471.985,494.034,468.895,494.171,465.828,491.107z"/>
		<path fill-rule="evenodd" clip-rule="evenodd" fill="#A9A9AA" d="M465.828,491.107c3.081,1.177,6.169,1.174,9.266,0.066
			c-0.057,10.129-0.15,20.258-0.149,30.387c0.001,3.233-0.236,6.29-4.435,6.289c-4.235,0-4.449-3.281-4.484-6.356
			C465.913,511.365,465.887,501.236,465.828,491.107z"/>
		<path fill-rule="evenodd" clip-rule="evenodd" fill="#526568" d="M442.952,517.978c-5.317-0.777-6.08-4.622-6.058-8.994
			c-2.418-5.71-2.302-11.432-0.076-17.162c0.06-3.604,0.346-7.104,4.083-9.047c2.608-0.045,2.225,1.872,2.218,3.465
			C443.078,496.818,443.011,507.398,442.952,517.978z"/>
		<path fill-rule="evenodd" clip-rule="evenodd" fill="#A9A9AA" d="M534.813,505.12c2.918,1.228,5.951,0.895,8.977,0.658
			c0.047,5.62,0.064,11.242,0.155,16.862c0.05,3.112-1.065,5.172-4.468,5.245c-3.317,0.07-4.265-2.332-4.375-4.917
			C534.848,517.026,534.891,511.071,534.813,505.12z"/>
		<path fill-rule="evenodd" clip-rule="evenodd" fill="#A8A8A9" d="M509.077,495.711c-2.745-0.589-5.483-0.727-8.204,0.133
			c0.02-5.613,0.067-11.227,0.045-16.84c-0.012-3.196,1.348-5.041,4.688-4.996c3.325,0.045,3.418,2.409,3.416,4.862
			C509.018,484.483,509.056,490.097,509.077,495.711z"/>
		<path fill-rule="evenodd" clip-rule="evenodd" fill="#A8A8A9" d="M543.895,482.982c-2.914,0.06-5.829,0.119-8.744,0.18
			c0.227-1.783,0.588-3.561,0.647-5.349c0.091-2.664,1.277-3.989,3.981-3.81c2.518,0.168,3.953,1.515,4.109,4.036
			C543.989,479.682,543.899,481.334,543.895,482.982z"/>
		<path fill-rule="evenodd" clip-rule="evenodd" fill="#A9A9AA" d="M500.792,518.156c2.614,1.025,5.334,0.745,8.039,0.656
			c0.059,1.648,0.118,3.299,0.178,4.949c0.092,2.54-0.82,4.188-3.661,4.13c-2.509-0.051-4.102-1.255-4.358-3.791
			C500.79,522.133,500.849,520.138,500.792,518.156z"/>
		<path fill-rule="evenodd" clip-rule="evenodd" fill="#526568" d="M784.518,525.624c17.265,0.054,30.601,13.462,30.552,30.719
			c-0.05,17.151-13.616,30.64-30.775,30.6c-17.117-0.039-30.581-13.623-30.55-30.823
			C753.775,538.906,767.233,525.571,784.518,525.624z"/>
		<path fill-rule="evenodd" clip-rule="evenodd" fill="#526568" d="M716.009,413.766c-6.331,0-12.668-0.155-18.991,0.07
			c-2.866,0.102-4.188-0.875-4.884-3.599c-2.45-9.606,1.454-20.448,9.574-26.104c8.727-6.079,20.597-5.944,29.001,0.328
			c8.09,6.038,11.771,16.88,9.031,26.246c-0.661,2.26-1.779,3.179-4.238,3.115C729.009,413.654,722.508,413.766,716.009,413.766z"/>
		<path fill-rule="evenodd" clip-rule="evenodd" fill="#526568" d="M731.724,420.535c-10.521,0-21.043,0-31.565,0
			c-0.003-0.357-0.007-0.714-0.01-1.071c10.523,0,21.046,0,31.568,0C731.719,419.821,731.722,420.178,731.724,420.535z"/>
		<path fill-rule="evenodd" clip-rule="evenodd" fill="#536669" d="M724.587,427.534c-5.738,0-11.477,0-17.215,0
			c0.015-0.288,0.029-0.576,0.044-0.865c5.739,0,11.478,0,17.216,0C724.616,426.958,724.602,427.246,724.587,427.534z"/>
		<path fill-rule="evenodd" clip-rule="evenodd" fill="#D6D7D6" d="M699.875,112.876c-0.058,1.771-0.867,2.88-2.661,3.028
			c-1.897,0.155-2.82-1.131-2.937-2.695c-0.127-1.712,1.18-2.778,2.755-2.999C698.877,109.953,699.686,111.196,699.875,112.876z"/>
		<path fill-rule="evenodd" clip-rule="evenodd" fill="#D7D8D7" d="M696.608,77.976c1.997,0.108,3.23,0.823,3.161,2.699
			c-0.055,1.482-1.047,2.658-2.456,2.685c-1.522,0.029-3.003-0.783-3.186-2.57C693.935,78.901,695.249,78.223,696.608,77.976z"/>
		<path fill-rule="evenodd" clip-rule="evenodd" fill="#D9DAD9" d="M648.228,115.86c-1.753-0.36-2.438-1.542-2.27-3.184
			c0.172-1.677,1.129-2.744,2.921-2.438c1.495,0.254,2.104,1.405,2.046,2.861C650.857,114.801,650.015,115.802,648.228,115.86z"/>
		<path fill-rule="evenodd" clip-rule="evenodd" fill="#D9DAD9" d="M650.935,80.156c0.187,1.958-0.678,3.123-2.39,3.22
			c-1.398,0.079-2.535-0.707-2.593-2.337c-0.062-1.724,0.741-2.84,2.523-2.996C650.071,77.904,650.951,78.678,650.935,80.156z"/>
		<path fill-rule="evenodd" clip-rule="evenodd" fill="#FBFCFC" d="M676.689,166.448c-4.902,1.059-5.429-1.102-3.949-5.076
			c0.799-2.145,1.223-4.45,1.616-6.717c0.399-2.298,1.41-3.36,3.921-3.298c8.484,0.208,7.652-0.726,5.712,6.892
			c-0.284,1.117-0.765,2.225-0.815,3.353C682.977,165.934,680.688,167.361,676.689,166.448z"/>
		<path fill-rule="evenodd" clip-rule="evenodd" fill="#FBFCFC" d="M727.126,151.399c4.612-1.079,4.632,1.516,3.412,5.235
			c-0.718,2.187-1.25,4.454-1.646,6.724c-0.414,2.369-1.575,3.192-4.023,3.269c-7.521,0.237-7.518,0.351-5.689-6.99
			c0.239-0.96,0.513-1.912,0.743-2.874C721.217,151.38,721.214,151.379,727.126,151.399z"/>
		<path fill-rule="evenodd" clip-rule="evenodd" fill="#FBFCFC" d="M699.839,166.504c-4.766,0.953-5.739-0.944-4.072-5.054
			c0.552-1.359,0.73-2.87,1.077-4.312c1.333-5.533,4.223-7.119,9.854-5.758c2.108,0.51,1.561,1.694,1.274,2.948
			c-0.733,3.213-1.565,6.405-2.251,9.628C704.927,167.687,701.975,166.253,699.839,166.504z"/>
		<path fill-rule="evenodd" clip-rule="evenodd" fill="#FBFBFB" d="M653.743,166.446c-4.872,1.026-5.583-1.011-4.031-5.1
			c0.816-2.15,1.205-4.485,1.597-6.768c0.407-2.37,1.59-3.174,4.032-3.245c7.311-0.21,7.31-0.326,5.642,6.771
			c-0.265,1.128-0.745,2.239-0.817,3.376C659.898,165.664,657.897,167.49,653.743,166.446z"/>
		<path fill-rule="evenodd" clip-rule="evenodd" fill="#A9A9AA" d="M436.817,491.821c0.025,5.72,0.051,11.441,0.076,17.162
			c-7.624,0.006-15.248,0.013-22.873,0.019c0.024-5.73,0.049-11.463,0.072-17.193C421.668,491.813,429.242,491.816,436.817,491.821z
			"/>
		<path fill-rule="evenodd" clip-rule="evenodd" fill="#DBDCDB" d="M568.43,331.106c-13.156,0-26.312,0-39.468,0
			c0.003-0.402,0.006-0.806,0.009-1.208c13.172,0,26.342,0,39.513,0C568.466,330.301,568.447,330.704,568.43,331.106z"/>
		<path fill-rule="evenodd" clip-rule="evenodd" fill="#DBDCDB" d="M568.42,338.027c-13.149,0-26.299,0-39.448,0
			c-0.002-0.394-0.003-0.787-0.004-1.182c13.14,0,26.277,0,39.415,0C568.396,337.24,568.408,337.634,568.42,338.027z"/>
		<path fill-rule="evenodd" clip-rule="evenodd" fill="#DBDCDB" d="M568.434,351.71c-13.07,0-26.14,0-39.211,0
			c-0.001-0.34-0.002-0.681-0.003-1.021c13.058,0,26.115,0,39.172,0C568.405,351.029,568.42,351.37,568.434,351.71z"/>
		<path fill-rule="evenodd" clip-rule="evenodd" fill="#DBDCDB" d="M568.424,344.811c-13.063,0-26.125,0-39.188,0
			c-0.002-0.352-0.004-0.704-0.006-1.056c13.049,0,26.097,0,39.145,0C568.391,344.106,568.407,344.459,568.424,344.811z"/>
		<path fill-rule="evenodd" clip-rule="evenodd" fill="#D6D8D7" d="M516.65,345.098c2.486,0.531,4.376,1.699,4.299,4.534
			c-0.082,2.991-1.807,4.545-4.771,4.372c-2.746-0.159-4.239-1.901-4.087-4.565C512.244,346.785,514.046,345.428,516.65,345.098z"/>
		<path fill-rule="evenodd" clip-rule="evenodd" fill="#D9DBDA" d="M520.989,332.683c-0.122,2.745-1.482,4.395-4.238,4.522
			c-2.734,0.127-4.496-1.355-4.649-4.05c-0.154-2.721,1.556-4.424,4.196-4.562C518.938,328.457,520.586,329.988,520.989,332.683z"/>
		<path fill-rule="evenodd" clip-rule="evenodd" fill="#526568" d="M344.79,282.958c13.396,0.148,24.308,11.408,24.085,24.849
			c-0.224,13.348-11.593,24.312-24.954,24.066c-13.489-0.247-24.146-11.317-23.995-24.924
			C320.074,293.501,331.158,282.807,344.79,282.958z"/>
		<path fill-rule="evenodd" clip-rule="evenodd" fill="#D9DAD9" d="M300.954,458.204c-0.23,1.611-1.059,2.755-2.853,2.498
			c-1.779-0.256-2.302-1.635-2.123-3.255c0.164-1.479,1.055-2.443,2.571-2.343C300.337,455.223,300.963,456.491,300.954,458.204z"/>
		<path fill-rule="evenodd" clip-rule="evenodd" fill="#D9DAD9" d="M376.954,457.698c-0.005,1.731-0.705,3.012-2.465,3.042
			c-1.756,0.03-2.557-1.198-2.537-2.896c0.018-1.458,0.673-2.571,2.207-2.716C375.964,454.957,376.769,456.075,376.954,457.698z"/>
		<path fill-rule="evenodd" clip-rule="evenodd" fill="#D9DAD9" d="M300.934,515.059c-0.009,1.607-0.797,2.672-2.575,2.839
			c-1.583,0.148-2.583-0.692-2.732-2.17c-0.173-1.722,0.744-2.769,2.568-2.826C299.638,512.856,300.827,513.169,300.934,515.059z"/>
		<path fill-rule="evenodd" clip-rule="evenodd" fill="#D9DAD9" d="M376.924,515.173c-0.121,1.751-1.052,2.701-2.822,2.711
			c-1.738,0.009-2.188-1.12-2.178-2.612c0.012-1.639,0.886-2.373,2.463-2.374C375.903,512.896,376.945,513.44,376.924,515.173z"/>
		<path fill-rule="evenodd" clip-rule="evenodd" fill="#DBDCDB" d="M822.498,321.083c-8.368,0.011-15.369-6.88-15.371-15.127
			c-0.003-8.324,6.909-15.131,15.356-15.121c8.565,0.01,15.315,6.669,15.32,15.113C837.809,314.382,831.042,321.072,822.498,321.083
			z"/>
		<path fill-rule="evenodd" clip-rule="evenodd" fill="#DBDCDB" d="M765.954,559.875c-1.635-7.673,1.418-15.228,7.879-19.497
			c6.507-4.301,14.64-4.3,21.149,0.002c6.456,4.266,9.517,11.849,7.871,19.498c-1.424,1.37-3.229,1.591-5.066,1.61
			c-8.923,0.095-17.846,0.096-26.769,0C769.182,561.469,767.376,561.248,765.954,559.875z"/>
		<path fill-rule="evenodd" clip-rule="evenodd" fill="#D73255" d="M765.954,559.875c12.3,0.001,24.601,0.002,36.899,0.003
			c-1.51,9.256-8.733,15.209-18.451,15.208C774.684,575.086,767.448,569.12,765.954,559.875z"/>
		<path fill-rule="evenodd" clip-rule="evenodd" fill="#D7D9D8" d="M716.383,392.994c1.14,3.521,0.959,6.887,3.163,9.611
			c1.091,1.351,0.429,3.184-1.012,4.395c-1.264,1.063-2.699,1.287-4.128,0.453c-1.558-0.909-2.814-2.715-1.8-4.08
			C714.838,400.367,714.455,396.518,716.383,392.994z"/>
	</g>
</g>
<g id="Man_Shadow_1_" enable-background="new    ">
</g>
<g id="Man_Illustration_xA0_Image_1_">
</g>
<g id="Questionmarks_xA0_Image_1_">
</g>
</svg>
