<?xml version="1.0" encoding="utf-8"?>
<!-- Generator: Adobe Illustrator 16.0.0, SVG Export Plug-In . SVG Version: 6.00 Build 0)  -->
<!DOCTYPE svg PUBLIC "-//W3C//DTD SVG 1.1//EN" "http://www.w3.org/Graphics/SVG/1.1/DTD/svg11.dtd">
<svg version="1.1" xmlns="http://www.w3.org/2000/svg" xmlns:xlink="http://www.w3.org/1999/xlink" x="0px" y="0px" width="977px"
	 height="584px" viewBox="0 0 977 584" enable-background="new 0 0 977 584" xml:space="preserve">
<g id="Man_Shadow_copy_2_1_" enable-background="new    ">
	<g id="Man_Shadow_copy_2">
		<g>
			<ellipse fill="#DCDDDC" cx="144.75" cy="561.672" rx="98.906" ry="22.328"/>
		</g>
	</g>
</g>
<g id="Vector_Smart_Object_xA0_Image_1_">
	<g>
		<path fill-rule="evenodd" clip-rule="evenodd" fill="#A9A9AA" d="M978,446c-2.257,1.611-4.289,3.191-7.489,3.181
			c-46.214-0.155-92.429-0.146-138.644-0.177c-1.686,0.02-3.371,0.039-5.057,0.059c-50.178-0.018-100.355-0.034-150.533-0.052
			c-3.103-0.002-6.204-0.005-9.306-0.007c-41.019-0.002-82.036-0.003-123.054-0.004c-3.137,0.004-6.273,0.008-9.411,0.012
			c-41.599,0.028-83.196,0.072-124.794,0.082c-58.74,0.015-117.479-0.023-176.218,0.067c-3.665,0.006-6.856-0.515-9.494-3.161
			c0-6,0-12,0-18c2.286-3.041,5.292-3.96,9.094-3.948c27.969,0.089,55.938-0.008,83.908-0.046c2.719,1.17,5.453-0.046,8.178-0.034
			c25.615,0.115,51.231,0.031,76.847,0.005c13.659,0.049,27.318,0.098,40.977,0.146c1.428,1.272,3.173,0.77,4.786,0.771
			c35.134,0.026,70.268,0.026,105.403-0.002c1.608-0.001,3.358,0.522,4.774-0.784c36.013-0.034,72.025-0.068,108.037-0.103
			c3.489,0.01,6.979,0.029,10.467,0.027c46.522-0.026,93.044-0.057,139.565-0.085c5.743,0.017,11.485,0.032,17.229,0.048
			c1.558,0.935,3.117,0.79,4.678,0.01c43.652,0.038,87.304,0.114,130.956,0.048c3.802-0.006,6.814,0.901,9.102,3.946
			C978,434,978,440,978,446z"/>
		<path fill-rule="evenodd" clip-rule="evenodd" fill="#55676A" d="M826.811,449.063c1.686-0.02,3.371-0.039,5.057-0.059
			c-8.829,20.151-25.091,31.717-45.057,39.002c-12.383,4.518-25.531,6.112-38.084,9.993c-11.467,3.546-22.69,7.636-32.998,13.91
			c-6.011,3.659-11.553,7.878-15.87,13.526c-6.423,8.403-7.338,17.163-2.572,24.549c5.009,7.763,15.459,11.68,25.043,9.436
			c5.399-1.265,10.168-4.068,15.235-6.142c14.803-6.056,29.807-11.298,45.78-13.504c16.867-2.33,32.855,0.238,48.016,7.756
			c14.909,7.395,30.155,13.971,45.738,19.784c3.587,1.338,7.26,2.379,11.087,2.828c13.577,1.591,20.396-4.355,20.737-18.118
			c0.143-0.994,0.285-1.989,0.428-2.983c1.505-0.005,3.011-0.01,4.516-0.015c0.052,0.994,0.104,1.987,0.155,2.981
			c-0.729,3.218-1.313,6.478-2.218,9.646C909.9,568.317,904.871,572.087,899,575c-4.667,0-9.333,0-14,0
			c-8.765-3.378-17.591-6.606-26.276-10.177c-7.683-3.158-15.532-6.121-22.746-10.171c-23.307-13.086-47.394-13.817-72.378-6.021
			c-11.295,3.524-22.286,7.766-33.021,12.692c-7.416,3.403-14.969,4.291-22.806,1.761c-16.264-5.25-22.642-21.709-14.084-36.486
			c4.728-8.165,11.86-13.863,19.803-18.614c16.199-9.69,34.049-14.904,52.298-18.931c11.903-2.627,23.552-5.928,34.223-11.999
			C811.716,470.396,821.242,461.613,826.811,449.063z"/>
		<path fill-rule="evenodd" clip-rule="evenodd" fill="#A9A9AA" d="M494,101c3.236,11.594,6.473,23.188,10.102,36.185
			c2.778-6.849,4.982-12.205,7.12-17.588c0.901-2.271,1.683-2.981,3.563-0.6c2.149,2.724,3.467,6.721,8.147,6.334
			c0.679-0.057,1.104,0.7,1.059,1.425c-0.047,0.741-0.516,1.198-1.279,1.238c-2.135,0.111-4.344,0.581-5.887-1.618
			c-0.942-1.345-2.037-2.582-3.416-4.31c-3.074,7.496-5.988,14.598-8.901,21.699c-0.409,0.028-0.818,0.057-1.228,0.086
			c-3.188-10.819-6.377-21.639-9.949-33.763c-1.828,5.682-3.242,10.19-4.735,14.673c-0.951,2.854-5.978,4.658-8.449,3.089
			c-0.585-0.372-0.99-0.889-0.697-1.648c0.363-0.94,1.231-1.196,2.031-1.04c4.257,0.829,4.791-2.22,5.658-5.148
			c1.885-6.358,3.899-12.678,5.861-19.014C493.334,101,493.666,101,494,101z"/>
		<path fill-rule="evenodd" clip-rule="evenodd" fill="#55676A" d="M607.243,348.622c0.033-48.485,0.068-96.97,0.093-145.455
			c0.001-3.348-0.098-6.708,2.146-9.531c2.403-3.026,5.664-3.667,9.358-3.655c23.327,0.073,46.653,0.037,69.98,0.037
			c57.816-0.001,115.633-0.002,173.45,0.001c9.845,0.001,12.688,2.884,12.685,12.867c-0.016,48.652-0.037,97.305-0.057,145.957
			c-1.674,0.985-3.522,0.825-5.35,0.825c-79.484-0.002-158.97,0.073-238.455-0.116C623.165,349.532,615.136,350.274,607.243,348.622
			z M787.158,333.693c22.451,0.092,44.905,0.072,67.354,0.376c4.175,0.056,4.851-1.453,4.84-5.141
			c-0.11-39.429-0.118-78.857,0.01-118.286c0.013-3.858-0.951-5.129-4.981-5.092c-20.961,0.197-41.924,0.084-62.886,0.11
			c-1.482,0.002-2.965,0.263-4.447,0.403c-0.664-0.055-1.327-0.158-1.991-0.158c-52.497-0.01-104.995,0.031-157.492-0.101
			c-3.957-0.01-4.62,1.423-4.61,4.942c0.106,39.165,0.143,78.33-0.034,117.494c-0.021,4.544,1.129,5.831,5.764,5.815
			c51.164-0.17,102.328-0.104,153.492-0.117C783.837,333.939,785.497,333.779,787.158,333.693z"/>
		<path fill-rule="evenodd" clip-rule="evenodd" fill="#DBDCDB" d="M607.243,348.622c7.893,1.652,15.922,0.91,23.851,0.93
			c79.485,0.189,158.971,0.114,238.455,0.116c1.827,0,3.676,0.16,5.35-0.825c0.032,10.782,0.127,21.563,0.071,32.345
			c-0.031,6.212-3.692,9.773-9.979,9.826c-8.128,0.069-16.257,0.002-24.385,0.032c-1.775,0.007-3.72-0.425-5.013,1.39
			c-1.405-1.908-3.573-0.88-5.342-1.388c-13.081-0.017-26.161-0.032-39.242-0.049c-33.301,0.003-66.601,0.006-99.9,0.009
			c-5.082,0.006-10.163,0.012-15.244,0.017c-2.851,0.021-5.701,0.041-8.551,0.062c-15.257-0.018-30.513-0.04-45.769-0.052
			c-11.758-0.009-13.895-1.71-14.394-13.576C606.748,367.864,607.182,358.235,607.243,348.622z M740.231,378.137
			c5.869,0.253,9.831-3.101,10.143-8.587c0.318-5.596-3.389-9.685-8.909-9.827c-4.957-0.129-10.047,4.208-10.454,8.905
			C730.613,373.209,735.182,377.919,740.231,378.137z"/>
		<path fill-rule="evenodd" clip-rule="evenodd" fill="#D9DBDA" d="M557.967,424.108c-1.416,1.307-3.166,0.783-4.774,0.784
			c-35.135,0.028-70.269,0.028-105.403,0.002c-1.613-0.002-3.357,0.501-4.786-0.772c-4.47-3.951-5.55-8.928-5.104-14.721
			c0.42-5.461,0.093-10.979,0.096-16.472c-0.002-5.6-0.004-11.2-0.006-16.8c0-6.766,0-13.53,0-20.296
			c0.002-5.588,0.004-11.177,0.007-16.765c-0.002-12.464-0.027-24.928,0.003-37.392c0.018-7.262,3.416-10.625,10.674-10.671
			c4.487-0.029,8.974-0.025,13.461-0.036c17.958,0.001,35.916,0,53.875,0.004c10.089,0.003,12.887,2.854,12.891,13.146
			c0.006,18.789,0.001,37.578,0.002,56.368c0.001,6.28,0.004,6.261,6.525,6.292c2.821,0.014,5.644,0.125,8.465,0.192
			c3.655,0.002,7.314-0.105,10.965,0.031c5.034,0.188,8.074,3.114,8.118,8.162c0.117,13.46-0.036,26.922,0.086,40.381
			C563.097,419.593,560.603,421.817,557.967,424.108z M483.101,353.094c7.492,0,14.984,0.04,22.476-0.013
			c6.434-0.045,10.133-3.269,10.293-9.606c0.242-9.65,0.218-19.315,0.006-28.967c-0.127-5.814-4.184-10.363-9.402-10.425
			c-15.316-0.179-30.636-0.186-45.951-0.003c-5.697,0.067-9.393,3.665-9.469,8.897c-0.154,10.487-0.172,20.98,0.014,31.466
			c0.089,5.005,4.044,8.58,9.058,8.628C467.783,353.145,475.442,353.09,483.101,353.094z M500.364,397.104
			c13.14,0,26.278,0.021,39.418-0.009c6.927-0.016,11.195-3.625,11.134-9.299c-0.059-5.375-4.388-9.338-10.766-9.356
			c-26.444-0.078-52.889-0.082-79.333,0.003c-6.319,0.02-10.743,4.174-10.658,9.475c0.089,5.53,4.272,9.152,10.788,9.174
			C474.086,397.134,487.226,397.104,500.364,397.104z M548.29,406.338c0.016-0.271,0.031-0.541,0.047-0.812
			c-30.957,0-61.914,0-92.871,0c0.004,0.271,0.008,0.541,0.012,0.812C486.416,406.338,517.353,406.338,548.29,406.338z
			 M548.32,412.735c-0.021-0.279-0.043-0.56-0.065-0.839c-30.954,0-61.908,0-92.862,0c0.004,0.279,0.008,0.56,0.011,0.839
			C486.376,412.735,517.348,412.735,548.32,412.735z"/>
		<path fill-rule="evenodd" clip-rule="evenodd" fill="#D9DBDA" d="M462.055,278.01c-4.333-0.01-8.667,0.024-12.999-0.04
			c-6.934-0.102-10.981-3.938-10.992-10.747c-0.054-34.164-0.051-68.328-0.001-102.492c0.009-6.256,4.454-10.59,10.727-10.688
			c5.332-0.082,10.666-0.033,16-0.042c1.395-0.001,2.788-0.002,4.181-0.003c21.953,0.002,43.905,0.003,65.858,0.004
			c1.388-0.001,2.773-0.002,4.159-0.003c5.495,0.011,10.992-0.058,16.485,0.052c5.728,0.114,9.495,3.691,9.506,9.346
			c0.065,35.137,0.067,70.273-0.006,105.411c-0.012,5.352-3.813,8.968-9.201,9.144c-3.825,0.125-7.658,0.02-11.487,0.018
			C516.875,277.982,489.465,277.996,462.055,278.01z M501.774,239.143c13.155,0,26.312,0.03,39.467-0.012
			c7.393-0.024,10.788-3.326,10.809-10.579c0.048-16.819,0.052-33.639-0.002-50.458c-0.022-7.139-3.535-10.804-10.746-10.829
			c-26.312-0.093-52.623-0.103-78.934,0.006c-7.411,0.03-10.676,3.472-10.701,10.784c-0.058,16.819-0.055,33.639-0.002,50.458
			c0.024,7.508,3.142,10.593,10.642,10.618C475.463,239.176,488.619,239.144,501.774,239.143z"/>
		<path fill-rule="evenodd" clip-rule="evenodd" fill="#DBDCDB" d="M402.027,423.977c-25.616,0.026-51.232,0.11-76.847-0.005
			c-2.725-0.012-5.459,1.204-8.178,0.034c-4.252-3.923-5.092-8.841-5.064-14.45c0.174-35.319,0.071-70.641,0.121-105.961
			c0.018-12.506,5.148-13.95,13.53-13.733c16.316,0.422,32.651,0.114,48.979,0.13c7.112,0.006,10.403,3.234,10.453,10.178
			c0.071,9.818,0.071,9.818,10.111,9.833c8.881,0.013,11.864,3.039,11.87,12.047c0.003,5.664,0.001,11.329,0.002,16.993
			c0.003,5.604,0.006,11.208,0.009,16.813c0,6.753-0.001,13.506-0.002,20.259c-0.002,5.614-0.004,11.229-0.007,16.843
			c-0.001,6.816-0.229,13.644,0.077,20.446C407.288,418.018,405.832,421.463,402.027,423.977z M360.02,413.872
			c8.493,0,16.987,0.058,25.48-0.019c6.984-0.063,10.498-3.55,10.559-10.409c0.063-6.994,0.061-13.989,0-20.983
			c-0.06-6.891-3.539-10.365-10.556-10.389c-16.986-0.059-33.974-0.068-50.959,0.004c-6.798,0.029-10.369,3.723-10.442,10.596
			c-0.07,6.661-0.055,13.323-0.006,19.984c0.056,7.616,3.68,11.167,11.444,11.208C343.699,413.907,351.859,413.874,360.02,413.872z
			 M334.076,331.563c0,6.319-0.02,12.64,0.01,18.959c0.012,2.511,1.25,4.071,3.814,4.393c2.663,0.332,4.047-0.98,4.444-3.535
			c0.152-0.979,0.518-1.948,0.521-2.923c0.039-11.808,0.027-23.616,0.033-35.424c0.001-2.856-0.986-4.921-4.206-5.014
			c-3.457-0.101-4.645,1.938-4.633,5.084C334.083,319.257,334.066,325.41,334.076,331.563z M355.955,331.5
			c0,5.998,0.094,11.997-0.039,17.992c-0.068,3.059,0.497,5.49,4.128,5.361c3.227-0.114,3.951-2.419,3.942-5.241
			c-0.038-12.328-0.061-24.657,0.016-36.985c0.019-3.029-0.864-4.729-4.24-4.67c-3.211,0.057-3.854,1.845-3.825,4.551
			C356.003,318.838,355.958,325.17,355.955,331.5z M382.599,333.009c2.485-0.264,4.088-1.681,4.108-4.14
			c0.022-2.693-1.678-4.475-4.383-4.378c-2.668,0.095-4.332,1.887-4.124,4.626C378.387,331.582,380.057,332.888,382.599,333.009z
			 M386.686,348.917c-0.444-2.466-1.7-3.988-4.312-3.927c-2.585,0.061-4.1,1.545-4.05,4.027c0.05,2.476,1.64,3.924,4.198,3.902
			C385.128,352.898,386.304,351.271,386.686,348.917z"/>
		<path fill-rule="evenodd" clip-rule="evenodd" fill="#55676A" d="M462.055,278.01c27.41-0.014,54.82-0.027,82.23-0.041
			c0.024,28.526,0.056,57.053,0.055,85.579c0,1.143-0.292,2.284-0.449,3.426c-2.821-0.067-5.644-0.179-8.465-0.192
			c-6.521-0.031-6.524-0.012-6.525-6.292c-0.001-18.79,0.004-37.579-0.002-56.368c-0.004-10.293-2.802-13.144-12.891-13.146
			c-17.959-0.004-35.917-0.003-53.875-0.004C462.107,286.65,462.081,282.33,462.055,278.01z"/>
		<path fill-rule="evenodd" clip-rule="evenodd" fill="#DBDCDB" d="M816.037,423.948c-46.522,0.028-93.044,0.059-139.566,0.085
			c-3.488,0.002-6.978-0.018-10.467-0.027c0.17-3.136-0.646-6.397,1.189-9.321c2.561-2.106,5.509-2.278,8.603-1.721
			c5.106,0.009,10.212,0.019,15.316,0.028c33.294,0.002,66.588,0.005,99.882,0.008c6.281-0.011,12.563-0.017,18.846-0.033
			c4.035-0.012,6.159,1.929,6.188,6.021C816.041,420.642,816.034,422.295,816.037,423.948z"/>
		<path fill-rule="evenodd" clip-rule="evenodd" fill="#A9A9AA" d="M407.012,355.854c-0.003-5.604-0.006-11.208-0.009-16.813
			c10.331,0.009,20.662,0.018,30.992,0.026c-0.002,5.589-0.005,11.178-0.007,16.767
			C427.663,355.843,417.337,355.849,407.012,355.854z"/>
		<path fill-rule="evenodd" clip-rule="evenodd" fill="#55676A" d="M675.796,412.964c-3.094-0.558-6.042-0.386-8.603,1.721
			c0.04-7.866,0.08-15.732,0.12-23.599c2.851-0.021,5.701-0.041,8.552-0.062C676.522,398.34,676.628,405.653,675.796,412.964z"/>
		<path fill-rule="evenodd" clip-rule="evenodd" fill="#55676A" d="M465.215,134.838c-1.092-0.739-2.265-1.385-3.263-2.234
			c-3.514-2.994-3.853-7.76-0.859-11.062c2.968-3.272,8.002-3.375,11.116-0.228c3.178,3.214,2.854,8.471-0.751,11.467
			c-0.884,0.734-1.894,1.315-2.846,1.968C467.479,134.778,466.347,134.809,465.215,134.838z"/>
		<path fill-rule="evenodd" clip-rule="evenodd" fill="#55676A" d="M535.235,134.826c-1.096-0.733-2.271-1.371-3.271-2.217
			c-3.514-2.974-3.855-7.759-0.863-11.063c2.964-3.273,8.006-3.38,11.115-0.235c3.176,3.21,2.854,8.473-0.74,11.471
			c-0.882,0.734-1.881,1.328-2.826,1.987C537.513,134.788,536.374,134.808,535.235,134.826z"/>
		<path fill-rule="evenodd" clip-rule="evenodd" fill="#55676A" d="M830.252,391.048c1.769,0.508,3.937-0.521,5.342,1.388
			c1.922,10.438,2.926,20.945,2.349,31.57c-1.561,0.78-3.12,0.925-4.678-0.01C834.211,412.835,833.202,401.853,830.252,391.048z"/>
		<path fill-rule="evenodd" clip-rule="evenodd" fill="#A9A9AA" d="M535.235,134.826c1.139-0.019,2.277-0.038,3.415-0.057
			c0.113,6.409,0.226,12.819,0.338,19.229c-1.386,0.001-2.771,0.002-4.159,0.003C534.964,147.61,535.1,141.219,535.235,134.826z"/>
		<path fill-rule="evenodd" clip-rule="evenodd" fill="#A9A9AA" d="M465.215,134.838c1.132-0.029,2.265-0.06,3.396-0.089
			c0.12,6.416,0.24,12.833,0.359,19.249c-1.393,0.001-2.786,0.002-4.181,0.003C464.931,147.613,465.073,141.226,465.215,134.838z"/>
		<path fill-rule="evenodd" clip-rule="evenodd" fill="#55676A" d="M534.507,449.012c3.138-0.004,6.274-0.008,9.411-0.012
			c1.41,30.856,29.148,56.74,60.999,56.919c32.372,0.182,60.394-25.52,62.055-56.915c3.102,0.002,6.203,0.005,9.306,0.007
			c-2.719,35.46-31.099,64.083-65.376,65.937c-37.47,2.026-68.813-22.217-75.566-58.498
			C534.88,454.004,534.775,451.492,534.507,449.012z"/>
		<path fill-rule="evenodd" clip-rule="evenodd" fill="#DBDCDB" d="M909.351,549.041c-0.143,0.994-0.285,1.989-0.428,2.983
			c-4.655-0.008-9.311,0.026-13.964-0.035c-5.515-0.073-7.728-1.885-7.845-7.383c-0.228-10.635-0.185-21.279-0.022-31.916
			c0.075-4.943,3.185-7.597,8.523-7.64c9.476-0.076,18.952-0.065,28.427-0.006c5.873,0.036,8.696,2.486,8.834,8.399
			c0.24,10.301,0.186,20.614,0.021,30.918c-0.076,4.787-3.186,7.562-7.903,7.628c-3.657,0.052-7.314,0.015-10.972,0.018
			c-0.052-0.994-0.104-1.987-0.155-2.981c2.002-0.8,4.083-1.445,5.991-2.427c8.271-4.256,12.517-14.66,9.868-23.929
			c-2.361-8.261-12.021-15.166-20.448-14.617c-11.516,0.75-19.407,9.382-19.348,21.164
			C889.985,540.31,897.879,548.367,909.351,549.041z"/>
		<path fill-rule="evenodd" clip-rule="evenodd" fill="#FEFEFE" d="M666.972,449.004c-1.661,31.396-29.683,57.097-62.055,56.915
			c-31.851-0.179-59.589-26.063-60.999-56.919C584.936,449.001,625.953,449.002,666.972,449.004z"/>
		<path fill-rule="evenodd" clip-rule="evenodd" fill="#FEFEFE" d="M830.252,391.048c2.95,10.805,3.959,21.787,3.013,32.948
			c-5.743-0.016-11.485-0.031-17.229-0.048c-0.002-1.653,0.005-3.307-0.008-4.96c-0.029-4.093-2.153-6.033-6.188-6.021
			c-6.282,0.017-12.564,0.022-18.846,0.033c0.005-7.334,0.01-14.667,0.016-22.001C804.091,391.016,817.171,391.031,830.252,391.048z
			"/>
		<path fill-rule="evenodd" clip-rule="evenodd" fill="#FEFEFE" d="M402.027,423.977c3.805-2.514,5.261-5.959,5.053-10.574
			c-0.306-6.803-0.078-13.63-0.077-20.446c10.331-0.009,20.661-0.018,30.991-0.026c-0.002,5.492,0.325,11.011-0.095,16.472
			c-0.446,5.793,0.634,10.77,5.104,14.721C429.345,424.074,415.686,424.025,402.027,423.977z"/>
		<path fill-rule="evenodd" clip-rule="evenodd" fill="#A9A9AA" d="M909.351,549.041c-11.472-0.674-19.365-8.731-19.421-19.823
			c-0.06-11.782,7.832-20.414,19.348-21.164c8.427-0.549,18.087,6.356,20.448,14.617c2.648,9.269-1.598,19.673-9.868,23.929
			c-1.908,0.981-3.989,1.627-5.991,2.427C912.361,549.031,910.855,549.036,909.351,549.041z"/>
		<path fill-rule="evenodd" clip-rule="evenodd" fill="#A9A9AA" d="M787.158,333.693c-1.661,0.086-3.321,0.246-4.982,0.247
			c-51.164,0.013-102.328-0.053-153.492,0.117c-4.635,0.016-5.785-1.271-5.764-5.815c0.177-39.164,0.141-78.329,0.034-117.494
			c-0.01-3.52,0.653-4.952,4.61-4.942c52.497,0.132,104.995,0.091,157.492,0.101c0.664,0,1.327,0.104,1.99,0.158
			C787.084,248.607,787.121,291.15,787.158,333.693z M704.025,220.271c-19.982,0-39.967,0.077-59.948-0.069
			c-3.714-0.026-5.215,0.696-5.187,4.899c0.205,30.64,0.222,61.281,0.051,91.921c-0.023,4.197,1.468,4.903,5.185,4.893
			c39.8-0.109,79.6-0.124,119.399,0.015c4.242,0.015,5.357-1.431,5.343-5.48c-0.104-30.307-0.088-60.615,0.105-90.921
			c0.027-4.285-1.486-5.358-5.499-5.327C743.659,220.355,723.842,220.271,704.025,220.271z"/>
		<path fill-rule="evenodd" clip-rule="evenodd" fill="#D9DBDA" d="M787.158,333.693c-0.037-42.543-0.074-85.086-0.111-127.629
			c1.483-0.141,2.966-0.401,4.448-0.403c20.962-0.026,41.925,0.087,62.886-0.11c4.03-0.037,4.994,1.233,4.981,5.092
			c-0.128,39.429-0.12,78.857-0.01,118.286c0.011,3.688-0.665,5.196-4.84,5.141C832.063,333.766,809.609,333.785,787.158,333.693z
			 M823.172,320.965c6.328,0,12.659-0.073,18.986,0.036c2.601,0.045,3.997-0.539,3.97-3.561
			c-0.113-12.656-0.091-25.315-0.013-37.973c0.016-2.569-0.9-3.53-3.495-3.515c-12.99,0.08-25.982,0.098-38.973-0.014
			c-2.882-0.025-3.709,1.073-3.687,3.816c0.1,12.491,0.103,24.983-0.002,37.474c-0.023,2.786,0.883,3.847,3.727,3.782
			C810.178,320.863,816.676,320.965,823.172,320.965z M823.618,263.072c6.324,0,12.652-0.127,18.972,0.054
			c3.119,0.089,4.468-0.72,4.421-4.149c-0.171-12.313-0.139-24.631-0.016-36.945c0.03-2.979-0.848-4.101-3.961-4.068
			c-12.979,0.139-25.962,0.119-38.942,0.012c-2.877-0.024-4.188,0.654-4.148,3.866c0.15,12.48,0.148,24.965,0.002,37.445
			c-0.038,3.249,1.372,3.889,4.202,3.829C810.635,262.978,817.128,263.071,823.618,263.072z"/>
		<path fill-rule="evenodd" clip-rule="evenodd" fill="#A9A9AA" d="M791.01,390.999c-0.006,7.334-0.011,14.667-0.016,22.001
			c-33.294-0.003-66.588-0.006-99.883-0.008c-0.001-7.328-0.002-14.656-0.002-21.984
			C724.409,391.005,757.709,391.002,791.01,390.999z"/>
		<path fill-rule="evenodd" clip-rule="evenodd" fill="#FEFEFE" d="M691.109,391.008c0,7.328,0.001,14.656,0.002,21.984
			c-5.104-0.01-10.209-0.02-15.315-0.028c0.832-7.311,0.727-14.624,0.069-21.939C680.946,391.02,686.027,391.014,691.109,391.008z"
			/>
		<path fill-rule="evenodd" clip-rule="evenodd" fill="#55676A" d="M740.231,378.137c-5.05-0.218-9.618-4.928-9.221-9.509
			c0.407-4.697,5.497-9.034,10.454-8.905c5.521,0.143,9.228,4.231,8.909,9.827C750.063,375.036,746.101,378.39,740.231,378.137z"/>
		<path fill-rule="evenodd" clip-rule="evenodd" fill="#A9A9AA" d="M483.101,353.092c-7.659-0.002-15.318,0.053-22.976-0.021
			c-5.014-0.048-8.969-3.623-9.058-8.628c-0.186-10.485-0.168-20.979-0.014-31.466c0.077-5.232,3.772-8.83,9.469-8.897
			c15.315-0.183,30.635-0.176,45.951,0.003c5.219,0.062,9.275,4.61,9.402,10.425c0.212,9.651,0.236,19.316-0.006,28.967
			c-0.16,6.338-3.859,9.562-10.293,9.606C498.085,353.134,490.593,353.094,483.101,353.092z M460.256,315.946
			c1.193-0.078,2.366-0.604,2.557-2.178c0.19-1.567-0.706-2.473-2.216-2.691c-1.569-0.228-2.548,0.405-2.615,2.098
			C457.924,314.62,458.226,315.816,460.256,315.946z M508.891,313.354c-0.209-1.532-1.149-2.267-2.62-2.328
			c-1.649-0.068-2.368,0.849-2.235,2.418c0.124,1.481,0.948,2.452,2.482,2.416C508.037,315.824,508.813,314.865,508.891,313.354z
			 M462.863,344.717c0.017-1.688-0.884-2.521-2.401-2.687c-1.31-0.144-2.326,0.307-2.433,1.811
			c-0.105,1.492,0.433,2.688,2.019,2.957C461.638,347.068,462.508,346.144,462.863,344.717z M506.24,346.866
			c1.598-0.021,2.576-0.851,2.611-2.396c0.037-1.594-1.039-2.379-2.56-2.458c-1.364-0.071-2.238,0.547-2.259,2.018
			C504.012,345.553,504.695,346.551,506.24,346.866z"/>
		<path fill-rule="evenodd" clip-rule="evenodd" fill="#55676A" d="M500.364,397.104c-13.139-0.001-26.278,0.029-39.417-0.013
			c-6.516-0.021-10.699-3.644-10.788-9.174c-0.085-5.301,4.339-9.455,10.658-9.475c26.444-0.085,52.889-0.081,79.333-0.003
			c6.378,0.019,10.707,3.981,10.766,9.356c0.062,5.674-4.207,9.283-11.134,9.299C526.643,397.126,513.504,397.104,500.364,397.104z
			 M531.01,394.89c6.589,1.611,5.546-3.911,6.483-7.216c2.07-7.297,1.571-7.648-5.994-6.883c-1.918,0.194-2.497,1.015-2.833,2.643
			c-0.466,2.258-0.878,4.567-1.71,6.699C525.273,394.444,526.729,395.828,531.01,394.89z M482.171,394.613
			c9.782,1.024,9.782,1.024,11.766-7.272c1.639-6.854,1.642-6.729-5.293-6.556c-2.486,0.063-3.479,0.864-3.896,3.31
			C484.166,387.512,483.118,390.85,482.171,394.613z M466.571,394.615c0.488-0.287,3.017,1.57,3.76-0.896
			c1.191-3.954,2.576-7.911,2.651-12.116c0.004-0.221-0.729-0.519-1.157-0.671c-4.604-1.641-8.234,0.315-9.425,5.066
			c-0.323,1.291-0.496,2.634-0.954,3.874C459.976,393.85,460.666,396.017,466.571,394.615z M504.099,394.494
			c9.64,1.431,9.64,1.431,11.783-7.439c1.562-6.462,1.563-6.372-5.122-6.254c-2.294,0.041-3.658,0.414-4.094,3.056
			C506.076,387.439,504.981,390.939,504.099,394.494z"/>
		<path fill-rule="evenodd" clip-rule="evenodd" fill="#FEFEFE" d="M407.012,355.854c10.325-0.006,20.651-0.012,30.976-0.02
			c0,6.765,0,13.529,0,20.294c-10.326-0.006-20.652-0.011-30.979-0.016C407.011,369.36,407.012,362.607,407.012,355.854z"/>
		<path fill-rule="evenodd" clip-rule="evenodd" fill="#A9A9AA" d="M407.01,376.113c10.326,0.005,20.652,0.01,30.979,0.016
			c0.002,5.601,0.004,11.201,0.006,16.801c-10.331,0.009-20.661,0.018-30.992,0.026C407.006,387.342,407.008,381.728,407.01,376.113
			z"/>
		<path fill-rule="evenodd" clip-rule="evenodd" fill="#55676A" d="M548.29,406.338c-30.938,0-61.875,0-92.812,0
			c-0.004-0.271-0.008-0.541-0.012-0.812c30.957,0,61.914,0,92.871,0C548.321,405.797,548.306,406.067,548.29,406.338z"/>
		<path fill-rule="evenodd" clip-rule="evenodd" fill="#55676A" d="M548.32,412.735c-30.973,0-61.944,0-92.917,0
			c-0.003-0.279-0.007-0.56-0.011-0.839c30.954,0,61.908,0,92.862,0C548.277,412.176,548.299,412.456,548.32,412.735z"/>
		<path fill-rule="evenodd" clip-rule="evenodd" fill="#55676A" d="M501.774,239.143c-13.156,0.001-26.312,0.033-39.467-0.012
			c-7.5-0.025-10.618-3.11-10.642-10.618c-0.053-16.819-0.056-33.639,0.002-50.458c0.025-7.313,3.29-10.754,10.701-10.784
			c26.311-0.108,52.623-0.099,78.934-0.006c7.211,0.025,10.724,3.69,10.746,10.829c0.054,16.819,0.05,33.639,0.002,50.458
			c-0.021,7.253-3.416,10.555-10.809,10.579C528.086,239.173,514.93,239.143,501.774,239.143z"/>
		<path fill-rule="evenodd" clip-rule="evenodd" fill="#55676A" d="M360.02,413.873c-8.16,0.001-16.32,0.034-24.48-0.009
			c-7.764-0.041-11.388-3.592-11.444-11.208c-0.049-6.661-0.064-13.323,0.006-19.984c0.073-6.873,3.644-10.566,10.442-10.596
			c16.986-0.072,33.973-0.063,50.959-0.004c7.017,0.023,10.496,3.498,10.556,10.389c0.061,6.994,0.063,13.989,0,20.983
			c-0.062,6.859-3.575,10.347-10.559,10.409C377.007,413.93,368.513,413.872,360.02,413.873z M387.746,402.906
			c-0.006-0.32-0.013-0.641-0.02-0.962c-12.49,0-24.98,0-37.471,0c0.006,0.321,0.013,0.642,0.02,0.962
			C362.766,402.906,375.256,402.906,387.746,402.906z M350.37,382.271c0.005,0.272,0.011,0.546,0.017,0.818
			c12.395,0,24.789,0,37.184,0c-0.006-0.272-0.013-0.546-0.019-0.818C375.158,382.271,362.764,382.271,350.37,382.271z
			 M350.351,388.683c0.002,0.314,0.003,0.63,0.005,0.944c12.403,0,24.807,0,37.21,0c-0.002-0.314-0.004-0.63-0.005-0.944
			C375.158,388.683,362.754,388.683,350.351,388.683z M350.345,395.374c-0.001,0.332-0.002,0.665-0.003,0.997
			c12.418,0,24.836,0,37.254,0c0.003-0.332,0.006-0.665,0.008-0.997C375.184,395.374,362.764,395.374,350.345,395.374z
			 M338.361,396.796c-2.394,0.097-4.08,1.407-4.164,3.913c-0.092,2.748,1.561,4.335,4.373,4.313c2.653-0.021,4.02-1.778,4.063-4.152
			C342.679,398.379,341.08,396.958,338.361,396.796z M338.783,389.102c2.498-0.174,3.881-1.824,3.814-4.22
			c-0.066-2.397-1.531-4.052-4.181-3.982c-2.821,0.074-4.414,1.728-4.21,4.451C334.389,387.798,336.063,389.148,338.783,389.102z"/>
		<path fill-rule="evenodd" clip-rule="evenodd" fill="#A9A9AA" d="M334.071,331.563c-0.005-6.153,0.012-12.307-0.012-18.46
			c-0.012-3.146,1.176-5.185,4.633-5.084c3.22,0.093,4.208,2.157,4.206,5.014c-0.006,11.808,0.006,23.616-0.033,35.424
			c-0.003,0.975-0.369,1.944-0.521,2.923c-0.396,2.555-1.781,3.867-4.444,3.535c-2.564-0.321-3.802-1.882-3.814-4.393
			C334.056,344.203,334.076,337.883,334.071,331.563z"/>
		<path fill-rule="evenodd" clip-rule="evenodd" fill="#A9A9AA" d="M355.956,331.5c0.001-6.33,0.047-12.662-0.02-18.992
			c-0.029-2.706,0.613-4.494,3.825-4.551c3.376-0.06,4.259,1.641,4.24,4.67c-0.076,12.328-0.054,24.657-0.016,36.985
			c0.009,2.822-0.715,5.127-3.942,5.241c-3.631,0.129-4.196-2.303-4.128-5.361C356.048,343.497,355.955,337.498,355.956,331.5z"/>
		<path fill-rule="evenodd" clip-rule="evenodd" fill="#55676A" d="M382.599,333.009c-2.542-0.121-4.211-1.427-4.398-3.892
			c-0.208-2.739,1.456-4.531,4.124-4.626c2.705-0.097,4.405,1.685,4.383,4.378C386.687,331.328,385.083,332.745,382.599,333.009z"/>
		<path fill-rule="evenodd" clip-rule="evenodd" fill="#55676A" d="M386.686,348.917c-0.382,2.354-1.558,3.981-4.164,4.003
			c-2.559,0.021-4.148-1.427-4.198-3.902c-0.05-2.482,1.465-3.967,4.05-4.027C384.986,344.929,386.242,346.451,386.686,348.917z"/>
		<path fill-rule="evenodd" clip-rule="evenodd" fill="#55676A" d="M704.025,220.271c19.816,0,39.634,0.085,59.449-0.07
			c4.013-0.031,5.526,1.042,5.499,5.327c-0.193,30.306-0.209,60.614-0.105,90.921c0.015,4.05-1.101,5.495-5.343,5.48
			c-39.8-0.139-79.6-0.124-119.399-0.015c-3.717,0.011-5.208-0.695-5.185-4.893c0.171-30.64,0.154-61.281-0.051-91.921
			c-0.028-4.203,1.473-4.926,5.187-4.899C664.059,220.348,684.043,220.271,704.025,220.271z M703.495,319.133
			c19.163,0,38.327-0.077,57.488,0.068c3.615,0.026,5.223-0.511,5.182-4.774c-0.226-23.66-0.176-47.323-0.035-70.984
			c0.021-3.561-0.71-4.888-4.625-4.872c-38.325,0.149-76.651,0.147-114.977,0.005c-4.011-0.016-5.038,1.227-5.011,5.104
			c0.161,23.494,0.164,46.991-0.003,70.485c-0.028,3.89,1.008,5.1,4.993,5.058C665.502,319.021,684.499,319.133,703.495,319.133z
			 M703.953,223.134c-19.143,0-38.285-0.011-57.428,0.021c-1.444,0.003-3.682-0.687-4.168,0.728
			c-1.195,3.479-0.997,7.333-0.232,10.822c0.6,2.74,3.693,1.363,5.622,1.367c36.621,0.082,73.242,0.061,109.862,0.061
			c8.476,0,8.271-0.005,8.483-8.348c0.096-3.736-0.946-4.778-4.713-4.74C742.239,223.237,723.096,223.134,703.953,223.134z"/>
		<path fill-rule="evenodd" clip-rule="evenodd" fill="#A9A9AA" d="M823.172,320.965c-6.496,0-12.994-0.102-19.486,0.047
			c-2.844,0.064-3.75-0.996-3.727-3.782c0.104-12.49,0.102-24.982,0.002-37.474c-0.022-2.743,0.805-3.842,3.687-3.816
			c12.99,0.111,25.982,0.094,38.973,0.014c2.595-0.016,3.511,0.945,3.495,3.515c-0.078,12.657-0.101,25.316,0.013,37.973
			c0.027,3.021-1.369,3.605-3.97,3.561C835.831,320.892,829.5,320.965,823.172,320.965z M823.226,315.949
			c5.163,0,10.328-0.071,15.488,0.032c2.361,0.048,3.222-0.849,3.232-3.211c0.012-2.423-0.543-3.664-3.315-3.633
			c-10.324,0.113-20.651,0.106-30.977,0c-2.593-0.026-3.501,0.852-3.508,3.457c-0.007,2.683,1.085,3.454,3.592,3.395
			C812.898,315.867,818.063,315.953,823.226,315.949z M823.001,280.046c-5.331,0-10.661-0.01-15.992,0.006
			c-1.357,0.005-2.831,0.01-2.813,1.942c0.019,1.929,1.504,1.907,2.853,1.908c10.661,0.013,21.322,0.013,31.983-0.002
			c1.354-0.001,2.83-0.017,2.814-1.949c-0.017-1.941-1.513-1.893-2.854-1.897C833.662,280.035,828.331,280.046,823.001,280.046z
			 M814.735,292.854c0.627-3.897,0.105-6.415-4.913-6.125c-3.805,0.219-6.341,0.279-5.9,5.263c0.328,3.726-0.167,6.759,5.367,6.34
			C813.355,298.023,815.865,297.554,814.735,292.854z M823.504,305.086c5.15,0,10.301,0.024,15.45-0.02
			c1.076-0.01,2.604,0.349,2.768-1.304c0.169-1.721-1.317-1.629-2.443-1.631c-10.798-0.024-21.597-0.026-32.396-0.006
			c-1.119,0.003-2.63-0.13-2.538,1.558c0.09,1.634,1.61,1.381,2.712,1.388C812.539,305.104,818.021,305.086,823.504,305.086z
			 M841.898,292.869c0.514-3.607,0.484-6.253-4.696-6.19c-4.538,0.055-5.576,1.503-5.438,5.719c0.124,3.808,0.302,6.128,5.222,5.926
			C841.144,298.153,842.863,297.035,841.898,292.869z M818.084,292.122c-0.497,3.643-0.461,6.279,4.717,6.224
			c4.57-0.05,5.534-1.562,5.413-5.738c-0.11-3.816-0.308-6.111-5.22-5.91C818.826,286.868,817.133,288.005,818.084,292.122z"/>
		<path fill-rule="evenodd" clip-rule="evenodd" fill="#A9A9AA" d="M823.618,263.071c-6.49,0-12.983-0.094-19.471,0.044
			c-2.83,0.06-4.24-0.58-4.202-3.829c0.146-12.48,0.148-24.965-0.002-37.445c-0.039-3.212,1.271-3.891,4.148-3.866
			c12.98,0.107,25.963,0.127,38.942-0.012c3.113-0.032,3.991,1.089,3.961,4.068c-0.123,12.314-0.155,24.632,0.016,36.945
			c0.047,3.43-1.302,4.238-4.421,4.149C836.271,262.945,829.942,263.072,823.618,263.071z M814.912,242.057
			c1.165,0,2.33,0.011,3.495-0.002c8.672-0.095,7.613,0.989,7.648-7.774c0.05-12.22,0.014-12.251-12.196-12.211
			c-10.869,0.036-9.765-1.209-9.793,9.411C804.038,242.056,804.061,242.056,814.912,242.057z M842.092,231.983
			c0-10.308,0.004-10.204-8.48-9.936c-2.715,0.087-3.945,0.844-3.811,3.72c0.17,3.645,0.346,7.335-0.038,10.947
			c-0.481,4.536,1.288,5.701,5.601,5.492c6.712-0.327,6.725-0.065,6.729-6.736C842.093,234.309,842.092,233.146,842.092,231.983z
			 M830.905,259.02c2.48,0,4.97-0.124,7.439,0.033c2.706,0.173,3.877-0.714,3.814-3.617c-0.057-2.637-1.089-3.439-3.582-3.384
			c-5.289,0.116-10.586,0.141-15.873-0.011c-2.738-0.078-3.765,0.794-3.799,3.658c-0.037,3.201,1.645,3.436,4.063,3.344
			C825.61,258.943,828.26,259.021,830.905,259.02z M823.996,246.119c-5.819,0-11.639-0.015-17.458,0.015
			c-0.976,0.005-2.171,0.042-2.003,1.495c0.12,1.045,1.11,1.101,1.938,1.102c11.14,0.011,22.279,0.009,33.419,0
			c1.048-0.001,2.333-0.285,2.299-1.403c-0.055-1.739-1.696-1.187-2.733-1.198C834.305,246.074,829.15,246.104,823.996,246.119z
			 M810.104,259.121c2.165-0.699,5.678,1.534,5.769-3.177c0.097-5.005-3.477-3.797-6.198-3.815c-2.544-0.017-5.826-1.18-5.638,3.665
			C804.234,260.873,807.939,258.305,810.104,259.121z"/>
		<path fill-rule="evenodd" clip-rule="evenodd" fill="#D9DBDA" d="M460.256,315.946c-2.03-0.13-2.332-1.326-2.274-2.771
			c0.067-1.692,1.046-2.325,2.615-2.098c1.51,0.219,2.406,1.124,2.216,2.691C462.622,315.342,461.449,315.868,460.256,315.946z"/>
		<path fill-rule="evenodd" clip-rule="evenodd" fill="#D9DBDA" d="M508.891,313.354c-0.078,1.511-0.854,2.47-2.373,2.506
			c-1.534,0.036-2.358-0.935-2.482-2.416c-0.133-1.569,0.586-2.486,2.235-2.418C507.741,311.088,508.682,311.822,508.891,313.354z"
			/>
		<path fill-rule="evenodd" clip-rule="evenodd" fill="#D9DBDA" d="M462.863,344.717c-0.354,1.427-1.225,2.352-2.815,2.081
			c-1.585-0.27-2.124-1.465-2.019-2.957c0.106-1.504,1.123-1.954,2.433-1.811C461.979,342.195,462.88,343.028,462.863,344.717z"/>
		<path fill-rule="evenodd" clip-rule="evenodd" fill="#D9DBDA" d="M506.24,346.866c-1.545-0.315-2.229-1.313-2.207-2.837
			c0.021-1.471,0.895-2.089,2.259-2.018c1.521,0.079,2.597,0.864,2.56,2.458C508.816,346.016,507.838,346.845,506.24,346.866z"/>
		<path fill-rule="evenodd" clip-rule="evenodd" fill="#FEFEFE" d="M531.01,394.89c-4.281,0.938-5.736-0.445-4.054-4.757
			c0.832-2.132,1.244-4.441,1.71-6.699c0.336-1.628,0.915-2.448,2.833-2.643c7.565-0.766,8.064-0.414,5.994,6.883
			C536.556,390.979,537.599,396.501,531.01,394.89z"/>
		<path fill-rule="evenodd" clip-rule="evenodd" fill="#FEFEFE" d="M482.171,394.613c0.947-3.764,1.995-7.102,2.577-10.519
			c0.416-2.445,1.41-3.247,3.896-3.31c6.935-0.174,6.932-0.298,5.293,6.556C491.953,395.638,491.953,395.638,482.171,394.613z"/>
		<path fill-rule="evenodd" clip-rule="evenodd" fill="#FEFEFE" d="M466.571,394.615c-5.905,1.401-6.595-0.766-5.125-4.742
			c0.458-1.24,0.631-2.583,0.954-3.874c1.19-4.751,4.82-6.707,9.425-5.066c0.429,0.152,1.161,0.45,1.157,0.671
			c-0.075,4.205-1.459,8.162-2.651,12.116C469.588,396.186,467.059,394.328,466.571,394.615z"/>
		<path fill-rule="evenodd" clip-rule="evenodd" fill="#FEFEFE" d="M504.099,394.494c0.883-3.555,1.978-7.055,2.567-10.638
			c0.436-2.642,1.8-3.015,4.094-3.056c6.686-0.118,6.684-0.208,5.122,6.254C513.738,395.925,513.738,395.925,504.099,394.494z"/>
		<path fill-rule="evenodd" clip-rule="evenodd" fill="#D9DBDA" d="M387.746,402.906c-12.49,0-24.98,0-37.471,0
			c-0.006-0.32-0.013-0.641-0.02-0.962c12.49,0,24.98,0,37.471,0C387.733,402.266,387.74,402.586,387.746,402.906z"/>
		<path fill-rule="evenodd" clip-rule="evenodd" fill="#D9DBDA" d="M350.37,382.271c12.394,0,24.788,0,37.181,0
			c0.006,0.272,0.013,0.546,0.019,0.818c-12.395,0-24.789,0-37.184,0C350.381,382.817,350.375,382.544,350.37,382.271z"/>
		<path fill-rule="evenodd" clip-rule="evenodd" fill="#D9DBDA" d="M350.351,388.683c12.403,0,24.807,0,37.21,0
			c0.001,0.314,0.003,0.63,0.005,0.944c-12.403,0-24.807,0-37.21,0C350.354,389.313,350.353,388.997,350.351,388.683z"/>
		<path fill-rule="evenodd" clip-rule="evenodd" fill="#D9DBDA" d="M350.345,395.374c12.419,0,24.839,0,37.259,0
			c-0.002,0.332-0.005,0.665-0.008,0.997c-12.418,0-24.836,0-37.254,0C350.342,396.039,350.344,395.706,350.345,395.374z"/>
		<path fill-rule="evenodd" clip-rule="evenodd" fill="#D9DBDA" d="M338.361,396.796c2.718,0.162,4.318,1.583,4.272,4.074
			c-0.043,2.374-1.41,4.132-4.063,4.152c-2.812,0.021-4.465-1.565-4.373-4.313C334.282,398.203,335.967,396.893,338.361,396.796z"/>
		<path fill-rule="evenodd" clip-rule="evenodd" fill="#D9DBDA" d="M338.783,389.102c-2.72,0.047-4.395-1.304-4.577-3.751
			c-0.204-2.724,1.389-4.377,4.21-4.451c2.649-0.069,4.115,1.585,4.181,3.982C342.664,387.277,341.281,388.928,338.783,389.102z"/>
		<path fill-rule="evenodd" clip-rule="evenodd" fill="#D9DBDA" d="M703.495,319.133c-18.996,0-37.993-0.111-56.987,0.09
			c-3.985,0.042-5.021-1.168-4.993-5.058c0.167-23.494,0.164-46.991,0.003-70.485c-0.027-3.878,1-5.12,5.011-5.104
			c38.325,0.143,76.651,0.145,114.977-0.005c3.915-0.016,4.646,1.312,4.625,4.872c-0.141,23.661-0.19,47.324,0.035,70.984
			c0.041,4.264-1.566,4.801-5.182,4.774C741.822,319.056,722.658,319.133,703.495,319.133z M704.425,312.823
			c15.832,0,31.665-0.131,47.494,0.092c3.988,0.056,4.131-1.8,4.135-4.832c0.004-3.043-0.172-4.849-4.139-4.828
			c-31.496,0.155-62.994,0.142-94.49,0.011c-3.598-0.016-4.508,1.176-4.432,4.573c0.072,3.243,0.202,5.159,4.438,5.089
			C673.092,312.667,688.76,312.824,704.425,312.823z M703.378,297.437c4.45,0,8.108-0.09,11.761,0.031
			c2.498,0.083,3.61-0.741,3.562-3.413c-0.127-6.811-0.159-13.629,0.013-20.438c0.073-2.93-1.07-3.671-3.803-3.609
			c-6.81,0.154-13.63,0.185-20.438-0.012c-2.972-0.085-4.273,0.676-4.045,3.855c0.237,3.307-0.035,6.646,0.072,9.967
			c0.14,4.29-1.797,9.796,0.768,12.552C694.107,299.422,699.772,296.911,703.378,297.437z M744.351,270.063
			c-4.649,0-8.483,0.065-12.313-0.026c-2.094-0.051-2.999,0.673-2.973,2.873c0.085,7.163,0.084,14.329,0.007,21.492
			c-0.024,2.263,1.064,2.813,3.064,2.799c7.33-0.053,14.662-0.065,21.992,0.009c2.122,0.021,2.997-0.732,2.931-2.9
			c-0.109-3.495,0.106-7.003-0.058-10.494c-0.208-4.436,1.927-10.097-0.933-12.966C753.419,268.189,747.818,270.421,744.351,270.063
			z M665.243,297.188c1.271,0,1.769,0,2.267,0c12.494,0,12.557-0.001,12.461-12.672c-0.034-4.609,1.971-10.646-0.777-13.455
			c-2.999-3.066-9.116-0.881-13.861-0.929c-4.249-0.044-9.77-1.91-12.431,0.843c-2.636,2.727-0.821,8.215-0.777,12.478
			c0.046,4.418-1.992,10.169,0.903,12.905C655.88,299.052,661.579,296.851,665.243,297.188z M730.483,246.373
			c0.007,0.336,0.014,0.671,0.021,1.007c8.398,0,16.797,0,25.195,0c-0.01-0.336-0.019-0.671-0.028-1.007
			C747.274,246.373,738.879,246.373,730.483,246.373z M653.42,246.399c0.003,0.356,0.006,0.712,0.009,1.067
			c8.399,0,16.798,0,25.196,0c0-0.355-0.001-0.711-0.001-1.067C670.223,246.399,661.821,246.399,653.42,246.399z M755.666,263.706
			c-0.006-0.348-0.012-0.695-0.018-1.043c-8.396,0-16.791,0-25.187,0c0.009,0.348,0.018,0.695,0.026,1.043
			C738.881,263.706,747.273,263.706,755.666,263.706z M653.434,262.433c0.003,0.547,0.006,1.095,0.009,1.642
			c8.396-0.049,16.802,0.543,25.186-0.394c-0.002-0.416-0.005-0.832-0.007-1.248C670.226,262.433,661.829,262.433,653.434,262.433z
			 M730.492,254.409c0.002,0.529,0.004,1.058,0.007,1.587c8.393-0.037,16.795,0.606,25.176-0.334
			c-0.002-0.418-0.004-0.835-0.006-1.253C747.276,254.409,738.884,254.409,730.492,254.409z M653.436,254.414
			c0.002,0.541,0.004,1.083,0.006,1.625c8.396-0.052,16.8,0.526,25.185-0.389c-0.001-0.412-0.003-0.824-0.004-1.236
			C670.227,254.414,661.831,254.414,653.436,254.414z"/>
		<path fill-rule="evenodd" clip-rule="evenodd" fill="#D9DBDA" d="M703.953,223.134c19.143,0,38.286,0.104,57.427-0.089
			c3.767-0.038,4.809,1.004,4.713,4.74c-0.213,8.343-0.008,8.348-8.483,8.348c-36.62,0-73.241,0.021-109.862-0.061
			c-1.929-0.004-5.022,1.373-5.622-1.367c-0.765-3.489-0.963-7.344,0.232-10.822c0.486-1.414,2.724-0.725,4.168-0.728
			C665.668,223.123,684.811,223.134,703.953,223.134z M659.238,231.077c2.212-0.773,6.276,0.841,6.172-1.145
			c-0.158-3.021-3.946-1.251-6.106-1.419c-1.947-0.152-5.736-0.952-5.637,0.937C653.832,232.566,657.453,229.971,659.238,231.077z
			 M747.633,231.045c2.027-0.82,5.927,1.109,5.951-1.262c0.027-2.7-3.773-1.225-5.798-1.249c-2.002-0.023-5.606-1.486-5.749,1.363
			C741.938,231.882,745.671,230.341,747.633,231.045z M736.604,229.769c-3.739-1.988-7.731-1.29-11.654-1.082
			c-0.287,0.015-0.75,0.685-0.762,1.062c-0.023,0.788,0.636,1.111,1.339,1.094C729.214,230.749,732.961,231.373,736.604,229.769z"/>
		<path fill-rule="evenodd" clip-rule="evenodd" fill="#55676A" d="M823.226,315.951c-5.162,0.002-10.327-0.084-15.487,0.038
			c-2.507,0.06-3.599-0.712-3.592-3.395c0.007-2.605,0.915-3.483,3.508-3.457c10.325,0.106,20.652,0.113,30.977,0
			c2.772-0.031,3.327,1.21,3.315,3.633c-0.011,2.362-0.871,3.259-3.232,3.211C833.554,315.878,828.389,315.949,823.226,315.951z"/>
		<path fill-rule="evenodd" clip-rule="evenodd" fill="#D9DBDA" d="M823.001,280.046c5.33,0,10.661-0.011,15.991,0.008
			c1.341,0.005,2.837-0.044,2.854,1.897c0.016,1.933-1.46,1.948-2.814,1.949c-10.661,0.015-21.322,0.015-31.983,0.002
			c-1.349-0.001-2.834,0.021-2.853-1.908c-0.018-1.933,1.456-1.938,2.813-1.942C812.34,280.036,817.67,280.046,823.001,280.046z"/>
		<path fill-rule="evenodd" clip-rule="evenodd" fill="#55676A" d="M814.735,292.854c1.13,4.7-1.38,5.17-5.446,5.478
			c-5.534,0.419-5.039-2.614-5.367-6.34c-0.44-4.983,2.096-5.044,5.9-5.263C814.841,286.438,815.362,288.956,814.735,292.854z"/>
		<path fill-rule="evenodd" clip-rule="evenodd" fill="#55676A" d="M823.504,305.086c-5.482,0-10.965,0.019-16.447-0.015
			c-1.102-0.007-2.622,0.246-2.712-1.388c-0.092-1.688,1.419-1.555,2.538-1.558c10.799-0.021,21.598-0.019,32.396,0.006
			c1.126,0.002,2.612-0.09,2.443,1.631c-0.163,1.652-1.691,1.294-2.768,1.304C833.805,305.11,828.654,305.086,823.504,305.086z"/>
		<path fill-rule="evenodd" clip-rule="evenodd" fill="#55676A" d="M841.898,292.869c0.965,4.166-0.755,5.284-4.912,5.454
			c-4.92,0.202-5.098-2.118-5.222-5.926c-0.139-4.216,0.899-5.664,5.438-5.719C842.383,286.616,842.412,289.262,841.898,292.869z"/>
		<path fill-rule="evenodd" clip-rule="evenodd" fill="#55676A" d="M818.084,292.122c-0.951-4.117,0.742-5.254,4.91-5.425
			c4.912-0.201,5.109,2.094,5.22,5.91c0.121,4.177-0.843,5.688-5.413,5.738C817.623,298.401,817.587,295.765,818.084,292.122z"/>
		<path fill-rule="evenodd" clip-rule="evenodd" fill="#D9DBDA" d="M814.912,242.057c-10.852-0.001-10.874-0.001-10.846-10.576
			c0.028-10.62-1.076-9.375,9.793-9.411c12.21-0.04,12.246-0.009,12.196,12.211c-0.035,8.764,1.023,7.68-7.648,7.774
			C817.242,242.067,816.077,242.057,814.912,242.057z M819.092,230.847c-0.884,1.341-1.15,1.987-1.618,2.411
			c-1.765,1.598-1.858,7.912-6.317,2.256c-0.647-0.82-1.47,0.279-1.881,0.914c-0.781,1.205-2.251,2.169-1.982,3.793
			c0.174,1.048,1.351,0.693,2.1,0.699c4.906,0.037,9.813,0.02,15.529,0.02C822.851,237.354,821.166,234.437,819.092,230.847z"/>
		<path fill-rule="evenodd" clip-rule="evenodd" fill="#55676A" d="M842.092,231.983c0,1.162,0.001,2.325,0,3.487
			c-0.004,6.671-0.017,6.409-6.729,6.736c-4.313,0.209-6.082-0.956-5.601-5.492c0.384-3.612,0.208-7.303,0.038-10.947
			c-0.135-2.876,1.096-3.633,3.811-3.72C842.096,221.779,842.092,221.676,842.092,231.983z"/>
		<path fill-rule="evenodd" clip-rule="evenodd" fill="#55676A" d="M830.905,259.02c-2.646,0.001-5.295-0.076-7.937,0.023
			c-2.419,0.092-4.101-0.143-4.063-3.344c0.034-2.864,1.061-3.736,3.799-3.658c5.287,0.151,10.584,0.127,15.873,0.011
			c2.493-0.056,3.525,0.747,3.582,3.384c0.063,2.903-1.108,3.79-3.814,3.617C835.875,258.896,833.386,259.02,830.905,259.02z"/>
		<path fill-rule="evenodd" clip-rule="evenodd" fill="#55676A" d="M823.996,246.111c5.154-0.007,10.309-0.037,15.462,0.018
			c1.037,0.012,2.679-0.541,2.733,1.198c0.034,1.118-1.251,1.402-2.299,1.403c-11.14,0.009-22.279,0.011-33.419,0
			c-0.828-0.001-1.818-0.057-1.938-1.102c-0.168-1.453,1.027-1.49,2.003-1.495C812.357,246.104,818.177,246.119,823.996,246.111z"/>
		<path fill-rule="evenodd" clip-rule="evenodd" fill="#55676A" d="M810.104,259.121c-2.165-0.816-5.87,1.752-6.067-3.327
			c-0.188-4.845,3.094-3.682,5.638-3.665c2.722,0.019,6.295-1.189,6.198,3.815C815.782,260.655,812.27,258.422,810.104,259.121z"/>
		<path fill-rule="evenodd" clip-rule="evenodd" fill="#55676A" d="M704.425,312.823c-15.665,0.001-31.333-0.156-46.993,0.104
			c-4.236,0.07-4.366-1.846-4.438-5.089c-0.076-3.397,0.834-4.589,4.432-4.573c31.496,0.131,62.994,0.145,94.49-0.011
			c3.967-0.021,4.143,1.785,4.139,4.828c-0.004,3.032-0.146,4.888-4.135,4.832C736.09,312.692,720.257,312.823,704.425,312.823z"/>
		<path fill-rule="evenodd" clip-rule="evenodd" fill="#55676A" d="M703.378,297.437c-3.605-0.525-9.271,1.985-12.11-1.067
			c-2.564-2.756-0.628-8.262-0.768-12.552c-0.107-3.32,0.165-6.66-0.072-9.967c-0.229-3.18,1.073-3.94,4.045-3.855
			c6.808,0.196,13.628,0.166,20.438,0.012c2.732-0.062,3.876,0.68,3.803,3.609c-0.172,6.81-0.14,13.628-0.013,20.438
			c0.049,2.672-1.063,3.496-3.562,3.413C711.486,297.347,707.828,297.437,703.378,297.437z M704.684,295.022
			c0.166,0,0.332,0,0.498,0c10.951,0,10.951,0,10.951-10.723c0-11.778,0-11.778-12.514-11.778c-10.676,0-10.677,0-10.676,10.6
			C692.943,295.022,692.943,295.022,704.684,295.022z"/>
		<path fill-rule="evenodd" clip-rule="evenodd" fill="#55676A" d="M744.351,270.063c3.468,0.358,9.068-1.873,11.718,0.786
			c2.859,2.869,0.725,8.53,0.933,12.966c0.164,3.491-0.052,6.999,0.058,10.494c0.066,2.168-0.809,2.922-2.931,2.9
			c-7.33-0.074-14.662-0.062-21.992-0.009c-2,0.015-3.089-0.536-3.064-2.799c0.077-7.163,0.078-14.329-0.007-21.492
			c-0.026-2.2,0.879-2.924,2.973-2.873C735.867,270.128,739.701,270.063,744.351,270.063z M742.813,295.022c0.665,0,1.331,0,1.996,0
			c10.087,0,10.087,0,10.087-10.162c0-12.622,0-12.622-12.671-12.622c-10.93,0-10.93,0-10.93,11.021
			C731.295,295.022,731.295,295.022,742.813,295.022z"/>
		<path fill-rule="evenodd" clip-rule="evenodd" fill="#55676A" d="M665.243,297.188c-3.664-0.337-9.363,1.864-12.216-0.83
			c-2.896-2.736-0.857-8.487-0.903-12.905c-0.044-4.263-1.858-9.751,0.777-12.478c2.661-2.753,8.182-0.887,12.431-0.843
			c4.745,0.048,10.862-2.138,13.861,0.929c2.748,2.81,0.743,8.846,0.777,13.455c0.096,12.671,0.033,12.672-12.461,12.672
			C667.012,297.188,666.514,297.188,665.243,297.188z M666.44,272.238c-0.497,0-0.995,0-1.493,0c-10.759,0-10.759,0-10.759,11
			c0,11.784,0,11.784,11.921,11.784c11.746,0,11.746,0,11.746-11.45C677.855,272.239,677.855,272.239,666.44,272.238z"/>
		<path fill-rule="evenodd" clip-rule="evenodd" fill="#55676A" d="M730.483,246.373c8.396,0,16.791,0,25.188,0
			c0.01,0.336,0.019,0.671,0.028,1.007c-8.398,0-16.797,0-25.195,0C730.497,247.044,730.49,246.709,730.483,246.373z"/>
		<path fill-rule="evenodd" clip-rule="evenodd" fill="#55676A" d="M653.42,246.399c8.401,0,16.803,0,25.204,0
			c0,0.356,0.001,0.712,0.001,1.067c-8.398,0-16.797,0-25.196,0C653.426,247.111,653.423,246.756,653.42,246.399z"/>
		<path fill-rule="evenodd" clip-rule="evenodd" fill="#55676A" d="M755.666,263.706c-8.393,0-16.785,0-25.178,0
			c-0.009-0.348-0.018-0.695-0.026-1.043c8.396,0,16.791,0,25.187,0C755.654,263.011,755.66,263.358,755.666,263.706z"/>
		<path fill-rule="evenodd" clip-rule="evenodd" fill="#55676A" d="M653.434,262.433c8.396,0,16.792,0,25.188,0
			c0.002,0.416,0.005,0.832,0.007,1.248c-8.384,0.937-16.789,0.345-25.186,0.394C653.439,263.527,653.437,262.979,653.434,262.433z"
			/>
		<path fill-rule="evenodd" clip-rule="evenodd" fill="#55676A" d="M730.492,254.409c8.392,0,16.784,0,25.177,0
			c0.002,0.418,0.004,0.835,0.006,1.253c-8.381,0.94-16.783,0.297-25.176,0.334C730.496,255.467,730.494,254.938,730.492,254.409z"
			/>
		<path fill-rule="evenodd" clip-rule="evenodd" fill="#55676A" d="M653.436,254.414c8.396,0,16.791,0,25.187,0
			c0.001,0.412,0.003,0.824,0.004,1.236c-8.385,0.915-16.788,0.337-25.185,0.389C653.439,255.497,653.438,254.955,653.436,254.414z"
			/>
		<path fill-rule="evenodd" clip-rule="evenodd" fill="#55676A" d="M659.238,231.077c-1.785-1.106-5.406,1.489-5.571-1.627
			c-0.1-1.889,3.689-1.089,5.637-0.937c2.16,0.168,5.948-1.603,6.106,1.419C665.515,231.918,661.45,230.304,659.238,231.077z"/>
		<path fill-rule="evenodd" clip-rule="evenodd" fill="#55676A" d="M747.633,231.045c-1.962-0.704-5.694,0.837-5.596-1.147
			c0.143-2.85,3.747-1.387,5.749-1.363c2.024,0.024,5.825-1.451,5.798,1.249C753.56,232.154,749.66,230.225,747.633,231.045z"/>
		<path fill-rule="evenodd" clip-rule="evenodd" fill="#55676A" d="M736.604,229.769c-3.644,1.604-7.391,0.98-11.077,1.073
			c-0.703,0.018-1.362-0.306-1.339-1.094c0.012-0.377,0.475-1.047,0.762-1.062C728.873,228.479,732.865,227.78,736.604,229.769z"/>
		<path fill-rule="evenodd" clip-rule="evenodd" fill="#55676A" d="M819.092,230.847c2.074,3.59,3.759,6.508,5.83,10.093
			c-5.717,0-10.623,0.018-15.529-0.02c-0.749-0.006-1.926,0.349-2.1-0.699c-0.269-1.624,1.201-2.588,1.982-3.793
			c0.411-0.635,1.233-1.734,1.881-0.914c4.459,5.656,4.553-0.658,6.317-2.256C817.941,232.834,818.208,232.188,819.092,230.847z"/>
		<path fill-rule="evenodd" clip-rule="evenodd" fill="#D9DBDA" d="M704.684,295.022c-11.74,0-11.74,0-11.74-11.901
			c-0.001-10.6,0-10.6,10.676-10.6c12.514,0,12.514,0,12.514,11.778c0,10.723,0,10.723-10.951,10.723
			C705.016,295.022,704.85,295.022,704.684,295.022z"/>
		<path fill-rule="evenodd" clip-rule="evenodd" fill="#D9DBDA" d="M742.813,295.022c-11.518,0-11.518,0-11.518-11.763
			c0-11.021,0-11.021,10.93-11.021c12.671,0,12.671,0,12.671,12.622c0,10.162,0,10.162-10.087,10.162
			C744.144,295.022,743.478,295.022,742.813,295.022z"/>
		<path fill-rule="evenodd" clip-rule="evenodd" fill="#D9DBDA" d="M666.44,272.238c11.415,0.001,11.415,0.001,11.415,11.334
			c0,11.45,0,11.45-11.746,11.45c-11.921,0-11.921,0-11.921-11.784c0-11,0-11,10.759-11
			C665.445,272.238,665.943,272.238,666.44,272.238z"/>
	</g>
</g>
<g id="Man_Illustration_copy_xA0_Image_1_">
	<g>
		<path fill-rule="evenodd" clip-rule="evenodd" fill="#523522" d="M109,187c7.667,0,15.333,0,23,0
			c19.306,3.545,36.611,13.228,55.491,18.081c6.969,1.792,14.054,2.762,21.241,2.44c14.243-0.638,26.016-5.969,34.254-20.069
			c-0.215,3.601-0.268,5.546-0.456,7.479c-2.951,30.41-15.626,55.01-42.535,71.089c-11.272,5.502-23.018,9.439-35.516,11.039
			c-21.709,2.778-43.209,1.09-64.528-3.234c-3.866-0.784-4.966,0.18-6.164,3.647c-8.763,25.366-19.016,50.057-34.586,72.164
			c-6.372,9.047-13.625,17.248-23.34,22.912c-2.334-5.362-3.061-11.144-4.272-16.785c-6.296-29.303-11.156-58.806-10.457-88.908
			c0.317-13.653,1.816-27.235,7.81-39.804c5.352-11.223,13.402-15.585,25.781-14.285c2.801,0.295,5.695,0.499,8.328,1.391
			c2.891,0.979,4.324,0.209,6.094-2.176c8.846-11.919,20.644-19.495,35.055-23.077C105.839,188.496,107.887,188.836,109,187z"/>
		<path fill-rule="evenodd" clip-rule="evenodd" fill="#FCDDBD" d="M234.987,403.994c3.7,2.54,7.356,5.213,11.633,6.685
			c7.999,2.751,15.44-0.457,20.444-8.899c6.745-11.382,11.215-23.699,13.823-36.615c2.984-14.779,4.325-29.769,5.245-44.828
			c0.878-14.361,2.533-28.675,3.906-43.004c0.167-1.749,0.272-4.159,2.701-3.963c1.884,0.153,2.132,2.316,2.206,3.988
			c0.102,2.325,0.051,4.658,0.052,6.988c0.005,7.67-0.027,7.792,7.125,9.579c3.266,0.816,6.044,2.448,8.878,4.075c0,2,0,4,0,6
			c-0.999,6.479-1.939,12.966-3.007,19.433c-4.886,29.604-9.723,59.219-23.822,86.287c-3.666,7.039-8.457,13.186-14.731,17.973
			c-13.594,10.374-28.201,7.568-40.619-2.413c-2.05-1.647-3.907-3.536-5.854-5.313C226.116,413.997,231.048,409.369,234.987,403.994
			z"/>
		<path fill-rule="evenodd" clip-rule="evenodd" fill="#56686B" d="M70,562c-2.808-2.292-6.453-2.124-9.671-3.201
			c-3.013-1.007-4.566-2.337-4.786-5.826c-1.01-16.086-2.325-32.153-3.551-48.226c-0.215-2.814-0.526-5.622-0.793-8.433
			c1.594-0.74,3.281-0.472,4.928-0.378c11.131,0.628,22.252,1.657,33.391,1.884c38.282,0.778,76.529,0.572,114.359-6.614
			c-0.695,17.225-1.455,34.446-2.98,51.927c3.814-1.29,7.029-2.618,10.366-3.454c6.638-1.664,11.845,0.547,15.426,6.21
			c3.249,5.137,1.603,9.376-4.358,10.969c-4.228,1.129-8.583,1.176-12.901,0.879c-4.971-0.343-9.915-1.307-14.882-1.41
			c-4.236-0.088-4.639-2.152-4.594-5.651c0.191-14.813,0.063-29.629,0.213-44.442c0.035-3.445-0.637-4.285-4.453-3.704
			c-31.565,4.799-63.291,5.311-95.087,2.782c-6.467-0.514-12.933-1.042-19.395-1.613c-1.708-0.15-3.389-0.563-3.565,2.014
			c-0.957,14.023-1.944,28.045-2.975,42.838c4.604-2.147,7.913-4.672,11.926-5.791c8.364-2.334,14.956,1.8,16.557,10.352
			c1.116,5.964-3.485,6.981-7.173,8.891C80.667,562,75.333,562,70,562z"/>
		<path fill-rule="evenodd" clip-rule="evenodd" fill="#FCDDBD" d="M32.073,408.036c-8.225,10.95-11.847,23.399-13.224,36.941
			c-2.535,24.93,2.12,48.832,9.26,72.418c1.369,4.522,0.099,5.876-3.991,6.634c-13.859,2.568-10.362,4.4-14.688-8.441
			c-3.918-11.63-5.905-23.754-7.407-35.932C1.899,478.665,1.98,477.642,1,477c0-10.333,0-20.667,0-31
			c0.995-6.141,1.907-12.296,3.004-18.419c2.042-11.405,6.077-22.011,12.908-31.472c0.886-1.227,1.718-2.439,3.074-3.182
			C25.309,396.93,29.028,402.214,32.073,408.036z"/>
		<path fill-rule="evenodd" clip-rule="evenodd" fill="#DBDCDB" d="M32.073,408.036c-3.045-5.822-6.764-11.106-12.086-15.108
			c3.141-4.145,6.792-7.814,11.484-10.07c3.501-1.684,5.117-3.994,4.52-7.82c8.713,0.768,17.354,2.188,26.014,3.322
			c13.449,1.764,26.94,2.958,40.443,3.491c15.766,0.622,31.583,0.455,47.362,0.032c9.548-0.257,19.072-1.585,28.596-2.545
			c11.684-1.179,23.119-3.759,34.548-6.349c-0.4,4.617,0.688,8.313,4.145,12.005c5.944,6.347,11.419,13.136,17.889,19.001
			c-3.939,5.374-8.872,10.002-12.019,15.972c-2.926-2.42-5.845-4.847-8.782-7.253c-0.723-0.593-1.325-1.684-2.488-1.082
			c-0.871,0.45-0.624,1.435-0.683,2.229c-1.015,13.66-1.841,27.338-3.087,40.977c-1.11,12.145-2.683,24.247-4.052,36.369
			c-37.83,7.187-76.077,7.393-114.359,6.614c-11.138-0.227-22.26-1.256-33.391-1.884c-1.647-0.094-3.333-0.362-4.928,0.378
			c-2.64-16.659-5.443-33.295-7.864-49.986c-1.709-11.785-2.889-23.646-4.33-35.472c-0.252-2.068,1.046-4.996-1.182-5.989
			C35.352,403.767,34.116,407.104,32.073,408.036z"/>
		<path fill-rule="evenodd" clip-rule="evenodd" fill="#FBDBBC" d="M212.953,372.989c-11.429,2.59-22.864,5.17-34.548,6.349
			c-9.523,0.96-19.047,2.288-28.596,2.545c-15.779,0.423-31.596,0.59-47.362-0.032c-13.502-0.533-26.994-1.728-40.443-3.491
			c-8.66-1.135-17.301-2.555-26.014-3.322c-0.043-0.829-0.086-1.659-0.129-2.488c9.715-5.664,16.968-13.865,23.34-22.912
			c15.57-22.107,25.823-46.798,34.586-72.164c1.198-3.468,2.298-4.432,6.164-3.647c21.319,4.324,42.819,6.013,64.528,3.234
			c12.498-1.6,24.244-5.537,35.516-11.039c6.536,9.273,8.191,20.128,10.005,30.928C214.236,322.168,212.905,347.605,212.953,372.989
			z M151.809,333.558c-6.12,0.235-13.246,0.17-20.247,2.174c-3.357,0.961-3.69,2.395-2.551,5.329
			c3.137,8.087,8.544,13.68,17.341,14.593c9.222,0.957,18.001-0.623,24.534-8.135c2.235-2.57,3.188-5.753,3.293-9.216
			c0.066-2.188-0.47-3.154-2.933-3.479C165.12,334.015,158.967,333.978,151.809,333.558z M185.763,308.155
			c-0.07-4.717-2.802-8.435-6.097-8.296c-3.251,0.137-5.714,3.951-5.621,8.705c0.093,4.736,2.832,8.54,6.039,8.385
			C183.193,316.799,185.831,312.716,185.763,308.155z M125.064,310.734c-0.025-5.434-2.472-8.973-5.823-8.905
			c-3.258,0.065-5.85,3.899-5.742,8.595c0.023,0.984,0.193,1.986,0.448,2.94c0.765,2.868,2.085,5.557,5.461,5.493
			c3.349-0.063,4.585-2.855,5.402-5.652C125.084,312.271,125.019,311.239,125.064,310.734z"/>
		<path fill-rule="evenodd" clip-rule="evenodd" fill="#523522" d="M151.809,333.558c7.158,0.42,13.312,0.457,19.438,1.267
			c2.462,0.324,2.999,1.291,2.933,3.479c-0.105,3.463-1.059,6.646-3.293,9.216c-6.532,7.512-15.312,9.092-24.534,8.135
			c-8.797-0.913-14.204-6.506-17.341-14.593c-1.139-2.935-0.806-4.368,2.551-5.329C138.563,333.728,145.688,333.793,151.809,333.558
			z"/>
		<path fill-rule="evenodd" clip-rule="evenodd" fill="#523522" d="M185.763,308.155c0.068,4.561-2.57,8.644-5.68,8.794
			c-3.207,0.155-5.946-3.648-6.039-8.385c-0.093-4.754,2.37-8.568,5.621-8.705C182.96,299.721,185.693,303.438,185.763,308.155z"/>
		<path fill-rule="evenodd" clip-rule="evenodd" fill="#523522" d="M125.064,310.734c-0.046,0.505,0.02,1.537-0.253,2.471
			c-0.817,2.797-2.053,5.589-5.402,5.652c-3.376,0.063-4.696-2.625-5.461-5.493c-0.254-0.954-0.425-1.956-0.448-2.94
			c-0.108-4.695,2.484-8.529,5.742-8.595C122.593,301.762,125.039,305.301,125.064,310.734z"/>
	</g>
</g>
<g id="Bulb_xA0_Image_1_">
	<g>
		<path fill-rule="evenodd" clip-rule="evenodd" fill="#F0E50D" d="M93,42c2.667,0,5.333,0,8,0
			c7.911,1.036,15.167,2.821,21.093,9.218c5.563,6.006,8.228,12.551,8.434,20.465c0.046,1.771-0.547,3.626,0.473,5.317
			c0,1.667,0,3.333,0,5c-0.682,7.708-3.022,14.625-7.711,21.05c-3.408,4.669-4.414,10.695-5.204,16.496
			c-0.349,2.562-1.194,4.811-3.253,6.497c-0.836,0.448-1.726,0.521-2.65,0.422c-4.201,0.013-4.688-2.758-4.685-6.06
			c0.011-14.103,0.009-28.206,0.005-42.301c0.016-1.396-0.027-2.802,0.105-4.193c2.374-2.877,1.457-5.665-0.325-8.369
			c-0.999-1.516-1.941-0.488-2.837,0.224c-1.085,1.117-1.645,2.531-2.232,3.93c-1.153,4.838-3.796,3.065-6.4,1.481
			c-0.761,0.257-1.472,0.623-2.228,0.893c-0.656,0.205-1.317,0.237-1.993,0.128c-1.415-0.271-2.353-1.253-3.129-2.32
			c-1.559-2.143-4.104-4.346-5.975-2.55c-1.533,1.472-4.812,3.524-2.651,7.489c1.731,3.178,0.074,7.113,0.121,10.706
			c0.053,4.054,0.02,8.292,4.37,10.655c4.1,9.528,6.87,19.493,9.723,29.439c-1.338,3.915-4.175,4.465-7.713,3.45
			c-3.528-2.301-3.924-6.441-5.515-9.82c-2.664-5.656-5.911-10.771-10.763-14.77c-6.972-5.745-9.358-13.45-9.582-22.123
			C60.441,80.902,60.964,79.359,60,78c0-1.667,0-3.333,0-5c1.061-8.319,2.863-16.074,9.496-22.295
			c5.715-5.359,11.955-8.177,19.646-8.228C90.429,42.47,91.811,42.916,93,42z"/>
		<path fill-rule="evenodd" clip-rule="evenodd" fill="#526568" d="M115.273,124.789c1.917,0.272,2.861,1.305,2.997,3.31
			c0.192,2.852,0.536,5.697,0.945,8.526c0.295,2.038-0.571,3.544-2.427,3.629c-3.764,0.173-6.535,1.431-8.222,4.981
			c-0.84,1.769-3.212,1.543-4.566,2.765c-1.667,0-3.333,0-5,0c-3.063-2.743-5.651-6.511-10.769-4.646
			c-0.578,0.21-1.644-0.327-2.225-0.821c-1.854-1.58-1.596-12.664,0.254-14.683c2.335-0.671,5.768,1.223,6.651-2.844
			c0.369-0.396,0.82-0.634,1.351-0.723c4.498,0.985,9.121-1.599,13.585,0.459c1.64,0.871,3.344,1.027,5.113,0.449
			C113.731,125.058,114.502,124.924,115.273,124.789z"/>
		<path fill-rule="evenodd" clip-rule="evenodd" fill="#F0E50D" d="M107.768,125.867c-3.118,0.278-6.239,0.524-9.352,0.85
			c-1.809,0.188-3.703,0.768-4.491-1.688c-3.782-7.539-5.811-15.712-8.24-23.71c-1.062-3.497-3.289-6.437-3.99-10.006
			c-1.466-5.582-1.811-11.297-1.995-17.037c-0.087-2.725,0.735-4.996,3.411-5.926c2.62-0.91,3.76,1.256,5.059,2.98
			c1.509,2.005,2.421,4.291,3.396,6.305c-0.079-2.277-0.484-4.957,2.368-6.475c0.278-0.703,0.556-1.406,0.834-2.108
			c3.124,0.989,3.216,1.121,5.246,7.49c-0.482-2.813,1.023-5.14,1.474-7.688c0.688-1.432,0.899-3.428,3.058-3.318
			c2.24,0.113,2.778,2.045,3.337,3.764c0.928,2.855-0.412,5.887,0.609,8.754c0.02,14.37,0.027,28.735-0.026,43.1
			C108.459,122.723,109.127,124.469,107.768,125.867z"/>
		<path fill-rule="evenodd" clip-rule="evenodd" fill="#F0E50D" d="M83.324,96.919c-5.21-1.105-4.323-5.905-4.946-9.218
			c-0.942-5.004,1.157-10.169-0.886-15.472c-0.76-1.974,2.062-5.584,4.663-6.777c2.234-1.024,4.906,0.183,6.594,2.276
			c1.047,1.299,1.968,2.663,3.535,3.393c0.778,2.101,0.066,4.048-0.066,6.264c-3.345-1.084-3.388-4.055-4.899-5.886
			c-1.028-1.245-1.628-3.199-3.613-2.818c-2.273,0.436-2.965,2.453-3.165,4.498c-0.585,5.987,0.613,11.788,2.011,17.558
			C83.053,92.767,84.271,94.708,83.324,96.919z"/>
		<path fill-rule="evenodd" clip-rule="evenodd" fill="#68775B" d="M82.095,90.982c-1.819-5.725-2.839-11.558-2.25-17.585
			c0.228-2.333,0.498-4.878,3.333-5.441c2.592-0.514,3.743,1.623,4.882,3.46c0.943,1.521,1.824,3.082,3.295,5.582
			c0.407-2.574,0.667-4.226,0.928-5.877c0.55,0.013,1.1,0.025,1.65,0.039c-1.37,4.815-1.049,9.69-0.734,14.771
			c-1.807-3.207-2.314-6.913-4.273-9.948c-1.563-2.421-2.448-7.048-5.319-6.346c-3.649,0.893-2.708,5.529-2.454,8.654
			c0.345,4.253,1.357,8.451,2.083,12.672C82.861,91.31,82.48,91.301,82.095,90.982z"/>
		<path fill-rule="evenodd" clip-rule="evenodd" fill="#7A8551" d="M82.095,90.982c0.38-0.006,0.761-0.012,1.142-0.019
			c3.563,11.354,7.125,22.71,10.688,34.064c-0.337-0.007-0.675-0.015-1.013-0.021c-4.209-9.017-6.208-18.788-9.589-28.088
			C82.914,94.94,82.504,92.962,82.095,90.982z"/>
		<path fill-rule="evenodd" clip-rule="evenodd" fill="#5A6C63" d="M107.768,125.867c0.042-16.284,0.085-32.568,0.127-48.853
			c0.309-0.318,0.614-0.299,0.916,0.01c0.868,14.464,0.274,28.943,0.435,43.414c0.028,2.588-0.188,5.249,3.716,4.754
			C111.351,126.348,109.542,125.979,107.768,125.867z"/>
		<path fill-rule="evenodd" clip-rule="evenodd" fill="#768253" d="M101.796,69.94c-0.873,4.517-1.173,9.054,0.432,14.39
			c-3.258-1.575-2.813-3.642-3.184-5.442c-0.73-3.553-0.294-7.676-4.274-9.836c-0.312-1.751,0.487-2.402,1.802-1.253
			c1.196,1.045,1.937,2.61,2.97,4.075c0.419-0.949,0.882-1.999,1.346-3.049C101.541,68.911,101.547,69.525,101.796,69.94z"/>
		<path fill-rule="evenodd" clip-rule="evenodd" fill="#F0E50D" d="M102.993,64.781c1.368-1.755,2.805-3.566,5.137-1.381
			c2.557,2.396,2.915,7.433,0.823,9.601c-1.386-0.466-1.43-1.732-1.607-2.847C106.923,67.504,105.436,65.769,102.993,64.781z"/>
		<path fill-rule="evenodd" clip-rule="evenodd" fill="#6A785A" d="M102.993,64.781c5.642,0.09,4.191,5.322,5.96,8.22
			c-0.048,1.342-0.095,2.683-0.143,4.023l-0.458,0.008l-0.458-0.017c-0.423-2.249-0.677-4.549-1.33-6.729
			c-0.432-1.443-0.444-3.756-2.47-3.757c-1.66-0.001-1.834,2.038-2.299,3.411c-0.303-0.372-0.606-0.743-0.909-1.115
			C100.788,67.06,101.919,65.936,102.993,64.781z"/>
	</g>
</g>
<g id="Bulb_Sparks_xA0_Image_1_">
	<path fill-rule="evenodd" clip-rule="evenodd" fill="#FEFEFD" d="M57.185,29.783c1.775,0.165,3.275,0.021,4.068-1.535
		c0.901-1.767,0.172-3.276-1.28-4.315c-2.673-1.913-5.461-3.665-8.184-5.511c-1.324-0.897-2.559-2.505-4.303-0.997
		c-1.603,1.386-1.453,3.271-0.665,5.017C48.87,26.977,53.14,28.398,57.185,29.783z M133.3,31.669
		c0.388-0.111,0.713-0.182,1.022-0.297c2.562-0.954,10.403-11.965,10.511-14.782c0.038-0.996,0.104-2.088-0.945-2.642
		c-1.218-0.644-2.371-0.066-3.175,0.757c-3.858,3.947-6.838,8.555-9.328,13.438C130.595,29.694,130.886,31.509,133.3,31.669z
		 M99.024,12.132c-0.176-2.138-0.21-4.3-0.582-6.403c-0.222-1.257-0.78-2.694-2.337-2.897c-1.64-0.214-2.416,1.114-2.767,2.368
		c-1.417,5.056-1.405,10.128,0.428,15.097c0.406,1.099,1.252,2.104,2.597,1.921c1.123-0.153,1.378-1.274,1.728-2.209
		C99.048,17.452,98.847,14.788,99.024,12.132z M166.782,53.886c-7.175-0.872-12.523,1.848-17.87,4.381
		c-1.257,0.595-2.811,1.848-2.397,3.438c0.502,1.932,2.533,1.401,3.826,1.071C156.267,61.265,162.06,59.4,166.782,53.886z"/>
	<path fill-rule="evenodd" clip-rule="evenodd" fill="#F1E724" d="M23,58c5.156-2.871,10.229-1.12,15.197,0.478
		C43.598,60.214,44.156,62.231,41,67c-2,0-4,0-6,0c-4-2-8-4-12-6C23,60,23,59,23,58z"/>
	<path fill-rule="evenodd" clip-rule="evenodd" fill="#F1E724" d="M57.185,29.783c-4.045-1.385-8.315-2.807-10.364-7.342
		c-0.788-1.746-0.938-3.631,0.665-5.017c1.745-1.508,2.979,0.1,4.303,0.997c2.722,1.846,5.51,3.598,8.184,5.511
		c1.453,1.039,2.182,2.549,1.28,4.315C60.46,29.805,58.96,29.948,57.185,29.783z"/>
	<path fill-rule="evenodd" clip-rule="evenodd" fill="#F2E828" d="M133.3,31.669c-2.414-0.16-2.705-1.975-1.914-3.525
		c2.49-4.884,5.47-9.491,9.328-13.438c0.804-0.823,1.957-1.4,3.175-0.757c1.049,0.554,0.983,1.646,0.945,2.642
		c-0.108,2.817-7.949,13.828-10.511,14.782C134.013,31.487,133.688,31.558,133.3,31.669z"/>
	<path fill-rule="evenodd" clip-rule="evenodd" fill="#F2E828" d="M99.024,12.132c-0.177,2.656,0.024,5.32-0.932,7.876
		c-0.35,0.935-0.605,2.056-1.728,2.209c-1.344,0.184-2.191-0.822-2.597-1.921c-1.833-4.969-1.845-10.041-0.428-15.097
		c0.351-1.254,1.126-2.582,2.767-2.368c1.557,0.203,2.115,1.641,2.337,2.897C98.814,7.832,98.848,9.994,99.024,12.132z"/>
	<path fill-rule="evenodd" clip-rule="evenodd" fill="#F2E828" d="M166.782,53.886c-4.722,5.515-10.516,7.379-16.441,8.891
		c-1.293,0.33-3.324,0.86-3.826-1.071c-0.414-1.591,1.141-2.844,2.397-3.438C154.259,55.733,159.607,53.014,166.782,53.886z"/>
</g>
</svg>
